<svg width="94" height="61" viewBox="0 0 94 61" fill="none" xmlns="http://www.w3.org/2000/svg">
<path d="M80.1568 27.2232C80.1568 28.6153 79.1411 29.7438 77.8882 29.7438C76.6353 29.7438 75.6196 28.6153 75.6196 27.2232C75.6196 25.8311 76.6353 24.7025 77.8882 24.7025C79.1411 24.7025 80.1568 25.8311 80.1568 27.2232Z" fill="#86CBE3" fill-opacity="0.8"/>
<path fill-rule="evenodd" clip-rule="evenodd" d="M60.2721 3.70694C62.9737 1.54748 66.1234 -1.04308e-06 69.9171 0C73.6888 1.01328e-06 75.9695 1.09365 77.9027 2.17245C78.1003 2.28269 78.2933 2.39211 78.4831 2.49971C80.1501 3.44465 81.5709 4.25001 83.6508 4.25001C83.8232 4.25001 83.9733 4.36775 84.0145 4.53528C84.0558 4.70282 83.9775 4.8769 83.8249 4.95707C82.0931 5.86691 80.3242 7.7015 78.5073 10.2067C76.9635 12.3353 75.4045 14.92 73.8196 17.7711C74.0955 17.7476 74.3723 17.7314 74.6501 17.723C77.8013 17.6274 80.2566 18.281 82.2384 19.3791C84.2168 20.4753 85.7015 22.0023 86.9299 23.6209C87.8094 24.7798 88.5696 26.0037 89.2815 27.1498C89.5579 27.5949 89.8271 28.0283 90.0932 28.4415C91.0585 29.941 91.982 31.1759 93.0958 31.9095C93.2263 31.9955 93.2898 32.1536 93.2551 32.3062C93.2203 32.4587 93.0946 32.5736 92.9398 32.5945C88.8465 33.145 85.9232 34.8174 83.2379 37.1988C81.4308 38.8015 79.7494 40.7062 77.8918 42.8103C76.9632 43.8622 75.9905 44.964 74.9362 46.1027C74.4414 46.6372 73.9468 47.1805 73.4486 47.7277C67.6555 54.0916 61.3667 61 48.3177 61C41.2537 61 35.7573 59.1664 31.0302 55.9025C26.3135 52.6456 22.3812 47.977 18.4214 42.3407C17.5372 41.0821 16.5581 39.5737 15.5039 37.9497C15.2453 37.5512 14.9822 37.1458 14.7148 36.7355C13.355 34.6484 11.8816 32.4257 10.3208 30.3059C7.18559 26.0477 3.74661 22.2756 0.231346 20.8193C0.0865306 20.7593 -0.00566553 20.6154 0.000270583 20.4586C0.0062067 20.3018 0.10902 20.1653 0.257955 20.1164C3.19376 19.1536 5.15276 17.6377 7.1657 16.0801C7.58428 15.7563 8.00519 15.4306 8.43771 15.1077C10.9525 13.2302 13.7935 11.5113 18.6891 11.002C23.5904 10.4922 27.1108 11.6683 30.2858 13.9309C32.8645 15.7685 35.2223 18.3311 37.9076 21.2496C38.4963 21.8895 39.1008 22.5465 39.7268 23.2167C43.1995 26.9346 46.5513 29.1913 49.9087 30.316C50.279 30.44 50.6497 30.5504 51.0211 30.6476C52.6152 29.5211 54.1847 28.3435 55.7423 27.1748C56.0064 26.9766 56.2703 26.7787 56.5338 26.5813C59.5213 24.3436 62.4722 22.1787 65.4551 20.5513C67.8881 19.2239 70.3578 18.2452 72.9047 17.8766C74.5852 14.8288 76.2473 12.0464 77.9011 9.76608C79.4078 7.68864 80.9259 6.0018 82.4665 4.91538C80.7823 4.66966 79.4715 3.9246 78.1173 3.15482C77.9255 3.04578 77.7328 2.93624 77.538 2.82756C75.6632 1.78136 73.5117 0.750001 69.9171 0.75C66.3445 0.749999 63.3549 2.20252 60.7395 4.29306C58.1173 6.38897 55.8943 9.1069 53.8517 11.6122C49.7744 16.6127 46.5592 19.5289 44.0933 20.5684C43.9026 20.6488 43.683 20.5592 43.6027 20.3683C43.5224 20.1774 43.6119 19.9576 43.8026 19.8772C46.081 18.9167 49.195 16.1373 53.2714 11.1379C55.3055 8.64312 57.5772 5.86104 60.2721 3.70694ZM72.4476 18.7111C70.2127 19.1181 68.0145 20.0091 65.8135 21.2099C62.8845 22.808 59.9739 24.9412 56.9826 27.1818C56.7052 27.3896 56.4271 27.5983 56.1482 27.8076C54.7858 28.8301 53.4053 29.8662 51.9994 30.8727C54.6749 31.4051 57.3909 31.2702 60.2182 30.6077C65.0515 29.4751 68.6035 25.7946 72.3347 18.9188C72.3724 18.8494 72.41 18.7802 72.4476 18.7111ZM50.2262 31.2033C46.1784 34.0015 41.9598 36.41 37.365 37.4613C29.5994 39.2382 23.3264 37.3937 20.7757 36.0435C20.5928 35.9467 20.3661 36.0166 20.2695 36.1997C20.1728 36.3828 20.2426 36.6097 20.4255 36.7065C23.1246 38.1353 29.5804 40.0118 37.5319 38.1925C42.4468 37.0679 46.9297 34.4347 51.1726 31.4588C54.1899 32.1844 57.2373 32.0764 60.3889 31.338C65.5437 30.1301 69.2331 26.2054 72.993 19.2768C73.1216 19.0398 73.2501 18.8043 73.3784 18.5703C73.8082 18.5187 74.2396 18.4858 74.6728 18.4726C77.7019 18.3807 80.0221 19.0083 81.8757 20.0353C83.7325 21.0641 85.1429 22.5058 86.3334 24.0747C87.1903 25.2037 87.9212 26.3804 88.6265 27.5161C88.9075 27.9684 89.1843 28.4142 89.4635 28.8478C90.2392 30.0527 91.0343 31.1663 91.969 31.9875C88.1459 32.6722 85.3197 34.3506 82.7412 36.6374C80.9003 38.2701 79.1679 40.232 77.2899 42.3588C76.3674 43.4035 75.4097 44.488 74.3868 45.5929C73.8913 46.1281 73.3977 46.6699 72.902 47.214C67.1067 53.5757 61.0264 60.25 48.3177 60.25C41.3983 60.25 36.0517 58.4586 31.4555 55.285C26.8492 52.1044 22.9781 47.523 19.0342 41.9093C18.1586 40.663 17.1893 39.1698 16.136 37.5471C15.8765 37.1472 15.6118 36.7395 15.3422 36.3257C13.9812 34.2366 12.4981 31.9989 10.9238 29.8608C8.02682 25.9262 4.77931 22.2685 1.36235 20.5179C3.9638 19.5098 5.82805 18.0657 7.64863 16.6554C8.06048 16.3363 8.4701 16.019 8.88551 15.7089C11.3335 13.8813 14.0485 12.2388 18.7665 11.748C23.4788 11.2578 26.8185 12.3806 29.8514 14.5419C32.3604 16.3299 34.6524 18.8201 37.3354 21.7353C37.9288 22.38 38.5414 23.0456 39.1797 23.7289C42.7123 27.511 46.165 29.8527 49.671 31.0272C49.856 31.0892 50.041 31.1479 50.2262 31.2033Z" fill="#86CBE3" fill-opacity="0.8"/>
</svg>
