<svg width="301" height="446" viewBox="0 0 301 446" fill="none" xmlns="http://www.w3.org/2000/svg">
<path d="M290.688 0.09375L194.781 197.531H167.641L137.406 85.0312L77.5 197.531H49.9375L8.45312 0.09375H56.2656L75.25 111.469L130.797 0.09375H162.719L189.297 111.469L240.484 0.09375H290.688ZM155.266 242.078C155.266 253.422 153.203 264.062 149.078 274C144.953 283.844 139.281 292.281 132.062 299.312C124.844 306.344 116.312 311.828 106.469 315.766C96.625 319.609 86.2188 321.531 75.25 321.531C62.3125 321.531 50.2656 318.719 39.1094 313.094C27.9531 307.375 19.0938 299.219 12.5312 288.625C5.96875 278.031 2.6875 265.891 2.6875 252.203C2.6875 241.797 4.79688 231.812 9.01562 222.25C13.2344 212.594 19.0938 204.109 26.5938 196.797C34.1875 189.391 43.0469 183.625 53.1719 179.5C63.2969 175.375 74.125 173.312 85.6562 173.312C97.75 173.312 109.094 175.891 119.688 181.047C130.281 186.109 138.859 193.797 145.422 204.109C151.984 214.422 155.266 227.078 155.266 242.078ZM107.453 241.234C107.453 232.516 105.109 225.719 100.422 220.844C95.8281 215.969 89.9219 213.531 82.7031 213.531C75.2031 213.531 69.0625 215.734 64.2812 220.141C59.5 224.547 55.9844 229.891 53.7344 236.172C51.5781 242.359 50.5 248.172 50.5 253.609C50.5 261.391 52.7969 267.953 57.3906 273.297C61.9844 278.641 68.125 281.312 75.8125 281.312C81.9062 281.312 87.3906 279.344 92.2656 275.406C97.1406 271.469 100.891 266.406 103.516 260.219C106.141 253.938 107.453 247.609 107.453 241.234ZM300.812 187.938L278.734 233.219C276.203 228.812 273.391 225.062 270.297 221.969C267.203 218.875 263.266 217.328 258.484 217.328C249.297 217.328 240.859 223.938 233.172 237.156L221.078 319H174.672L196.047 175.844H242.453L239.5 196.375C252.344 181 263.781 173.312 273.812 173.312C279.062 173.312 283.703 174.625 287.734 177.25C291.859 179.781 296.219 183.344 300.812 187.938ZM163.984 299.844L104.922 371.281L155.828 443H104.922L57.6719 375.641L47.5469 443H0.578125L30.25 248.094H76.375L60.2031 359.469L109.844 299.844H163.984ZM273.109 310.531L269.594 344.281C262.656 340.812 254.969 337.672 246.531 334.859C238.188 332.047 231.578 330.641 226.703 330.641C220.328 330.641 217.141 332.844 217.141 337.25C217.141 339.781 218.078 342.078 219.953 344.141C221.922 346.203 225.156 348.828 229.656 352.016C234.156 355.109 238.188 358.156 241.75 361.156C251.219 369.031 257.547 376.109 260.734 382.391C264.016 388.672 265.656 394.578 265.656 400.109C265.656 407.141 263.594 414.219 259.469 421.344C255.344 428.375 249.062 434.188 240.625 438.781C232.281 443.281 222.062 445.531 209.969 445.531C205.188 445.531 198.344 444.688 189.438 443C180.625 441.219 171.438 437.844 161.875 432.875L167.922 400.109C178.328 404.328 186.344 407.422 191.969 409.391C197.594 411.266 203.594 412.203 209.969 412.203C213.812 412.203 216.766 411.312 218.828 409.531C220.984 407.75 222.062 405.734 222.062 403.484C222.062 400.672 220.562 397.953 217.562 395.328C214.656 392.609 208.891 388.062 200.266 381.688C192.391 375.688 185.781 369.406 180.438 362.844C175.188 356.188 172.562 348.734 172.562 340.484C172.562 329.141 177.156 319.109 186.344 310.391C195.625 301.672 209.078 297.312 226.703 297.312C236.078 297.312 244.188 298.484 251.031 300.828C257.969 303.078 265.328 306.312 273.109 310.531Z" fill="url(#paint0_linear)"/>
<defs>
<linearGradient id="paint0_linear" x1="176.5" y1="34" x2="176.5" y2="534" gradientUnits="userSpaceOnUse">
<stop stop-color="#C5EAFF"/>
<stop offset="1" stop-color="#C5EAFF" stop-opacity="0.37"/>
</linearGradient>
</defs>
</svg>
