<svg width="80" height="79" viewBox="0 0 80 79" fill="none" xmlns="http://www.w3.org/2000/svg">
<path d="M11.3681 23.5855C11.3681 24.7004 12.2718 25.6041 13.3867 25.6041C14.5015 25.6041 15.4053 24.7004 15.4053 23.5855C15.4053 22.4707 14.5015 21.567 13.3867 21.567C12.2718 21.567 11.3681 22.4707 11.3681 23.5855Z" fill="white"/>
<path fill-rule="evenodd" clip-rule="evenodd" d="M28.5922 3.2203C26.2566 1.35561 23.5082 -9.11879e-07 20.186 0C16.9011 9.1188e-07 14.9054 0.955996 13.2355 1.88676C13.0668 1.9808 12.9029 2.07347 12.7426 2.16407C11.3182 2.96947 10.1814 3.61223 8.49937 3.61223C8.20606 3.61223 7.95062 3.81237 7.88044 4.09715C7.81026 4.38193 7.94345 4.67785 8.20318 4.81413C9.61001 5.55236 11.0799 7.0623 12.6184 9.18105C13.8293 10.8488 15.0543 12.8529 16.3014 15.0682C16.257 15.0664 16.2125 15.0648 16.1681 15.0635C13.4347 14.9807 11.2879 15.5473 9.54696 16.5108C7.81166 17.4711 6.51669 18.8052 5.45529 20.2021C4.69726 21.1998 4.03773 22.2603 3.4294 23.2385C3.1961 23.6137 2.97034 23.9767 2.74943 24.3195C1.92827 25.5935 1.17334 26.5904 0.287131 27.1734C0.0649465 27.3196 -0.0431368 27.5884 0.0159887 27.8477C0.0751141 28.107 0.289024 28.3023 0.552624 28.3377C3.95981 28.7954 6.39071 30.1819 8.63938 32.1738C10.1628 33.5233 11.5722 35.1181 13.1439 36.8966C13.9366 37.7935 14.7706 38.7372 15.6813 39.7196C16.102 40.1735 16.5231 40.6358 16.948 41.1022C21.8769 46.5122 27.317 52.4834 38.5658 52.4834C44.6384 52.4834 49.3792 50.907 53.4573 48.0944C57.518 45.2939 60.8901 41.2889 64.2664 36.4889C65.0226 35.4138 65.86 34.1253 66.7573 32.7445C66.977 32.4064 67.2003 32.0629 67.4268 31.7155C68.5834 29.9425 69.833 28.0597 71.1554 26.2658C73.8235 22.6463 76.7047 19.5089 79.6063 18.3082C79.8527 18.2063 80.0096 17.9616 79.9995 17.6951C79.9894 17.4286 79.8145 17.1965 79.561 17.1135C77.1192 16.3136 75.4998 15.0627 73.7893 13.7415C73.4303 13.4641 73.0673 13.1837 72.6918 12.9037C70.5234 11.2868 68.0524 9.79336 63.8109 9.35269C59.5598 8.91101 56.4872 9.93332 53.725 11.8994C51.501 13.4824 49.4667 15.6911 47.1808 18.173C46.6818 18.7148 46.1708 19.2695 45.6433 19.8336C42.7138 22.9663 39.9046 24.8482 37.1108 25.783C36.8502 25.8702 36.5892 25.9493 36.3279 26.0205C35.0129 25.089 33.7137 24.1155 32.4194 23.1457C32.2012 22.9822 31.9832 22.8189 31.7653 22.6558C29.2248 20.7551 26.6965 18.9018 24.1354 17.5061C22.0945 16.394 20.0076 15.558 17.8466 15.2208C16.4397 12.6792 15.0432 10.3507 13.65 8.43197C12.5442 6.90919 11.4176 5.61167 10.2628 4.6707C11.4324 4.37657 12.4036 3.8244 13.3649 3.27784C13.5287 3.18475 13.6921 3.09182 13.8562 3.00036C15.4267 2.12502 17.2025 1.2749 20.186 1.2749C23.132 1.2749 25.6079 2.46909 27.7967 4.21662C29.997 5.97328 31.868 8.25607 33.6098 10.3898C37.0797 14.6405 39.8587 17.1771 42.0368 18.0942C42.3613 18.2309 42.7351 18.0786 42.8717 17.7541C43.0083 17.4297 42.856 17.0559 42.5316 16.9193C40.6725 16.1365 38.0657 13.8323 34.5974 9.58362C32.8701 7.46771 30.9164 5.07586 28.5922 3.2203ZM18.6438 16.6744C20.2747 17.0553 21.8935 17.7364 23.5253 18.6256C25.9949 19.9714 28.4545 21.7711 31.0016 23.6766C31.2431 23.8573 31.4854 24.039 31.7286 24.2213C32.6814 24.9357 33.6472 25.6599 34.6293 26.3726C32.6418 26.6582 30.618 26.5158 28.5118 26.0229C24.6343 25.1154 21.7193 22.2166 18.6438 16.6744ZM37.6588 26.9433C40.9199 29.1507 44.2987 31.0116 47.9568 31.8476C54.4858 33.3397 59.746 31.7857 61.8535 30.6715C62.1647 30.507 62.5504 30.6259 62.7149 30.9371C62.8795 31.2483 62.7606 31.634 62.4493 31.7986C60.0894 33.0463 54.5182 34.6549 47.6728 33.0905C43.483 32.133 39.6627 29.9067 36.0702 27.3996C33.4931 27.993 30.8946 27.8899 28.2213 27.2642C23.6981 26.2056 20.5001 22.7661 17.2885 16.8549C17.2058 16.7026 17.1231 16.5511 17.0406 16.4004C16.7376 16.3681 16.434 16.347 16.1295 16.3378C13.6038 16.2613 11.687 16.7836 10.1643 17.6262C8.63594 18.472 7.46744 19.6612 6.47041 20.9734C5.75088 21.9204 5.1413 22.9007 4.54403 23.8612C4.30316 24.2486 4.06429 24.6327 3.82103 25.0101C3.28413 25.8431 2.72323 26.6471 2.08335 27.3122C5.10233 27.9688 7.3941 29.3676 9.48474 31.2195C11.0657 32.6199 12.5617 34.3119 14.1683 36.129C14.9505 37.0137 15.759 37.9281 16.6163 38.853C17.0381 39.308 17.4576 39.7678 17.8783 40.2289C22.8109 45.6351 27.896 51.2085 38.5658 51.2085C44.3922 51.2085 48.8782 49.7038 52.7335 47.0449C56.6063 44.374 59.8743 40.5172 63.2236 35.7554C63.965 34.7015 64.7855 33.4388 65.6815 32.0602C65.9028 31.7197 66.1286 31.3722 66.359 31.019C67.5177 29.2426 68.7839 27.3343 70.1292 25.5093C72.43 22.3882 75.0244 19.4208 77.7866 17.7984C75.8395 16.9427 74.3727 15.8071 72.9674 14.7193C72.6199 14.4502 72.2761 14.184 71.9297 13.9257C69.875 12.3936 67.6183 11.03 63.6792 10.6208C59.7497 10.2125 56.9847 11.1441 54.4643 12.9381C52.3589 14.4366 50.4365 16.5225 48.1546 18.9985C47.6476 19.5486 47.1229 20.118 46.5745 20.7044C43.5905 23.8953 40.6556 25.9087 37.6588 26.9433Z" fill="white"/>
<mask id="path-3-outside-1" maskUnits="userSpaceOnUse" x="0.0695801" y="56.4098" width="79" height="23" fill="black">
<rect fill="white" x="0.0695801" y="56.4098" width="79" height="23"/>
<path d="M18.6791 57.6321C18.2152 57.98 17.7803 58.3956 17.3743 58.8789C17.7674 59.1237 18.0992 59.3943 18.3698 59.6907C18.6405 59.9807 18.8563 60.2771 19.0174 60.5799C19.1849 60.8827 19.3041 61.1823 19.375 61.4787C19.4459 61.7751 19.4813 62.049 19.4813 62.3003C19.4813 62.9317 19.3621 63.4826 19.1237 63.953C18.8853 64.4169 18.5696 64.8035 18.1765 65.1128C17.7899 65.422 17.3421 65.654 16.8331 65.8086C16.3305 65.9568 15.8086 66.0309 15.2674 66.0309C14.6617 66.0309 14.0657 65.9633 13.4794 65.828C13.2088 66.4014 12.9156 66.9716 12.5999 67.5387C12.2841 68.1057 11.9394 68.6501 11.5657 69.172C11.1984 69.6875 10.7957 70.1707 10.3576 70.6218C9.92589 71.0664 9.45876 71.4497 8.95618 71.7719C8.46004 72.1005 7.92203 72.3582 7.34213 72.5451C6.76223 72.732 6.14368 72.8254 5.48646 72.8254C4.84857 72.8254 4.25901 72.7223 3.71778 72.5161C3.17654 72.3099 2.7094 72.0103 2.31636 71.6173C1.92332 71.2178 1.61726 70.7345 1.39819 70.1675C1.17912 69.5941 1.06958 68.9401 1.06958 68.2055C1.06958 67.2519 1.23066 66.3338 1.55283 65.451C1.88144 64.5683 2.32925 63.7436 2.89626 62.9768C3.46971 62.21 4.14303 61.5142 4.91623 60.8892C5.68943 60.2642 6.52383 59.7294 7.41945 59.2848C8.31507 58.8402 9.25257 58.4955 10.232 58.2506C11.2113 58.0058 12.1907 57.8834 13.1701 57.8834C13.9368 57.8834 14.6166 57.9478 15.2094 58.0767C15.8086 58.1991 16.337 58.3634 16.7945 58.5696C17.0522 58.3441 17.3228 58.1347 17.6063 57.9414C17.8898 57.7416 18.1959 57.5644 18.5245 57.4098L18.6791 57.6321ZM12.6675 65.0258C12.9639 64.4072 13.2571 63.8144 13.547 63.2474C13.837 62.674 14.1301 62.1327 14.4265 61.6237C14.7294 61.1082 15.0419 60.6282 15.364 60.1836C15.6862 59.7326 16.0341 59.317 16.4079 58.9369C15.9826 58.7693 15.5187 58.6469 15.0161 58.5696C14.52 58.4923 13.9884 58.4536 13.4214 58.4536C12.6417 58.4536 11.8782 58.547 11.1308 58.7339C10.3834 58.9207 9.66172 59.1785 8.96584 59.5071C8.27641 59.8292 7.61597 60.2126 6.98453 60.6572C6.35953 61.1018 5.77641 61.585 5.23517 62.107C4.70038 62.6289 4.21391 63.1765 3.77577 63.75C3.34406 64.317 2.97357 64.8905 2.6643 65.4704C2.36146 66.0503 2.12628 66.6237 1.95876 67.1907C1.79767 67.7513 1.71713 68.2861 1.71713 68.7951C1.71713 69.2912 1.80734 69.7552 1.98775 70.1869C2.16816 70.6121 2.41623 70.9826 2.73195 71.2983C3.05412 71.614 3.43427 71.8621 3.87242 72.0425C4.317 72.2229 4.80347 72.3131 5.33182 72.3131C6.15012 72.3131 6.88466 72.1521 7.53543 71.8299C8.1862 71.5077 8.78865 71.0503 9.34278 70.4575C9.8969 69.8582 10.422 69.1398 10.9182 68.3022C11.4143 67.4646 11.9201 66.5303 12.4356 65.4994C11.7655 65.2352 11.1437 64.8969 10.5702 64.4845L10.7249 64.2139C11.0341 64.3686 11.3466 64.5167 11.6624 64.6585C11.9845 64.7938 12.3196 64.9162 12.6675 65.0258ZM18.4665 61.7494C18.4665 61.1759 18.3408 60.6862 18.0896 60.2803C17.8447 59.8744 17.5 59.5361 17.0554 59.2655C16.4691 60.0258 15.9085 60.9117 15.3737 61.9233C14.8454 62.9285 14.2977 64.0496 13.7307 65.2867C13.9175 65.3189 14.1044 65.3447 14.2912 65.364C14.4781 65.3769 14.6682 65.3834 14.8615 65.3834C15.3512 65.3834 15.8118 65.2964 16.2435 65.1224C16.6817 64.9485 17.0651 64.7036 17.3937 64.3879C17.7223 64.0657 17.9832 63.6823 18.1765 63.2378C18.3698 62.7932 18.4665 62.297 18.4665 61.7494Z"/>
<path d="M25.3383 65.3254C25.2545 65.4929 25.1353 65.712 24.9807 65.9826C24.8325 66.2532 24.6714 66.5528 24.4974 66.8814C24.3234 67.2036 24.1463 67.5419 23.9658 67.8963C23.7919 68.2506 23.6308 68.5986 23.4826 68.9401C23.3408 69.2751 23.2216 69.5941 23.125 69.8969C23.0348 70.1933 22.9897 70.4446 22.9897 70.6508C22.9897 70.857 23.0283 70.9923 23.1057 71.0567C23.1894 71.1147 23.2957 71.1437 23.4246 71.1437C23.6115 71.1437 23.8015 71.0889 23.9948 70.9794C24.1946 70.8698 24.3879 70.7281 24.5747 70.5541C24.768 70.3802 24.9549 70.1836 25.1353 69.9646C25.3157 69.7455 25.4832 69.5264 25.6379 69.3073C25.799 69.0818 25.9439 68.8692 26.0728 68.6695C26.2017 68.4633 26.3112 68.2893 26.4014 68.1475L26.7493 68.4182C26.6398 68.6244 26.5109 68.8466 26.3627 69.085C26.2146 69.3235 26.0502 69.5651 25.8698 69.8099C25.6959 70.0483 25.5058 70.2803 25.2996 70.5058C25.0934 70.7313 24.8743 70.9311 24.6424 71.105C24.4169 71.279 24.1785 71.4175 23.9272 71.5206C23.6759 71.6237 23.4182 71.6753 23.154 71.6753C22.7674 71.6753 22.4839 71.5593 22.3035 71.3273C22.1231 71.0954 22.0329 70.7957 22.0329 70.4285C22.0329 70.4027 22.0329 70.3479 22.0329 70.2642C22.0393 70.174 22.049 70.1031 22.0618 70.0515C21.7397 70.4575 21.4304 70.7925 21.134 71.0567C20.8441 71.3209 20.5606 71.5303 20.2835 71.6849C20.0129 71.8396 19.7487 71.9459 19.491 72.0039C19.2397 72.0683 18.9981 72.1005 18.7661 72.1005C18.5213 72.1005 18.2893 72.0586 18.0702 71.9749C17.8576 71.8975 17.6707 71.7816 17.5097 71.6269C17.3421 71.4723 17.2133 71.2822 17.1231 71.0567C17.0264 70.8312 16.9781 70.5702 16.9781 70.2738C16.9781 69.9066 17.0618 69.4878 17.2294 69.0174C17.3905 68.5406 17.6804 68.0283 18.0992 67.4807C18.4536 67.0103 18.8209 66.614 19.201 66.2919C19.5876 65.9697 19.9646 65.712 20.3318 65.5187C20.7055 65.3189 21.0599 65.1772 21.395 65.0934C21.73 65.0097 22.0296 64.9678 22.2938 64.9678C22.8866 64.9678 23.3344 65.0677 23.6372 65.2674C23.9401 65.4607 24.1237 65.7603 24.1881 66.1662C24.317 66.0052 24.4523 65.8441 24.5941 65.683C24.7358 65.5219 24.8808 65.3576 25.029 65.1901L25.3383 65.3254ZM22.3711 68.9981C22.4549 68.8628 22.558 68.692 22.6804 68.4858C22.8028 68.2732 22.9317 68.0573 23.067 67.8383C23.2023 67.6128 23.3344 67.3969 23.4633 67.1907C23.5921 66.9845 23.7049 66.8106 23.8015 66.6688C23.8015 66.6108 23.7919 66.5174 23.7725 66.3885C23.7597 66.2597 23.7178 66.1308 23.6469 66.0019C23.576 65.8666 23.4633 65.7506 23.3086 65.654C23.154 65.5573 22.9381 65.509 22.6611 65.509C22.4613 65.509 22.2358 65.5412 21.9845 65.6057C21.7397 65.6637 21.4755 65.7667 21.192 65.9149C20.9149 66.0567 20.6282 66.2468 20.3318 66.4852C20.0354 66.7236 19.739 67.02 19.4426 67.3744C18.9981 67.9091 18.6533 68.4472 18.4085 68.9884C18.1701 69.5232 18.0509 70.0064 18.0509 70.4381C18.0509 70.8054 18.1347 71.0889 18.3022 71.2887C18.4697 71.4884 18.7081 71.5883 19.0174 71.5883C19.3718 71.5883 19.7036 71.511 20.0129 71.3563C20.3222 71.1952 20.6121 70.989 20.8827 70.7378C21.1533 70.4865 21.4111 70.2094 21.6559 69.9066C21.9008 69.5973 22.1392 69.2945 22.3711 68.9981Z"/>
<path d="M29.7841 63.3247L27.5902 67.732C27.9768 67.2358 28.3827 66.7751 28.808 66.3499C29.2332 65.9182 29.6682 65.567 30.1127 65.2964C30.4414 65.1031 30.7313 64.971 30.9826 64.9001C31.2339 64.8228 31.4723 64.7841 31.6978 64.7841C31.9169 64.7841 32.0973 64.8196 32.239 64.8905C32.3808 64.9613 32.4935 65.0548 32.5773 65.1707C32.6611 65.2867 32.7191 65.4156 32.7513 65.5573C32.7835 65.6927 32.7996 65.828 32.7996 65.9633C32.7996 66.2661 32.7481 66.5657 32.645 66.8621C32.5419 67.1585 32.413 67.4517 32.2584 67.7416C32.1102 68.0316 31.9459 68.3183 31.7655 68.6018C31.585 68.8789 31.4175 69.1527 31.2629 69.4233C31.1147 69.6875 30.989 69.9485 30.8859 70.2062C30.7829 70.4639 30.7313 70.712 30.7313 70.9504C30.7313 71.0664 30.7442 71.163 30.77 71.2403C30.8022 71.3112 30.8408 71.3692 30.8859 71.4143C30.9375 71.453 30.9923 71.4787 31.0502 71.4916C31.1082 71.5045 31.1662 71.511 31.2242 71.511C31.3466 71.511 31.4884 71.4562 31.6495 71.3466C31.817 71.2307 31.9942 71.0825 32.181 70.9021C32.3679 70.7152 32.558 70.5058 32.7513 70.2738C32.951 70.0354 33.1411 69.7938 33.3215 69.549C33.5084 69.2977 33.6823 69.0528 33.8434 68.8144C34.0045 68.5696 34.1463 68.3473 34.2687 68.1475L34.6263 68.4182C34.5554 68.5599 34.4491 68.7468 34.3073 68.9787C34.172 69.2107 34.0109 69.462 33.8241 69.7326C33.6372 69.9968 33.431 70.2642 33.2055 70.5348C32.9865 70.799 32.7545 71.0406 32.5097 71.2597C32.2648 71.4787 32.0135 71.6559 31.7558 71.7912C31.5045 71.933 31.2564 72.0039 31.0116 72.0039C30.8441 72.0039 30.683 71.9781 30.5283 71.9265C30.3737 71.875 30.2384 71.7977 30.1224 71.6946C30.0064 71.585 29.913 71.4465 29.8421 71.279C29.7713 71.1115 29.7358 70.9117 29.7358 70.6798C29.7358 70.4027 29.7906 70.0838 29.9001 69.7229C30.0161 69.3621 30.2352 68.9497 30.5573 68.4858C30.8215 68.1057 31.0502 67.7899 31.2435 67.5387C31.4368 67.2809 31.5947 67.0586 31.7171 66.8718C31.846 66.6785 31.9394 66.5045 31.9974 66.3499C32.0554 66.1888 32.0844 66.0116 32.0844 65.8183C32.0844 65.6508 32.0361 65.5219 31.9394 65.4317C31.8428 65.3415 31.7332 65.2964 31.6108 65.2964C31.2822 65.2964 30.9439 65.3898 30.596 65.5767C30.2481 65.7635 29.9033 66.0116 29.5618 66.3209C29.2204 66.6237 28.8853 66.9716 28.5567 67.3647C28.2281 67.7577 27.9156 68.1604 27.6192 68.5728C27.3292 68.9787 27.0586 69.3782 26.8073 69.7713C26.5625 70.1643 26.3499 70.5187 26.1695 70.8344C25.989 71.1437 25.8505 71.395 25.7539 71.5883C25.6508 71.7751 25.596 71.8718 25.5896 71.8782C25.3189 72.4323 25.0548 72.9671 24.797 73.4826C24.5393 74.0045 24.2977 74.4974 24.0722 74.9613C23.8402 75.4253 23.6276 75.8473 23.4343 76.2274C23.241 76.614 23.0734 76.9491 22.9317 77.2326C22.7899 77.5161 22.6804 77.7384 22.6031 77.8995C22.5193 78.0606 22.4742 78.1443 22.4678 78.1508L21.4143 77.5515C21.9426 76.5528 22.4195 75.6508 22.8447 74.8454C23.27 74.0399 23.6759 73.2796 24.0625 72.5644C24.4491 71.8557 24.8292 71.1662 25.203 70.4961C25.5767 69.826 25.9729 69.1269 26.3917 68.3988C26.8106 67.6643 27.2648 66.8782 27.7545 66.0406C28.2506 65.1965 28.8144 64.2461 29.4459 63.1894L29.7841 63.3247Z"/>
<path d="M38.6179 63.1798C38.6179 63.3086 38.5857 63.4439 38.5213 63.5857C38.4568 63.721 38.3731 63.8434 38.27 63.953C38.1733 64.0625 38.0638 64.1527 37.9414 64.2236C37.8189 64.2945 37.6965 64.3299 37.5741 64.3299C37.4646 64.3299 37.3808 64.2912 37.3228 64.2139C37.2648 64.1302 37.2358 64.0303 37.2358 63.9143C37.2358 63.8112 37.2551 63.6888 37.2938 63.547C37.3325 63.4053 37.3905 63.2732 37.4678 63.1508C37.5451 63.0219 37.6385 62.9124 37.7481 62.8222C37.8576 62.732 37.9832 62.6869 38.125 62.6869C38.2603 62.6869 38.3763 62.7384 38.4729 62.8415C38.5696 62.9446 38.6179 63.0573 38.6179 63.1798ZM36.8106 65.3254C36.7268 65.4929 36.6076 65.7152 36.453 65.9923C36.3048 66.2629 36.1437 66.5625 35.9697 66.8911C35.7957 67.2133 35.6185 67.5548 35.4381 67.9156C35.2577 68.27 35.0934 68.6179 34.9452 68.9594C34.8035 69.2945 34.6875 69.6102 34.5973 69.9066C34.5071 70.203 34.462 70.4542 34.462 70.6604C34.462 70.8473 34.5006 70.9762 34.578 71.047C34.6553 71.1115 34.7648 71.1437 34.9066 71.1437C35.1707 71.1437 35.4285 71.0567 35.6798 70.8827C35.931 70.7088 36.1791 70.4832 36.424 70.2062C36.6752 69.9227 36.9201 69.6005 37.1585 69.2397C37.3969 68.8789 37.6353 68.5148 37.8737 68.1475L38.2216 68.4182C38.0348 68.7532 37.8222 69.1108 37.5838 69.491C37.3518 69.8711 37.0908 70.2255 36.8009 70.5541C36.5109 70.8763 36.192 71.1437 35.8441 71.3563C35.4961 71.5689 35.116 71.6753 34.7036 71.6753C34.317 71.6753 34.0206 71.5593 33.8144 71.3273C33.6082 71.0954 33.5051 70.7957 33.5051 70.4285C33.5051 69.9968 33.605 69.5457 33.8048 69.0754C34.0045 68.605 34.2526 68.1411 34.549 67.6836C34.8518 67.2197 35.1772 66.7751 35.5251 66.3499C35.8795 65.9246 36.2049 65.538 36.5013 65.1901L36.8106 65.3254Z"/>
<path d="M38.6082 69.549C38.5954 69.6263 38.5857 69.7036 38.5792 69.7809C38.5728 69.8582 38.5696 69.9356 38.5696 70.0129C38.5696 70.2448 38.6018 70.4671 38.6662 70.6798C38.7371 70.886 38.837 71.0696 38.9658 71.2307C39.1012 71.3853 39.2655 71.5077 39.4588 71.5979C39.6585 71.6881 39.884 71.7332 40.1353 71.7332C40.9794 71.7332 41.7945 71.4465 42.5805 70.8731C43.3666 70.2996 44.1495 69.3911 44.9291 68.1475L45.2577 68.4375C44.8325 69.1463 44.4008 69.7455 43.9626 70.2352C43.5245 70.7184 43.0863 71.1115 42.6482 71.4143C42.2165 71.7171 41.7912 71.9362 41.3724 72.0715C40.9536 72.2068 40.5541 72.2745 40.174 72.2745C39.8969 72.2745 39.6037 72.2358 39.2945 72.1585C38.9852 72.0812 38.6984 71.9523 38.4343 71.7719C38.1765 71.5915 37.9639 71.3499 37.7964 71.047C37.6224 70.7442 37.5354 70.3673 37.5354 69.9162C37.5354 69.433 37.6192 68.9691 37.7867 68.5245C37.9478 68.0735 38.1604 67.6546 38.4246 67.268C38.6888 66.8814 38.9916 66.5303 39.3331 66.2146C39.6746 65.8924 40.0193 65.6186 40.3673 65.393C40.7216 65.1675 41.0664 64.9936 41.4014 64.8711C41.7365 64.7423 42.0329 64.6778 42.2906 64.6778C42.4581 64.6778 42.6289 64.7036 42.8028 64.7552C42.9768 64.8067 43.1314 64.8872 43.2667 64.9968C43.4085 65.1063 43.5213 65.2513 43.605 65.4317C43.6952 65.6121 43.7403 65.828 43.7403 66.0792C43.7403 66.4207 43.6598 66.7429 43.4987 67.0457C43.3441 67.3421 43.1347 67.6192 42.8705 67.8769C42.6063 68.1282 42.3002 68.357 41.9523 68.5631C41.6044 68.7629 41.2403 68.9336 40.8602 69.0754C40.48 69.2171 40.0966 69.3299 39.71 69.4137C39.3234 69.4974 38.9562 69.5425 38.6082 69.549ZM38.6856 69.1334C39.1173 69.0883 39.5232 68.9981 39.9033 68.8628C40.2835 68.7274 40.6314 68.5631 40.9472 68.3698C41.2629 68.1701 41.5432 67.9542 41.788 67.7223C42.0393 67.4903 42.2487 67.2552 42.4162 67.0167C42.5838 66.7783 42.7126 66.5496 42.8028 66.3305C42.893 66.1115 42.9381 65.9149 42.9381 65.741C42.9381 65.567 42.8898 65.4285 42.7932 65.3254C42.703 65.2223 42.5934 65.1707 42.4646 65.1707C42.181 65.1707 41.8621 65.2738 41.5077 65.48C41.1533 65.6798 40.799 65.96 40.4446 66.3209C40.0902 66.6753 39.7551 67.0941 39.4394 67.5773C39.1301 68.0606 38.8789 68.5792 38.6856 69.1334Z"/>
<path d="M51.0277 68.4182C50.931 68.5599 50.8151 68.7532 50.6798 68.9981C50.5509 69.2365 50.3995 69.4974 50.2255 69.7809C50.0515 70.058 49.8582 70.3415 49.6456 70.6314C49.4394 70.9214 49.2107 71.1823 48.9594 71.4143C48.7146 71.6463 48.4472 71.8363 48.1572 71.9845C47.8673 72.1327 47.558 72.2068 47.2294 72.2068C47.049 72.2068 46.8782 72.1778 46.7171 72.1198C46.556 72.0683 46.4143 71.9845 46.2919 71.8686C46.1695 71.7526 46.0728 71.6108 46.0019 71.4433C45.931 71.2693 45.8956 71.0664 45.8956 70.8344C45.8956 70.5187 45.9568 70.1901 46.0792 69.8486C46.2081 69.5006 46.3563 69.1656 46.5238 68.8434C46.6914 68.5213 46.8589 68.2281 47.0264 67.9639C47.1939 67.6933 47.3164 67.4774 47.3937 67.3164C47.471 67.1553 47.5097 67.0167 47.5097 66.9008C47.5097 66.817 47.4807 66.7429 47.4227 66.6785C47.3711 66.614 47.3035 66.5528 47.2197 66.4948C47.1424 66.4304 47.0586 66.366 46.9684 66.3015C46.8847 66.2307 46.8138 66.1469 46.7558 66.0503C46.5947 66.308 46.4304 66.5689 46.2629 66.8331C46.1147 67.0586 45.9536 67.3131 45.7796 67.5966C45.6057 67.8737 45.4381 68.1475 45.2771 68.4182L44.9291 68.1475L46.9974 64.9098L47.2777 65.0548C47.2648 65.0934 47.2423 65.1546 47.21 65.2384C47.1843 65.3222 47.1714 65.4124 47.1714 65.509C47.1714 65.5799 47.181 65.6508 47.2004 65.7216C47.2262 65.7861 47.2745 65.8473 47.3454 65.9053C47.6031 66.1372 47.806 66.3177 47.9542 66.4465C48.1024 66.5689 48.2088 66.6688 48.2732 66.7461C48.3441 66.817 48.3859 66.8782 48.3988 66.9298C48.4182 66.9749 48.4278 67.0361 48.4278 67.1134C48.4278 67.1907 48.4149 67.2841 48.3892 67.3937C48.3634 67.5032 48.3183 67.6353 48.2539 67.7899C48.1959 67.9446 48.1121 68.1282 48.0026 68.3408C47.8995 68.547 47.7674 68.7887 47.6063 69.0657C47.5097 69.2332 47.413 69.404 47.3164 69.578C47.2262 69.7455 47.1424 69.9162 47.0651 70.0902C46.9942 70.2642 46.9362 70.4381 46.8911 70.6121C46.846 70.7861 46.8234 70.9536 46.8234 71.1147C46.8234 71.2371 46.8396 71.337 46.8718 71.4143C46.9104 71.4852 46.9588 71.5399 47.0167 71.5786C47.0747 71.6173 47.1359 71.643 47.2004 71.6559C47.2713 71.6688 47.3389 71.6753 47.4033 71.6753C47.616 71.6753 47.8254 71.614 48.0316 71.4916C48.2442 71.3628 48.4504 71.1985 48.6501 70.9987C48.8563 70.799 49.0528 70.5735 49.2397 70.3222C49.433 70.0644 49.6166 69.8035 49.7906 69.5393C49.9646 69.2751 50.1256 69.0238 50.2738 68.7854C50.422 68.5406 50.5541 68.328 50.6701 68.1475L51.0277 68.4182Z"/>
<path d="M56.1791 67.3647C55.9343 67.3067 55.7216 67.2262 55.5412 67.1231C55.3673 67.0135 55.2255 66.8911 55.116 66.7558C55.0064 66.6205 54.9259 66.4787 54.8743 66.3305C54.8228 66.1759 54.797 66.0245 54.797 65.8763C54.797 65.5541 54.8872 65.3061 55.0676 65.1321C55.2481 64.9517 55.4736 64.8615 55.7442 64.8615C55.9246 64.8615 56.0792 64.9098 56.2081 65.0064C56.337 65.0966 56.4433 65.2191 56.5271 65.3737C56.6108 65.5283 56.672 65.7088 56.7107 65.9149C56.7493 66.1147 56.7687 66.3241 56.7687 66.5432C56.7687 66.6914 56.7622 66.8396 56.7493 66.9878C56.7365 67.1295 56.7139 67.2745 56.6817 67.4227C56.5271 68.1186 56.2983 68.75 55.9955 69.317C55.6991 69.8776 55.3608 70.3608 54.9807 70.7667C54.607 71.1662 54.2075 71.4755 53.7822 71.6946C53.357 71.9072 52.9414 72.0135 52.5354 72.0135C52.2584 72.0135 51.9942 71.9749 51.7429 71.8975C51.4981 71.8202 51.279 71.6914 51.0857 71.511C50.8988 71.3305 50.7506 71.0954 50.6411 70.8054C50.5316 70.509 50.4768 70.145 50.4768 69.7133C50.4768 69.1785 50.5799 68.5406 50.7861 67.7996C50.9987 67.0586 51.3563 66.1888 51.8589 65.1901C52.5805 63.7919 53.3054 62.5387 54.0335 61.4304C54.3428 60.96 54.6682 60.4994 55.0097 60.0483C55.3512 59.5973 55.6926 59.1946 56.0341 58.8402C56.3821 58.4858 56.7236 58.2023 57.0586 57.9897C57.4001 57.7706 57.7223 57.6611 58.0251 57.6611C58.0638 57.6611 58.1314 57.6675 58.2281 57.6804C58.3312 57.6933 58.4343 57.7287 58.5374 57.7867C58.6405 57.8383 58.7307 57.922 58.808 58.038C58.8917 58.1475 58.9336 58.3022 58.9336 58.5019C58.9336 58.7403 58.8692 59.0432 58.7403 59.4104C58.6179 59.7713 58.431 60.174 58.1798 60.6186C57.9349 61.0567 57.6289 61.5271 57.2616 62.0296C56.9008 62.5258 56.482 63.0251 56.0051 63.5277C55.5348 64.0303 55.0097 64.5232 54.4298 65.0064C53.8563 65.4897 53.2313 65.9407 52.5548 66.3595C52.3292 66.8492 52.1392 67.2938 51.9845 67.6933C51.8363 68.0863 51.7171 68.4439 51.6269 68.7661C51.5367 69.0818 51.4723 69.3621 51.4336 69.607C51.395 69.8518 51.3756 70.0644 51.3756 70.2448C51.3756 70.4961 51.4079 70.7055 51.4723 70.8731C51.5432 71.0341 51.6366 71.163 51.7526 71.2597C51.8685 71.3499 52.0006 71.4143 52.1488 71.453C52.297 71.4916 52.4517 71.511 52.6127 71.511C52.9156 71.511 53.2088 71.4336 53.4923 71.279C53.7822 71.1244 54.056 70.9246 54.3138 70.6798C54.5715 70.4285 54.8067 70.1482 55.0193 69.8389C55.2384 69.5296 55.4285 69.2236 55.5896 68.9207C55.7506 68.6115 55.8827 68.3215 55.9858 68.0509C56.0889 67.7738 56.1533 67.5451 56.1791 67.3647ZM52.9607 65.48C53.5535 65.0741 54.0979 64.6456 54.5941 64.1946C55.0966 63.7436 55.5509 63.2925 55.9568 62.8415C56.3627 62.384 56.7204 61.9394 57.0296 61.5077C57.3389 61.0696 57.5966 60.6604 57.8028 60.2803C58.009 59.9001 58.1637 59.5619 58.2667 59.2655C58.3763 58.9626 58.431 58.7178 58.431 58.5309C58.431 58.3634 58.3698 58.2796 58.2474 58.2796C58.0155 58.2796 57.7352 58.4053 57.4066 58.6566C57.0844 58.9079 56.7075 59.317 56.2758 59.884C55.8505 60.451 55.3608 61.192 54.8067 62.107C54.259 63.0219 53.6437 64.1463 52.9607 65.48ZM56.2468 66.8621C56.2532 66.8041 56.2564 66.7461 56.2564 66.6881C56.2629 66.6302 56.2661 66.5754 56.2661 66.5238C56.2661 66.1759 56.221 65.8956 56.1308 65.683C56.0406 65.4704 55.9117 65.364 55.7442 65.364C55.7055 65.364 55.6604 65.3705 55.6089 65.3834C55.5638 65.3898 55.5155 65.4124 55.4639 65.451C55.4188 65.4832 55.3801 65.5316 55.3479 65.596C55.3157 65.6604 55.2996 65.7442 55.2996 65.8473C55.2996 66.1115 55.3898 66.3305 55.5702 66.5045C55.7571 66.672 55.9826 66.7912 56.2468 66.8621Z"/>
<path d="M61.9684 63.1798C61.9684 63.3086 61.9362 63.4439 61.8718 63.5857C61.8073 63.721 61.7236 63.8434 61.6205 63.953C61.5238 64.0625 61.4143 64.1527 61.2919 64.2236C61.1695 64.2945 61.047 64.3299 60.9246 64.3299C60.8151 64.3299 60.7313 64.2912 60.6733 64.2139C60.6153 64.1302 60.5863 64.0303 60.5863 63.9143C60.5863 63.8112 60.6057 63.6888 60.6443 63.547C60.683 63.4053 60.741 63.2732 60.8183 63.1508C60.8956 63.0219 60.989 62.9124 61.0986 62.8222C61.2081 62.732 61.3338 62.6869 61.4755 62.6869C61.6108 62.6869 61.7268 62.7384 61.8234 62.8415C61.9201 62.9446 61.9684 63.0573 61.9684 63.1798ZM60.1611 65.3254C60.0773 65.4929 59.9581 65.7152 59.8035 65.9923C59.6553 66.2629 59.4942 66.5625 59.3202 66.8911C59.1463 67.2133 58.9691 67.5548 58.7887 67.9156C58.6082 68.27 58.4439 68.6179 58.2957 68.9594C58.154 69.2945 58.038 69.6102 57.9478 69.9066C57.8576 70.203 57.8125 70.4542 57.8125 70.6604C57.8125 70.8473 57.8512 70.9762 57.9285 71.047C58.0058 71.1115 58.1153 71.1437 58.2571 71.1437C58.5213 71.1437 58.779 71.0567 59.0303 70.8827C59.2816 70.7088 59.5296 70.4832 59.7745 70.2062C60.0258 69.9227 60.2706 69.6005 60.509 69.2397C60.7474 68.8789 60.9858 68.5148 61.2242 68.1475L61.5722 68.4182C61.3853 68.7532 61.1727 69.1108 60.9343 69.491C60.7023 69.8711 60.4414 70.2255 60.1514 70.5541C59.8615 70.8763 59.5425 71.1437 59.1946 71.3563C58.8466 71.5689 58.4665 71.6753 58.0541 71.6753C57.6675 71.6753 57.3711 71.5593 57.1649 71.3273C56.9588 71.0954 56.8557 70.7957 56.8557 70.4285C56.8557 69.9968 56.9555 69.5457 57.1553 69.0754C57.355 68.605 57.6031 68.1411 57.8995 67.6836C58.2023 67.2197 58.5277 66.7751 58.8756 66.3499C59.23 65.9246 59.5554 65.538 59.8518 65.1901L60.1611 65.3254Z"/>
<path d="M67.3228 68.4182C67.2262 68.5599 67.1102 68.7532 66.9749 68.9981C66.846 69.2365 66.6946 69.4974 66.5206 69.7809C66.3466 70.058 66.1533 70.3415 65.9407 70.6314C65.7345 70.9214 65.5058 71.1823 65.2545 71.4143C65.0097 71.6463 64.7423 71.8363 64.4523 71.9845C64.1624 72.1327 63.8531 72.2068 63.5245 72.2068C63.3441 72.2068 63.1733 72.1778 63.0122 72.1198C62.8512 72.0683 62.7094 71.9845 62.587 71.8686C62.4646 71.7526 62.3679 71.6108 62.297 71.4433C62.2262 71.2693 62.1907 71.0664 62.1907 70.8344C62.1907 70.5187 62.2519 70.1901 62.3743 69.8486C62.5032 69.5006 62.6514 69.1656 62.8189 68.8434C62.9865 68.5213 63.154 68.2281 63.3215 67.9639C63.489 67.6933 63.6115 67.4774 63.6888 67.3164C63.7661 67.1553 63.8048 67.0167 63.8048 66.9008C63.8048 66.817 63.7758 66.7429 63.7178 66.6785C63.6662 66.614 63.5986 66.5528 63.5148 66.4948C63.4375 66.4304 63.3537 66.366 63.2635 66.3015C63.1798 66.2307 63.1089 66.1469 63.0509 66.0503C62.8898 66.308 62.7255 66.5689 62.558 66.8331C62.4098 67.0586 62.2487 67.3131 62.0747 67.5966C61.9008 67.8737 61.7332 68.1475 61.5722 68.4182L61.2242 68.1475L63.2925 64.9098L63.5728 65.0548C63.5599 65.0934 63.5374 65.1546 63.5051 65.2384C63.4794 65.3222 63.4665 65.4124 63.4665 65.509C63.4665 65.5799 63.4762 65.6508 63.4955 65.7216C63.5213 65.7861 63.5696 65.8473 63.6405 65.9053C63.8982 66.1372 64.1012 66.3177 64.2493 66.4465C64.3975 66.5689 64.5039 66.6688 64.5683 66.7461C64.6392 66.817 64.681 66.8782 64.6939 66.9298C64.7133 66.9749 64.7229 67.0361 64.7229 67.1134C64.7229 67.1907 64.71 67.2841 64.6843 67.3937C64.6585 67.5032 64.6134 67.6353 64.549 67.7899C64.491 67.9446 64.4072 68.1282 64.2977 68.3408C64.1946 68.547 64.0625 68.7887 63.9014 69.0657C63.8048 69.2332 63.7081 69.404 63.6115 69.578C63.5213 69.7455 63.4375 69.9162 63.3602 70.0902C63.2893 70.2642 63.2313 70.4381 63.1862 70.6121C63.1411 70.7861 63.1185 70.9536 63.1185 71.1147C63.1185 71.2371 63.1347 71.337 63.1669 71.4143C63.2055 71.4852 63.2539 71.5399 63.3118 71.5786C63.3698 71.6173 63.431 71.643 63.4955 71.6559C63.5664 71.6688 63.634 71.6753 63.6984 71.6753C63.9111 71.6753 64.1205 71.614 64.3267 71.4916C64.5393 71.3628 64.7455 71.1985 64.9452 70.9987C65.1514 70.799 65.3479 70.5735 65.5348 70.3222C65.7281 70.0644 65.9117 69.8035 66.0857 69.5393C66.2597 69.2751 66.4207 69.0238 66.5689 68.7854C66.7171 68.5406 66.8492 68.328 66.9652 68.1475L67.3228 68.4182Z"/>
<path d="M77.7416 59.0528C77.6707 59.1559 77.5548 59.3267 77.3937 59.5651C77.2326 59.8035 77.0457 60.087 76.8331 60.4156C76.6205 60.7442 76.3885 61.1082 76.1372 61.5077C75.8924 61.9072 75.6443 62.3196 75.393 62.7448C75.1482 63.1701 74.9066 63.6018 74.6682 64.0399C74.4362 64.4716 74.23 64.8872 74.0496 65.2867C73.7661 65.9053 73.5309 66.4594 73.3441 66.9491C73.1637 67.4323 73.0187 67.864 72.9091 68.2442C72.806 68.6244 72.732 68.9562 72.6868 69.2397C72.6482 69.5167 72.6289 69.7552 72.6289 69.9549C72.6289 70.3222 72.6836 70.5767 72.7932 70.7184C72.9091 70.8602 73.0638 70.9311 73.2571 70.9311C73.4568 70.9311 73.6469 70.8795 73.8273 70.7764C74.0142 70.6733 74.1914 70.5412 74.3589 70.3802C74.5329 70.2191 74.6939 70.0354 74.8421 69.8292C74.9968 69.6231 75.1385 69.4169 75.2674 69.2107C75.4027 69.0045 75.5251 68.808 75.6347 68.6211C75.7442 68.4343 75.8408 68.2764 75.9246 68.1475L76.2725 68.4182C76.2017 68.5341 76.1115 68.6888 76.0019 68.8821C75.8988 69.0689 75.7796 69.2751 75.6443 69.5006C75.509 69.7262 75.3544 69.9549 75.1804 70.1869C75.0064 70.4124 74.8131 70.6186 74.6005 70.8054C74.3943 70.9923 74.1624 71.1469 73.9046 71.2693C73.6533 71.3853 73.3795 71.4433 73.0831 71.4433C72.9414 71.4433 72.7899 71.424 72.6289 71.3853C72.4742 71.3466 72.3292 71.279 72.1939 71.1823C72.0586 71.0857 71.9394 70.9536 71.8363 70.7861C71.7332 70.6121 71.6656 70.393 71.6334 70.1289C71.1501 70.6508 70.6798 71.047 70.2223 71.3177C69.7648 71.5818 69.3331 71.7139 68.9272 71.7139C68.721 71.7139 68.4923 71.6785 68.241 71.6076C67.9961 71.5367 67.7642 71.4143 67.5451 71.2403C67.326 71.0664 67.1424 70.8376 66.9942 70.5541C66.846 70.2642 66.7719 69.9066 66.7719 69.4813C66.7719 69.0045 66.846 68.5503 66.9942 68.1186C67.1424 67.6869 67.3421 67.2874 67.5934 66.9201C67.8447 66.5464 68.1314 66.2113 68.4536 65.9149C68.7822 65.6121 69.1237 65.3576 69.4781 65.1514C69.8325 64.9388 70.1868 64.7745 70.5412 64.6585C70.9021 64.5425 71.2403 64.4845 71.556 64.4845C71.9749 64.4845 72.3035 64.5361 72.5419 64.6392C72.7803 64.7423 72.9607 64.8454 73.0831 64.9485C73.1733 64.768 73.2957 64.5393 73.4504 64.2622C73.605 63.9787 73.7854 63.6662 73.9916 63.3247C74.1978 62.9768 74.4265 62.6095 74.6778 62.2229C74.9291 61.8299 75.1965 61.4369 75.48 61.0438C75.7635 60.6443 76.0599 60.2513 76.3692 59.8647C76.6849 59.4781 77.0039 59.1173 77.326 58.7822L77.7416 59.0528ZM71.6237 69.404C71.6559 68.9272 71.7655 68.3666 71.9523 67.7223C72.1456 67.0715 72.4388 66.3241 72.8318 65.48C72.7416 65.3447 72.6127 65.2416 72.4452 65.1707C72.2841 65.0934 72.1005 65.0548 71.8943 65.0548C71.5786 65.0548 71.2564 65.1192 70.9278 65.2481C70.6057 65.3769 70.2932 65.5509 69.9903 65.77C69.6939 65.989 69.4137 66.25 69.1495 66.5528C68.8853 66.8492 68.6533 67.1682 68.4536 67.5097C68.2603 67.8512 68.1057 68.2088 67.9897 68.5825C67.8801 68.9497 67.8254 69.3138 67.8254 69.6746C67.8254 70.1579 67.9252 70.5348 68.125 70.8054C68.3312 71.076 68.605 71.2113 68.9465 71.2113C69.1076 71.2113 69.2848 71.1791 69.4781 71.1147C69.6714 71.0503 69.8808 70.9472 70.1063 70.8054C70.3383 70.6572 70.5799 70.4704 70.8312 70.2448C71.0825 70.0129 71.3466 69.7326 71.6237 69.404Z"/>
<path d="M77.5387 71.1437C77.5387 71.337 77.4678 71.5045 77.326 71.6463C77.1907 71.7816 77.0232 71.8492 76.8234 71.8492C76.6366 71.8492 76.4723 71.7816 76.3305 71.6463C76.1952 71.5045 76.1276 71.337 76.1276 71.1437C76.1276 70.9568 76.1952 70.7957 76.3305 70.6604C76.4723 70.5187 76.6366 70.4478 76.8234 70.4478C77.0232 70.4478 77.1907 70.5187 77.326 70.6604C77.4678 70.7957 77.5387 70.9568 77.5387 71.1437Z"/>
</mask>
<path d="M18.6791 57.6321C18.2152 57.98 17.7803 58.3956 17.3743 58.8789C17.7674 59.1237 18.0992 59.3943 18.3698 59.6907C18.6405 59.9807 18.8563 60.2771 19.0174 60.5799C19.1849 60.8827 19.3041 61.1823 19.375 61.4787C19.4459 61.7751 19.4813 62.049 19.4813 62.3003C19.4813 62.9317 19.3621 63.4826 19.1237 63.953C18.8853 64.4169 18.5696 64.8035 18.1765 65.1128C17.7899 65.422 17.3421 65.654 16.8331 65.8086C16.3305 65.9568 15.8086 66.0309 15.2674 66.0309C14.6617 66.0309 14.0657 65.9633 13.4794 65.828C13.2088 66.4014 12.9156 66.9716 12.5999 67.5387C12.2841 68.1057 11.9394 68.6501 11.5657 69.172C11.1984 69.6875 10.7957 70.1707 10.3576 70.6218C9.92589 71.0664 9.45876 71.4497 8.95618 71.7719C8.46004 72.1005 7.92203 72.3582 7.34213 72.5451C6.76223 72.732 6.14368 72.8254 5.48646 72.8254C4.84857 72.8254 4.25901 72.7223 3.71778 72.5161C3.17654 72.3099 2.7094 72.0103 2.31636 71.6173C1.92332 71.2178 1.61726 70.7345 1.39819 70.1675C1.17912 69.5941 1.06958 68.9401 1.06958 68.2055C1.06958 67.2519 1.23066 66.3338 1.55283 65.451C1.88144 64.5683 2.32925 63.7436 2.89626 62.9768C3.46971 62.21 4.14303 61.5142 4.91623 60.8892C5.68943 60.2642 6.52383 59.7294 7.41945 59.2848C8.31507 58.8402 9.25257 58.4955 10.232 58.2506C11.2113 58.0058 12.1907 57.8834 13.1701 57.8834C13.9368 57.8834 14.6166 57.9478 15.2094 58.0767C15.8086 58.1991 16.337 58.3634 16.7945 58.5696C17.0522 58.3441 17.3228 58.1347 17.6063 57.9414C17.8898 57.7416 18.1959 57.5644 18.5245 57.4098L18.6791 57.6321ZM12.6675 65.0258C12.9639 64.4072 13.2571 63.8144 13.547 63.2474C13.837 62.674 14.1301 62.1327 14.4265 61.6237C14.7294 61.1082 15.0419 60.6282 15.364 60.1836C15.6862 59.7326 16.0341 59.317 16.4079 58.9369C15.9826 58.7693 15.5187 58.6469 15.0161 58.5696C14.52 58.4923 13.9884 58.4536 13.4214 58.4536C12.6417 58.4536 11.8782 58.547 11.1308 58.7339C10.3834 58.9207 9.66172 59.1785 8.96584 59.5071C8.27641 59.8292 7.61597 60.2126 6.98453 60.6572C6.35953 61.1018 5.77641 61.585 5.23517 62.107C4.70038 62.6289 4.21391 63.1765 3.77577 63.75C3.34406 64.317 2.97357 64.8905 2.6643 65.4704C2.36146 66.0503 2.12628 66.6237 1.95876 67.1907C1.79767 67.7513 1.71713 68.2861 1.71713 68.7951C1.71713 69.2912 1.80734 69.7552 1.98775 70.1869C2.16816 70.6121 2.41623 70.9826 2.73195 71.2983C3.05412 71.614 3.43427 71.8621 3.87242 72.0425C4.317 72.2229 4.80347 72.3131 5.33182 72.3131C6.15012 72.3131 6.88466 72.1521 7.53543 71.8299C8.1862 71.5077 8.78865 71.0503 9.34278 70.4575C9.8969 69.8582 10.422 69.1398 10.9182 68.3022C11.4143 67.4646 11.9201 66.5303 12.4356 65.4994C11.7655 65.2352 11.1437 64.8969 10.5702 64.4845L10.7249 64.2139C11.0341 64.3686 11.3466 64.5167 11.6624 64.6585C11.9845 64.7938 12.3196 64.9162 12.6675 65.0258ZM18.4665 61.7494C18.4665 61.1759 18.3408 60.6862 18.0896 60.2803C17.8447 59.8744 17.5 59.5361 17.0554 59.2655C16.4691 60.0258 15.9085 60.9117 15.3737 61.9233C14.8454 62.9285 14.2977 64.0496 13.7307 65.2867C13.9175 65.3189 14.1044 65.3447 14.2912 65.364C14.4781 65.3769 14.6682 65.3834 14.8615 65.3834C15.3512 65.3834 15.8118 65.2964 16.2435 65.1224C16.6817 64.9485 17.0651 64.7036 17.3937 64.3879C17.7223 64.0657 17.9832 63.6823 18.1765 63.2378C18.3698 62.7932 18.4665 62.297 18.4665 61.7494Z" fill="white"/>
<path d="M25.3383 65.3254C25.2545 65.4929 25.1353 65.712 24.9807 65.9826C24.8325 66.2532 24.6714 66.5528 24.4974 66.8814C24.3234 67.2036 24.1463 67.5419 23.9658 67.8963C23.7919 68.2506 23.6308 68.5986 23.4826 68.9401C23.3408 69.2751 23.2216 69.5941 23.125 69.8969C23.0348 70.1933 22.9897 70.4446 22.9897 70.6508C22.9897 70.857 23.0283 70.9923 23.1057 71.0567C23.1894 71.1147 23.2957 71.1437 23.4246 71.1437C23.6115 71.1437 23.8015 71.0889 23.9948 70.9794C24.1946 70.8698 24.3879 70.7281 24.5747 70.5541C24.768 70.3802 24.9549 70.1836 25.1353 69.9646C25.3157 69.7455 25.4832 69.5264 25.6379 69.3073C25.799 69.0818 25.9439 68.8692 26.0728 68.6695C26.2017 68.4633 26.3112 68.2893 26.4014 68.1475L26.7493 68.4182C26.6398 68.6244 26.5109 68.8466 26.3627 69.085C26.2146 69.3235 26.0502 69.5651 25.8698 69.8099C25.6959 70.0483 25.5058 70.2803 25.2996 70.5058C25.0934 70.7313 24.8743 70.9311 24.6424 71.105C24.4169 71.279 24.1785 71.4175 23.9272 71.5206C23.6759 71.6237 23.4182 71.6753 23.154 71.6753C22.7674 71.6753 22.4839 71.5593 22.3035 71.3273C22.1231 71.0954 22.0329 70.7957 22.0329 70.4285C22.0329 70.4027 22.0329 70.3479 22.0329 70.2642C22.0393 70.174 22.049 70.1031 22.0618 70.0515C21.7397 70.4575 21.4304 70.7925 21.134 71.0567C20.8441 71.3209 20.5606 71.5303 20.2835 71.6849C20.0129 71.8396 19.7487 71.9459 19.491 72.0039C19.2397 72.0683 18.9981 72.1005 18.7661 72.1005C18.5213 72.1005 18.2893 72.0586 18.0702 71.9749C17.8576 71.8975 17.6707 71.7816 17.5097 71.6269C17.3421 71.4723 17.2133 71.2822 17.1231 71.0567C17.0264 70.8312 16.9781 70.5702 16.9781 70.2738C16.9781 69.9066 17.0618 69.4878 17.2294 69.0174C17.3905 68.5406 17.6804 68.0283 18.0992 67.4807C18.4536 67.0103 18.8209 66.614 19.201 66.2919C19.5876 65.9697 19.9646 65.712 20.3318 65.5187C20.7055 65.3189 21.0599 65.1772 21.395 65.0934C21.73 65.0097 22.0296 64.9678 22.2938 64.9678C22.8866 64.9678 23.3344 65.0677 23.6372 65.2674C23.9401 65.4607 24.1237 65.7603 24.1881 66.1662C24.317 66.0052 24.4523 65.8441 24.5941 65.683C24.7358 65.5219 24.8808 65.3576 25.029 65.1901L25.3383 65.3254ZM22.3711 68.9981C22.4549 68.8628 22.558 68.692 22.6804 68.4858C22.8028 68.2732 22.9317 68.0573 23.067 67.8383C23.2023 67.6128 23.3344 67.3969 23.4633 67.1907C23.5921 66.9845 23.7049 66.8106 23.8015 66.6688C23.8015 66.6108 23.7919 66.5174 23.7725 66.3885C23.7597 66.2597 23.7178 66.1308 23.6469 66.0019C23.576 65.8666 23.4633 65.7506 23.3086 65.654C23.154 65.5573 22.9381 65.509 22.6611 65.509C22.4613 65.509 22.2358 65.5412 21.9845 65.6057C21.7397 65.6637 21.4755 65.7667 21.192 65.9149C20.9149 66.0567 20.6282 66.2468 20.3318 66.4852C20.0354 66.7236 19.739 67.02 19.4426 67.3744C18.9981 67.9091 18.6533 68.4472 18.4085 68.9884C18.1701 69.5232 18.0509 70.0064 18.0509 70.4381C18.0509 70.8054 18.1347 71.0889 18.3022 71.2887C18.4697 71.4884 18.7081 71.5883 19.0174 71.5883C19.3718 71.5883 19.7036 71.511 20.0129 71.3563C20.3222 71.1952 20.6121 70.989 20.8827 70.7378C21.1533 70.4865 21.4111 70.2094 21.6559 69.9066C21.9008 69.5973 22.1392 69.2945 22.3711 68.9981Z" fill="white"/>
<path d="M29.7841 63.3247L27.5902 67.732C27.9768 67.2358 28.3827 66.7751 28.808 66.3499C29.2332 65.9182 29.6682 65.567 30.1127 65.2964C30.4414 65.1031 30.7313 64.971 30.9826 64.9001C31.2339 64.8228 31.4723 64.7841 31.6978 64.7841C31.9169 64.7841 32.0973 64.8196 32.239 64.8905C32.3808 64.9613 32.4935 65.0548 32.5773 65.1707C32.6611 65.2867 32.7191 65.4156 32.7513 65.5573C32.7835 65.6927 32.7996 65.828 32.7996 65.9633C32.7996 66.2661 32.7481 66.5657 32.645 66.8621C32.5419 67.1585 32.413 67.4517 32.2584 67.7416C32.1102 68.0316 31.9459 68.3183 31.7655 68.6018C31.585 68.8789 31.4175 69.1527 31.2629 69.4233C31.1147 69.6875 30.989 69.9485 30.8859 70.2062C30.7829 70.4639 30.7313 70.712 30.7313 70.9504C30.7313 71.0664 30.7442 71.163 30.77 71.2403C30.8022 71.3112 30.8408 71.3692 30.8859 71.4143C30.9375 71.453 30.9923 71.4787 31.0502 71.4916C31.1082 71.5045 31.1662 71.511 31.2242 71.511C31.3466 71.511 31.4884 71.4562 31.6495 71.3466C31.817 71.2307 31.9942 71.0825 32.181 70.9021C32.3679 70.7152 32.558 70.5058 32.7513 70.2738C32.951 70.0354 33.1411 69.7938 33.3215 69.549C33.5084 69.2977 33.6823 69.0528 33.8434 68.8144C34.0045 68.5696 34.1463 68.3473 34.2687 68.1475L34.6263 68.4182C34.5554 68.5599 34.4491 68.7468 34.3073 68.9787C34.172 69.2107 34.0109 69.462 33.8241 69.7326C33.6372 69.9968 33.431 70.2642 33.2055 70.5348C32.9865 70.799 32.7545 71.0406 32.5097 71.2597C32.2648 71.4787 32.0135 71.6559 31.7558 71.7912C31.5045 71.933 31.2564 72.0039 31.0116 72.0039C30.8441 72.0039 30.683 71.9781 30.5283 71.9265C30.3737 71.875 30.2384 71.7977 30.1224 71.6946C30.0064 71.585 29.913 71.4465 29.8421 71.279C29.7713 71.1115 29.7358 70.9117 29.7358 70.6798C29.7358 70.4027 29.7906 70.0838 29.9001 69.7229C30.0161 69.3621 30.2352 68.9497 30.5573 68.4858C30.8215 68.1057 31.0502 67.7899 31.2435 67.5387C31.4368 67.2809 31.5947 67.0586 31.7171 66.8718C31.846 66.6785 31.9394 66.5045 31.9974 66.3499C32.0554 66.1888 32.0844 66.0116 32.0844 65.8183C32.0844 65.6508 32.0361 65.5219 31.9394 65.4317C31.8428 65.3415 31.7332 65.2964 31.6108 65.2964C31.2822 65.2964 30.9439 65.3898 30.596 65.5767C30.2481 65.7635 29.9033 66.0116 29.5618 66.3209C29.2204 66.6237 28.8853 66.9716 28.5567 67.3647C28.2281 67.7577 27.9156 68.1604 27.6192 68.5728C27.3292 68.9787 27.0586 69.3782 26.8073 69.7713C26.5625 70.1643 26.3499 70.5187 26.1695 70.8344C25.989 71.1437 25.8505 71.395 25.7539 71.5883C25.6508 71.7751 25.596 71.8718 25.5896 71.8782C25.3189 72.4323 25.0548 72.9671 24.797 73.4826C24.5393 74.0045 24.2977 74.4974 24.0722 74.9613C23.8402 75.4253 23.6276 75.8473 23.4343 76.2274C23.241 76.614 23.0734 76.9491 22.9317 77.2326C22.7899 77.5161 22.6804 77.7384 22.6031 77.8995C22.5193 78.0606 22.4742 78.1443 22.4678 78.1508L21.4143 77.5515C21.9426 76.5528 22.4195 75.6508 22.8447 74.8454C23.27 74.0399 23.6759 73.2796 24.0625 72.5644C24.4491 71.8557 24.8292 71.1662 25.203 70.4961C25.5767 69.826 25.9729 69.1269 26.3917 68.3988C26.8106 67.6643 27.2648 66.8782 27.7545 66.0406C28.2506 65.1965 28.8144 64.2461 29.4459 63.1894L29.7841 63.3247Z" fill="white"/>
<path d="M38.6179 63.1798C38.6179 63.3086 38.5857 63.4439 38.5213 63.5857C38.4568 63.721 38.3731 63.8434 38.27 63.953C38.1733 64.0625 38.0638 64.1527 37.9414 64.2236C37.8189 64.2945 37.6965 64.3299 37.5741 64.3299C37.4646 64.3299 37.3808 64.2912 37.3228 64.2139C37.2648 64.1302 37.2358 64.0303 37.2358 63.9143C37.2358 63.8112 37.2551 63.6888 37.2938 63.547C37.3325 63.4053 37.3905 63.2732 37.4678 63.1508C37.5451 63.0219 37.6385 62.9124 37.7481 62.8222C37.8576 62.732 37.9832 62.6869 38.125 62.6869C38.2603 62.6869 38.3763 62.7384 38.4729 62.8415C38.5696 62.9446 38.6179 63.0573 38.6179 63.1798ZM36.8106 65.3254C36.7268 65.4929 36.6076 65.7152 36.453 65.9923C36.3048 66.2629 36.1437 66.5625 35.9697 66.8911C35.7957 67.2133 35.6185 67.5548 35.4381 67.9156C35.2577 68.27 35.0934 68.6179 34.9452 68.9594C34.8035 69.2945 34.6875 69.6102 34.5973 69.9066C34.5071 70.203 34.462 70.4542 34.462 70.6604C34.462 70.8473 34.5006 70.9762 34.578 71.047C34.6553 71.1115 34.7648 71.1437 34.9066 71.1437C35.1707 71.1437 35.4285 71.0567 35.6798 70.8827C35.931 70.7088 36.1791 70.4832 36.424 70.2062C36.6752 69.9227 36.9201 69.6005 37.1585 69.2397C37.3969 68.8789 37.6353 68.5148 37.8737 68.1475L38.2216 68.4182C38.0348 68.7532 37.8222 69.1108 37.5838 69.491C37.3518 69.8711 37.0908 70.2255 36.8009 70.5541C36.5109 70.8763 36.192 71.1437 35.8441 71.3563C35.4961 71.5689 35.116 71.6753 34.7036 71.6753C34.317 71.6753 34.0206 71.5593 33.8144 71.3273C33.6082 71.0954 33.5051 70.7957 33.5051 70.4285C33.5051 69.9968 33.605 69.5457 33.8048 69.0754C34.0045 68.605 34.2526 68.1411 34.549 67.6836C34.8518 67.2197 35.1772 66.7751 35.5251 66.3499C35.8795 65.9246 36.2049 65.538 36.5013 65.1901L36.8106 65.3254Z" fill="white"/>
<path d="M38.6082 69.549C38.5954 69.6263 38.5857 69.7036 38.5792 69.7809C38.5728 69.8582 38.5696 69.9356 38.5696 70.0129C38.5696 70.2448 38.6018 70.4671 38.6662 70.6798C38.7371 70.886 38.837 71.0696 38.9658 71.2307C39.1012 71.3853 39.2655 71.5077 39.4588 71.5979C39.6585 71.6881 39.884 71.7332 40.1353 71.7332C40.9794 71.7332 41.7945 71.4465 42.5805 70.8731C43.3666 70.2996 44.1495 69.3911 44.9291 68.1475L45.2577 68.4375C44.8325 69.1463 44.4008 69.7455 43.9626 70.2352C43.5245 70.7184 43.0863 71.1115 42.6482 71.4143C42.2165 71.7171 41.7912 71.9362 41.3724 72.0715C40.9536 72.2068 40.5541 72.2745 40.174 72.2745C39.8969 72.2745 39.6037 72.2358 39.2945 72.1585C38.9852 72.0812 38.6984 71.9523 38.4343 71.7719C38.1765 71.5915 37.9639 71.3499 37.7964 71.047C37.6224 70.7442 37.5354 70.3673 37.5354 69.9162C37.5354 69.433 37.6192 68.9691 37.7867 68.5245C37.9478 68.0735 38.1604 67.6546 38.4246 67.268C38.6888 66.8814 38.9916 66.5303 39.3331 66.2146C39.6746 65.8924 40.0193 65.6186 40.3673 65.393C40.7216 65.1675 41.0664 64.9936 41.4014 64.8711C41.7365 64.7423 42.0329 64.6778 42.2906 64.6778C42.4581 64.6778 42.6289 64.7036 42.8028 64.7552C42.9768 64.8067 43.1314 64.8872 43.2667 64.9968C43.4085 65.1063 43.5213 65.2513 43.605 65.4317C43.6952 65.6121 43.7403 65.828 43.7403 66.0792C43.7403 66.4207 43.6598 66.7429 43.4987 67.0457C43.3441 67.3421 43.1347 67.6192 42.8705 67.8769C42.6063 68.1282 42.3002 68.357 41.9523 68.5631C41.6044 68.7629 41.2403 68.9336 40.8602 69.0754C40.48 69.2171 40.0966 69.3299 39.71 69.4137C39.3234 69.4974 38.9562 69.5425 38.6082 69.549ZM38.6856 69.1334C39.1173 69.0883 39.5232 68.9981 39.9033 68.8628C40.2835 68.7274 40.6314 68.5631 40.9472 68.3698C41.2629 68.1701 41.5432 67.9542 41.788 67.7223C42.0393 67.4903 42.2487 67.2552 42.4162 67.0167C42.5838 66.7783 42.7126 66.5496 42.8028 66.3305C42.893 66.1115 42.9381 65.9149 42.9381 65.741C42.9381 65.567 42.8898 65.4285 42.7932 65.3254C42.703 65.2223 42.5934 65.1707 42.4646 65.1707C42.181 65.1707 41.8621 65.2738 41.5077 65.48C41.1533 65.6798 40.799 65.96 40.4446 66.3209C40.0902 66.6753 39.7551 67.0941 39.4394 67.5773C39.1301 68.0606 38.8789 68.5792 38.6856 69.1334Z" fill="white"/>
<path d="M51.0277 68.4182C50.931 68.5599 50.8151 68.7532 50.6798 68.9981C50.5509 69.2365 50.3995 69.4974 50.2255 69.7809C50.0515 70.058 49.8582 70.3415 49.6456 70.6314C49.4394 70.9214 49.2107 71.1823 48.9594 71.4143C48.7146 71.6463 48.4472 71.8363 48.1572 71.9845C47.8673 72.1327 47.558 72.2068 47.2294 72.2068C47.049 72.2068 46.8782 72.1778 46.7171 72.1198C46.556 72.0683 46.4143 71.9845 46.2919 71.8686C46.1695 71.7526 46.0728 71.6108 46.0019 71.4433C45.931 71.2693 45.8956 71.0664 45.8956 70.8344C45.8956 70.5187 45.9568 70.1901 46.0792 69.8486C46.2081 69.5006 46.3563 69.1656 46.5238 68.8434C46.6914 68.5213 46.8589 68.2281 47.0264 67.9639C47.1939 67.6933 47.3164 67.4774 47.3937 67.3164C47.471 67.1553 47.5097 67.0167 47.5097 66.9008C47.5097 66.817 47.4807 66.7429 47.4227 66.6785C47.3711 66.614 47.3035 66.5528 47.2197 66.4948C47.1424 66.4304 47.0586 66.366 46.9684 66.3015C46.8847 66.2307 46.8138 66.1469 46.7558 66.0503C46.5947 66.308 46.4304 66.5689 46.2629 66.8331C46.1147 67.0586 45.9536 67.3131 45.7796 67.5966C45.6057 67.8737 45.4381 68.1475 45.2771 68.4182L44.9291 68.1475L46.9974 64.9098L47.2777 65.0548C47.2648 65.0934 47.2423 65.1546 47.21 65.2384C47.1843 65.3222 47.1714 65.4124 47.1714 65.509C47.1714 65.5799 47.181 65.6508 47.2004 65.7216C47.2262 65.7861 47.2745 65.8473 47.3454 65.9053C47.6031 66.1372 47.806 66.3177 47.9542 66.4465C48.1024 66.5689 48.2088 66.6688 48.2732 66.7461C48.3441 66.817 48.3859 66.8782 48.3988 66.9298C48.4182 66.9749 48.4278 67.0361 48.4278 67.1134C48.4278 67.1907 48.4149 67.2841 48.3892 67.3937C48.3634 67.5032 48.3183 67.6353 48.2539 67.7899C48.1959 67.9446 48.1121 68.1282 48.0026 68.3408C47.8995 68.547 47.7674 68.7887 47.6063 69.0657C47.5097 69.2332 47.413 69.404 47.3164 69.578C47.2262 69.7455 47.1424 69.9162 47.0651 70.0902C46.9942 70.2642 46.9362 70.4381 46.8911 70.6121C46.846 70.7861 46.8234 70.9536 46.8234 71.1147C46.8234 71.2371 46.8396 71.337 46.8718 71.4143C46.9104 71.4852 46.9588 71.5399 47.0167 71.5786C47.0747 71.6173 47.1359 71.643 47.2004 71.6559C47.2713 71.6688 47.3389 71.6753 47.4033 71.6753C47.616 71.6753 47.8254 71.614 48.0316 71.4916C48.2442 71.3628 48.4504 71.1985 48.6501 70.9987C48.8563 70.799 49.0528 70.5735 49.2397 70.3222C49.433 70.0644 49.6166 69.8035 49.7906 69.5393C49.9646 69.2751 50.1256 69.0238 50.2738 68.7854C50.422 68.5406 50.5541 68.328 50.6701 68.1475L51.0277 68.4182Z" fill="white"/>
<path d="M56.1791 67.3647C55.9343 67.3067 55.7216 67.2262 55.5412 67.1231C55.3673 67.0135 55.2255 66.8911 55.116 66.7558C55.0064 66.6205 54.9259 66.4787 54.8743 66.3305C54.8228 66.1759 54.797 66.0245 54.797 65.8763C54.797 65.5541 54.8872 65.3061 55.0676 65.1321C55.2481 64.9517 55.4736 64.8615 55.7442 64.8615C55.9246 64.8615 56.0792 64.9098 56.2081 65.0064C56.337 65.0966 56.4433 65.2191 56.5271 65.3737C56.6108 65.5283 56.672 65.7088 56.7107 65.9149C56.7493 66.1147 56.7687 66.3241 56.7687 66.5432C56.7687 66.6914 56.7622 66.8396 56.7493 66.9878C56.7365 67.1295 56.7139 67.2745 56.6817 67.4227C56.5271 68.1186 56.2983 68.75 55.9955 69.317C55.6991 69.8776 55.3608 70.3608 54.9807 70.7667C54.607 71.1662 54.2075 71.4755 53.7822 71.6946C53.357 71.9072 52.9414 72.0135 52.5354 72.0135C52.2584 72.0135 51.9942 71.9749 51.7429 71.8975C51.4981 71.8202 51.279 71.6914 51.0857 71.511C50.8988 71.3305 50.7506 71.0954 50.6411 70.8054C50.5316 70.509 50.4768 70.145 50.4768 69.7133C50.4768 69.1785 50.5799 68.5406 50.7861 67.7996C50.9987 67.0586 51.3563 66.1888 51.8589 65.1901C52.5805 63.7919 53.3054 62.5387 54.0335 61.4304C54.3428 60.96 54.6682 60.4994 55.0097 60.0483C55.3512 59.5973 55.6926 59.1946 56.0341 58.8402C56.3821 58.4858 56.7236 58.2023 57.0586 57.9897C57.4001 57.7706 57.7223 57.6611 58.0251 57.6611C58.0638 57.6611 58.1314 57.6675 58.2281 57.6804C58.3312 57.6933 58.4343 57.7287 58.5374 57.7867C58.6405 57.8383 58.7307 57.922 58.808 58.038C58.8917 58.1475 58.9336 58.3022 58.9336 58.5019C58.9336 58.7403 58.8692 59.0432 58.7403 59.4104C58.6179 59.7713 58.431 60.174 58.1798 60.6186C57.9349 61.0567 57.6289 61.5271 57.2616 62.0296C56.9008 62.5258 56.482 63.0251 56.0051 63.5277C55.5348 64.0303 55.0097 64.5232 54.4298 65.0064C53.8563 65.4897 53.2313 65.9407 52.5548 66.3595C52.3292 66.8492 52.1392 67.2938 51.9845 67.6933C51.8363 68.0863 51.7171 68.4439 51.6269 68.7661C51.5367 69.0818 51.4723 69.3621 51.4336 69.607C51.395 69.8518 51.3756 70.0644 51.3756 70.2448C51.3756 70.4961 51.4079 70.7055 51.4723 70.8731C51.5432 71.0341 51.6366 71.163 51.7526 71.2597C51.8685 71.3499 52.0006 71.4143 52.1488 71.453C52.297 71.4916 52.4517 71.511 52.6127 71.511C52.9156 71.511 53.2088 71.4336 53.4923 71.279C53.7822 71.1244 54.056 70.9246 54.3138 70.6798C54.5715 70.4285 54.8067 70.1482 55.0193 69.8389C55.2384 69.5296 55.4285 69.2236 55.5896 68.9207C55.7506 68.6115 55.8827 68.3215 55.9858 68.0509C56.0889 67.7738 56.1533 67.5451 56.1791 67.3647ZM52.9607 65.48C53.5535 65.0741 54.0979 64.6456 54.5941 64.1946C55.0966 63.7436 55.5509 63.2925 55.9568 62.8415C56.3627 62.384 56.7204 61.9394 57.0296 61.5077C57.3389 61.0696 57.5966 60.6604 57.8028 60.2803C58.009 59.9001 58.1637 59.5619 58.2667 59.2655C58.3763 58.9626 58.431 58.7178 58.431 58.5309C58.431 58.3634 58.3698 58.2796 58.2474 58.2796C58.0155 58.2796 57.7352 58.4053 57.4066 58.6566C57.0844 58.9079 56.7075 59.317 56.2758 59.884C55.8505 60.451 55.3608 61.192 54.8067 62.107C54.259 63.0219 53.6437 64.1463 52.9607 65.48ZM56.2468 66.8621C56.2532 66.8041 56.2564 66.7461 56.2564 66.6881C56.2629 66.6302 56.2661 66.5754 56.2661 66.5238C56.2661 66.1759 56.221 65.8956 56.1308 65.683C56.0406 65.4704 55.9117 65.364 55.7442 65.364C55.7055 65.364 55.6604 65.3705 55.6089 65.3834C55.5638 65.3898 55.5155 65.4124 55.4639 65.451C55.4188 65.4832 55.3801 65.5316 55.3479 65.596C55.3157 65.6604 55.2996 65.7442 55.2996 65.8473C55.2996 66.1115 55.3898 66.3305 55.5702 66.5045C55.7571 66.672 55.9826 66.7912 56.2468 66.8621Z" fill="white"/>
<path d="M61.9684 63.1798C61.9684 63.3086 61.9362 63.4439 61.8718 63.5857C61.8073 63.721 61.7236 63.8434 61.6205 63.953C61.5238 64.0625 61.4143 64.1527 61.2919 64.2236C61.1695 64.2945 61.047 64.3299 60.9246 64.3299C60.8151 64.3299 60.7313 64.2912 60.6733 64.2139C60.6153 64.1302 60.5863 64.0303 60.5863 63.9143C60.5863 63.8112 60.6057 63.6888 60.6443 63.547C60.683 63.4053 60.741 63.2732 60.8183 63.1508C60.8956 63.0219 60.989 62.9124 61.0986 62.8222C61.2081 62.732 61.3338 62.6869 61.4755 62.6869C61.6108 62.6869 61.7268 62.7384 61.8234 62.8415C61.9201 62.9446 61.9684 63.0573 61.9684 63.1798ZM60.1611 65.3254C60.0773 65.4929 59.9581 65.7152 59.8035 65.9923C59.6553 66.2629 59.4942 66.5625 59.3202 66.8911C59.1463 67.2133 58.9691 67.5548 58.7887 67.9156C58.6082 68.27 58.4439 68.6179 58.2957 68.9594C58.154 69.2945 58.038 69.6102 57.9478 69.9066C57.8576 70.203 57.8125 70.4542 57.8125 70.6604C57.8125 70.8473 57.8512 70.9762 57.9285 71.047C58.0058 71.1115 58.1153 71.1437 58.2571 71.1437C58.5213 71.1437 58.779 71.0567 59.0303 70.8827C59.2816 70.7088 59.5296 70.4832 59.7745 70.2062C60.0258 69.9227 60.2706 69.6005 60.509 69.2397C60.7474 68.8789 60.9858 68.5148 61.2242 68.1475L61.5722 68.4182C61.3853 68.7532 61.1727 69.1108 60.9343 69.491C60.7023 69.8711 60.4414 70.2255 60.1514 70.5541C59.8615 70.8763 59.5425 71.1437 59.1946 71.3563C58.8466 71.5689 58.4665 71.6753 58.0541 71.6753C57.6675 71.6753 57.3711 71.5593 57.1649 71.3273C56.9588 71.0954 56.8557 70.7957 56.8557 70.4285C56.8557 69.9968 56.9555 69.5457 57.1553 69.0754C57.355 68.605 57.6031 68.1411 57.8995 67.6836C58.2023 67.2197 58.5277 66.7751 58.8756 66.3499C59.23 65.9246 59.5554 65.538 59.8518 65.1901L60.1611 65.3254Z" fill="white"/>
<path d="M67.3228 68.4182C67.2262 68.5599 67.1102 68.7532 66.9749 68.9981C66.846 69.2365 66.6946 69.4974 66.5206 69.7809C66.3466 70.058 66.1533 70.3415 65.9407 70.6314C65.7345 70.9214 65.5058 71.1823 65.2545 71.4143C65.0097 71.6463 64.7423 71.8363 64.4523 71.9845C64.1624 72.1327 63.8531 72.2068 63.5245 72.2068C63.3441 72.2068 63.1733 72.1778 63.0122 72.1198C62.8512 72.0683 62.7094 71.9845 62.587 71.8686C62.4646 71.7526 62.3679 71.6108 62.297 71.4433C62.2262 71.2693 62.1907 71.0664 62.1907 70.8344C62.1907 70.5187 62.2519 70.1901 62.3743 69.8486C62.5032 69.5006 62.6514 69.1656 62.8189 68.8434C62.9865 68.5213 63.154 68.2281 63.3215 67.9639C63.489 67.6933 63.6115 67.4774 63.6888 67.3164C63.7661 67.1553 63.8048 67.0167 63.8048 66.9008C63.8048 66.817 63.7758 66.7429 63.7178 66.6785C63.6662 66.614 63.5986 66.5528 63.5148 66.4948C63.4375 66.4304 63.3537 66.366 63.2635 66.3015C63.1798 66.2307 63.1089 66.1469 63.0509 66.0503C62.8898 66.308 62.7255 66.5689 62.558 66.8331C62.4098 67.0586 62.2487 67.3131 62.0747 67.5966C61.9008 67.8737 61.7332 68.1475 61.5722 68.4182L61.2242 68.1475L63.2925 64.9098L63.5728 65.0548C63.5599 65.0934 63.5374 65.1546 63.5051 65.2384C63.4794 65.3222 63.4665 65.4124 63.4665 65.509C63.4665 65.5799 63.4762 65.6508 63.4955 65.7216C63.5213 65.7861 63.5696 65.8473 63.6405 65.9053C63.8982 66.1372 64.1012 66.3177 64.2493 66.4465C64.3975 66.5689 64.5039 66.6688 64.5683 66.7461C64.6392 66.817 64.681 66.8782 64.6939 66.9298C64.7133 66.9749 64.7229 67.0361 64.7229 67.1134C64.7229 67.1907 64.71 67.2841 64.6843 67.3937C64.6585 67.5032 64.6134 67.6353 64.549 67.7899C64.491 67.9446 64.4072 68.1282 64.2977 68.3408C64.1946 68.547 64.0625 68.7887 63.9014 69.0657C63.8048 69.2332 63.7081 69.404 63.6115 69.578C63.5213 69.7455 63.4375 69.9162 63.3602 70.0902C63.2893 70.2642 63.2313 70.4381 63.1862 70.6121C63.1411 70.7861 63.1185 70.9536 63.1185 71.1147C63.1185 71.2371 63.1347 71.337 63.1669 71.4143C63.2055 71.4852 63.2539 71.5399 63.3118 71.5786C63.3698 71.6173 63.431 71.643 63.4955 71.6559C63.5664 71.6688 63.634 71.6753 63.6984 71.6753C63.9111 71.6753 64.1205 71.614 64.3267 71.4916C64.5393 71.3628 64.7455 71.1985 64.9452 70.9987C65.1514 70.799 65.3479 70.5735 65.5348 70.3222C65.7281 70.0644 65.9117 69.8035 66.0857 69.5393C66.2597 69.2751 66.4207 69.0238 66.5689 68.7854C66.7171 68.5406 66.8492 68.328 66.9652 68.1475L67.3228 68.4182Z" fill="white"/>
<path d="M77.7416 59.0528C77.6707 59.1559 77.5548 59.3267 77.3937 59.5651C77.2326 59.8035 77.0457 60.087 76.8331 60.4156C76.6205 60.7442 76.3885 61.1082 76.1372 61.5077C75.8924 61.9072 75.6443 62.3196 75.393 62.7448C75.1482 63.1701 74.9066 63.6018 74.6682 64.0399C74.4362 64.4716 74.23 64.8872 74.0496 65.2867C73.7661 65.9053 73.5309 66.4594 73.3441 66.9491C73.1637 67.4323 73.0187 67.864 72.9091 68.2442C72.806 68.6244 72.732 68.9562 72.6868 69.2397C72.6482 69.5167 72.6289 69.7552 72.6289 69.9549C72.6289 70.3222 72.6836 70.5767 72.7932 70.7184C72.9091 70.8602 73.0638 70.9311 73.2571 70.9311C73.4568 70.9311 73.6469 70.8795 73.8273 70.7764C74.0142 70.6733 74.1914 70.5412 74.3589 70.3802C74.5329 70.2191 74.6939 70.0354 74.8421 69.8292C74.9968 69.6231 75.1385 69.4169 75.2674 69.2107C75.4027 69.0045 75.5251 68.808 75.6347 68.6211C75.7442 68.4343 75.8408 68.2764 75.9246 68.1475L76.2725 68.4182C76.2017 68.5341 76.1115 68.6888 76.0019 68.8821C75.8988 69.0689 75.7796 69.2751 75.6443 69.5006C75.509 69.7262 75.3544 69.9549 75.1804 70.1869C75.0064 70.4124 74.8131 70.6186 74.6005 70.8054C74.3943 70.9923 74.1624 71.1469 73.9046 71.2693C73.6533 71.3853 73.3795 71.4433 73.0831 71.4433C72.9414 71.4433 72.7899 71.424 72.6289 71.3853C72.4742 71.3466 72.3292 71.279 72.1939 71.1823C72.0586 71.0857 71.9394 70.9536 71.8363 70.7861C71.7332 70.6121 71.6656 70.393 71.6334 70.1289C71.1501 70.6508 70.6798 71.047 70.2223 71.3177C69.7648 71.5818 69.3331 71.7139 68.9272 71.7139C68.721 71.7139 68.4923 71.6785 68.241 71.6076C67.9961 71.5367 67.7642 71.4143 67.5451 71.2403C67.326 71.0664 67.1424 70.8376 66.9942 70.5541C66.846 70.2642 66.7719 69.9066 66.7719 69.4813C66.7719 69.0045 66.846 68.5503 66.9942 68.1186C67.1424 67.6869 67.3421 67.2874 67.5934 66.9201C67.8447 66.5464 68.1314 66.2113 68.4536 65.9149C68.7822 65.6121 69.1237 65.3576 69.4781 65.1514C69.8325 64.9388 70.1868 64.7745 70.5412 64.6585C70.9021 64.5425 71.2403 64.4845 71.556 64.4845C71.9749 64.4845 72.3035 64.5361 72.5419 64.6392C72.7803 64.7423 72.9607 64.8454 73.0831 64.9485C73.1733 64.768 73.2957 64.5393 73.4504 64.2622C73.605 63.9787 73.7854 63.6662 73.9916 63.3247C74.1978 62.9768 74.4265 62.6095 74.6778 62.2229C74.9291 61.8299 75.1965 61.4369 75.48 61.0438C75.7635 60.6443 76.0599 60.2513 76.3692 59.8647C76.6849 59.4781 77.0039 59.1173 77.326 58.7822L77.7416 59.0528ZM71.6237 69.404C71.6559 68.9272 71.7655 68.3666 71.9523 67.7223C72.1456 67.0715 72.4388 66.3241 72.8318 65.48C72.7416 65.3447 72.6127 65.2416 72.4452 65.1707C72.2841 65.0934 72.1005 65.0548 71.8943 65.0548C71.5786 65.0548 71.2564 65.1192 70.9278 65.2481C70.6057 65.3769 70.2932 65.5509 69.9903 65.77C69.6939 65.989 69.4137 66.25 69.1495 66.5528C68.8853 66.8492 68.6533 67.1682 68.4536 67.5097C68.2603 67.8512 68.1057 68.2088 67.9897 68.5825C67.8801 68.9497 67.8254 69.3138 67.8254 69.6746C67.8254 70.1579 67.9252 70.5348 68.125 70.8054C68.3312 71.076 68.605 71.2113 68.9465 71.2113C69.1076 71.2113 69.2848 71.1791 69.4781 71.1147C69.6714 71.0503 69.8808 70.9472 70.1063 70.8054C70.3383 70.6572 70.5799 70.4704 70.8312 70.2448C71.0825 70.0129 71.3466 69.7326 71.6237 69.404Z" fill="white"/>
<path d="M77.5387 71.1437C77.5387 71.337 77.4678 71.5045 77.326 71.6463C77.1907 71.7816 77.0232 71.8492 76.8234 71.8492C76.6366 71.8492 76.4723 71.7816 76.3305 71.6463C76.1952 71.5045 76.1276 71.337 76.1276 71.1437C76.1276 70.9568 76.1952 70.7957 76.3305 70.6604C76.4723 70.5187 76.6366 70.4478 76.8234 70.4478C77.0232 70.4478 77.1907 70.5187 77.326 70.6604C77.4678 70.7957 77.5387 70.9568 77.5387 71.1437Z" fill="white"/>
<path d="M18.6791 57.6321C18.2152 57.98 17.7803 58.3956 17.3743 58.8789C17.7674 59.1237 18.0992 59.3943 18.3698 59.6907C18.6405 59.9807 18.8563 60.2771 19.0174 60.5799C19.1849 60.8827 19.3041 61.1823 19.375 61.4787C19.4459 61.7751 19.4813 62.049 19.4813 62.3003C19.4813 62.9317 19.3621 63.4826 19.1237 63.953C18.8853 64.4169 18.5696 64.8035 18.1765 65.1128C17.7899 65.422 17.3421 65.654 16.8331 65.8086C16.3305 65.9568 15.8086 66.0309 15.2674 66.0309C14.6617 66.0309 14.0657 65.9633 13.4794 65.828C13.2088 66.4014 12.9156 66.9716 12.5999 67.5387C12.2841 68.1057 11.9394 68.6501 11.5657 69.172C11.1984 69.6875 10.7957 70.1707 10.3576 70.6218C9.92589 71.0664 9.45876 71.4497 8.95618 71.7719C8.46004 72.1005 7.92203 72.3582 7.34213 72.5451C6.76223 72.732 6.14368 72.8254 5.48646 72.8254C4.84857 72.8254 4.25901 72.7223 3.71778 72.5161C3.17654 72.3099 2.7094 72.0103 2.31636 71.6173C1.92332 71.2178 1.61726 70.7345 1.39819 70.1675C1.17912 69.5941 1.06958 68.9401 1.06958 68.2055C1.06958 67.2519 1.23066 66.3338 1.55283 65.451C1.88144 64.5683 2.32925 63.7436 2.89626 62.9768C3.46971 62.21 4.14303 61.5142 4.91623 60.8892C5.68943 60.2642 6.52383 59.7294 7.41945 59.2848C8.31507 58.8402 9.25257 58.4955 10.232 58.2506C11.2113 58.0058 12.1907 57.8834 13.1701 57.8834C13.9368 57.8834 14.6166 57.9478 15.2094 58.0767C15.8086 58.1991 16.337 58.3634 16.7945 58.5696C17.0522 58.3441 17.3228 58.1347 17.6063 57.9414C17.8898 57.7416 18.1959 57.5644 18.5245 57.4098L18.6791 57.6321ZM12.6675 65.0258C12.9639 64.4072 13.2571 63.8144 13.547 63.2474C13.837 62.674 14.1301 62.1327 14.4265 61.6237C14.7294 61.1082 15.0419 60.6282 15.364 60.1836C15.6862 59.7326 16.0341 59.317 16.4079 58.9369C15.9826 58.7693 15.5187 58.6469 15.0161 58.5696C14.52 58.4923 13.9884 58.4536 13.4214 58.4536C12.6417 58.4536 11.8782 58.547 11.1308 58.7339C10.3834 58.9207 9.66172 59.1785 8.96584 59.5071C8.27641 59.8292 7.61597 60.2126 6.98453 60.6572C6.35953 61.1018 5.77641 61.585 5.23517 62.107C4.70038 62.6289 4.21391 63.1765 3.77577 63.75C3.34406 64.317 2.97357 64.8905 2.6643 65.4704C2.36146 66.0503 2.12628 66.6237 1.95876 67.1907C1.79767 67.7513 1.71713 68.2861 1.71713 68.7951C1.71713 69.2912 1.80734 69.7552 1.98775 70.1869C2.16816 70.6121 2.41623 70.9826 2.73195 71.2983C3.05412 71.614 3.43427 71.8621 3.87242 72.0425C4.317 72.2229 4.80347 72.3131 5.33182 72.3131C6.15012 72.3131 6.88466 72.1521 7.53543 71.8299C8.1862 71.5077 8.78865 71.0503 9.34278 70.4575C9.8969 69.8582 10.422 69.1398 10.9182 68.3022C11.4143 67.4646 11.9201 66.5303 12.4356 65.4994C11.7655 65.2352 11.1437 64.8969 10.5702 64.4845L10.7249 64.2139C11.0341 64.3686 11.3466 64.5167 11.6624 64.6585C11.9845 64.7938 12.3196 64.9162 12.6675 65.0258ZM18.4665 61.7494C18.4665 61.1759 18.3408 60.6862 18.0896 60.2803C17.8447 59.8744 17.5 59.5361 17.0554 59.2655C16.4691 60.0258 15.9085 60.9117 15.3737 61.9233C14.8454 62.9285 14.2977 64.0496 13.7307 65.2867C13.9175 65.3189 14.1044 65.3447 14.2912 65.364C14.4781 65.3769 14.6682 65.3834 14.8615 65.3834C15.3512 65.3834 15.8118 65.2964 16.2435 65.1224C16.6817 64.9485 17.0651 64.7036 17.3937 64.3879C17.7223 64.0657 17.9832 63.6823 18.1765 63.2378C18.3698 62.7932 18.4665 62.297 18.4665 61.7494Z" stroke="white" stroke-width="0.5" mask="url(#path-3-outside-1)"/>
<path d="M25.3383 65.3254C25.2545 65.4929 25.1353 65.712 24.9807 65.9826C24.8325 66.2532 24.6714 66.5528 24.4974 66.8814C24.3234 67.2036 24.1463 67.5419 23.9658 67.8963C23.7919 68.2506 23.6308 68.5986 23.4826 68.9401C23.3408 69.2751 23.2216 69.5941 23.125 69.8969C23.0348 70.1933 22.9897 70.4446 22.9897 70.6508C22.9897 70.857 23.0283 70.9923 23.1057 71.0567C23.1894 71.1147 23.2957 71.1437 23.4246 71.1437C23.6115 71.1437 23.8015 71.0889 23.9948 70.9794C24.1946 70.8698 24.3879 70.7281 24.5747 70.5541C24.768 70.3802 24.9549 70.1836 25.1353 69.9646C25.3157 69.7455 25.4832 69.5264 25.6379 69.3073C25.799 69.0818 25.9439 68.8692 26.0728 68.6695C26.2017 68.4633 26.3112 68.2893 26.4014 68.1475L26.7493 68.4182C26.6398 68.6244 26.5109 68.8466 26.3627 69.085C26.2146 69.3235 26.0502 69.5651 25.8698 69.8099C25.6959 70.0483 25.5058 70.2803 25.2996 70.5058C25.0934 70.7313 24.8743 70.9311 24.6424 71.105C24.4169 71.279 24.1785 71.4175 23.9272 71.5206C23.6759 71.6237 23.4182 71.6753 23.154 71.6753C22.7674 71.6753 22.4839 71.5593 22.3035 71.3273C22.1231 71.0954 22.0329 70.7957 22.0329 70.4285C22.0329 70.4027 22.0329 70.3479 22.0329 70.2642C22.0393 70.174 22.049 70.1031 22.0618 70.0515C21.7397 70.4575 21.4304 70.7925 21.134 71.0567C20.8441 71.3209 20.5606 71.5303 20.2835 71.6849C20.0129 71.8396 19.7487 71.9459 19.491 72.0039C19.2397 72.0683 18.9981 72.1005 18.7661 72.1005C18.5213 72.1005 18.2893 72.0586 18.0702 71.9749C17.8576 71.8975 17.6707 71.7816 17.5097 71.6269C17.3421 71.4723 17.2133 71.2822 17.1231 71.0567C17.0264 70.8312 16.9781 70.5702 16.9781 70.2738C16.9781 69.9066 17.0618 69.4878 17.2294 69.0174C17.3905 68.5406 17.6804 68.0283 18.0992 67.4807C18.4536 67.0103 18.8209 66.614 19.201 66.2919C19.5876 65.9697 19.9646 65.712 20.3318 65.5187C20.7055 65.3189 21.0599 65.1772 21.395 65.0934C21.73 65.0097 22.0296 64.9678 22.2938 64.9678C22.8866 64.9678 23.3344 65.0677 23.6372 65.2674C23.9401 65.4607 24.1237 65.7603 24.1881 66.1662C24.317 66.0052 24.4523 65.8441 24.5941 65.683C24.7358 65.5219 24.8808 65.3576 25.029 65.1901L25.3383 65.3254ZM22.3711 68.9981C22.4549 68.8628 22.558 68.692 22.6804 68.4858C22.8028 68.2732 22.9317 68.0573 23.067 67.8383C23.2023 67.6128 23.3344 67.3969 23.4633 67.1907C23.5921 66.9845 23.7049 66.8106 23.8015 66.6688C23.8015 66.6108 23.7919 66.5174 23.7725 66.3885C23.7597 66.2597 23.7178 66.1308 23.6469 66.0019C23.576 65.8666 23.4633 65.7506 23.3086 65.654C23.154 65.5573 22.9381 65.509 22.6611 65.509C22.4613 65.509 22.2358 65.5412 21.9845 65.6057C21.7397 65.6637 21.4755 65.7667 21.192 65.9149C20.9149 66.0567 20.6282 66.2468 20.3318 66.4852C20.0354 66.7236 19.739 67.02 19.4426 67.3744C18.9981 67.9091 18.6533 68.4472 18.4085 68.9884C18.1701 69.5232 18.0509 70.0064 18.0509 70.4381C18.0509 70.8054 18.1347 71.0889 18.3022 71.2887C18.4697 71.4884 18.7081 71.5883 19.0174 71.5883C19.3718 71.5883 19.7036 71.511 20.0129 71.3563C20.3222 71.1952 20.6121 70.989 20.8827 70.7378C21.1533 70.4865 21.4111 70.2094 21.6559 69.9066C21.9008 69.5973 22.1392 69.2945 22.3711 68.9981Z" stroke="white" stroke-width="0.5" mask="url(#path-3-outside-1)"/>
<path d="M29.7841 63.3247L27.5902 67.732C27.9768 67.2358 28.3827 66.7751 28.808 66.3499C29.2332 65.9182 29.6682 65.567 30.1127 65.2964C30.4414 65.1031 30.7313 64.971 30.9826 64.9001C31.2339 64.8228 31.4723 64.7841 31.6978 64.7841C31.9169 64.7841 32.0973 64.8196 32.239 64.8905C32.3808 64.9613 32.4935 65.0548 32.5773 65.1707C32.6611 65.2867 32.7191 65.4156 32.7513 65.5573C32.7835 65.6927 32.7996 65.828 32.7996 65.9633C32.7996 66.2661 32.7481 66.5657 32.645 66.8621C32.5419 67.1585 32.413 67.4517 32.2584 67.7416C32.1102 68.0316 31.9459 68.3183 31.7655 68.6018C31.585 68.8789 31.4175 69.1527 31.2629 69.4233C31.1147 69.6875 30.989 69.9485 30.8859 70.2062C30.7829 70.4639 30.7313 70.712 30.7313 70.9504C30.7313 71.0664 30.7442 71.163 30.77 71.2403C30.8022 71.3112 30.8408 71.3692 30.8859 71.4143C30.9375 71.453 30.9923 71.4787 31.0502 71.4916C31.1082 71.5045 31.1662 71.511 31.2242 71.511C31.3466 71.511 31.4884 71.4562 31.6495 71.3466C31.817 71.2307 31.9942 71.0825 32.181 70.9021C32.3679 70.7152 32.558 70.5058 32.7513 70.2738C32.951 70.0354 33.1411 69.7938 33.3215 69.549C33.5084 69.2977 33.6823 69.0528 33.8434 68.8144C34.0045 68.5696 34.1463 68.3473 34.2687 68.1475L34.6263 68.4182C34.5554 68.5599 34.4491 68.7468 34.3073 68.9787C34.172 69.2107 34.0109 69.462 33.8241 69.7326C33.6372 69.9968 33.431 70.2642 33.2055 70.5348C32.9865 70.799 32.7545 71.0406 32.5097 71.2597C32.2648 71.4787 32.0135 71.6559 31.7558 71.7912C31.5045 71.933 31.2564 72.0039 31.0116 72.0039C30.8441 72.0039 30.683 71.9781 30.5283 71.9265C30.3737 71.875 30.2384 71.7977 30.1224 71.6946C30.0064 71.585 29.913 71.4465 29.8421 71.279C29.7713 71.1115 29.7358 70.9117 29.7358 70.6798C29.7358 70.4027 29.7906 70.0838 29.9001 69.7229C30.0161 69.3621 30.2352 68.9497 30.5573 68.4858C30.8215 68.1057 31.0502 67.7899 31.2435 67.5387C31.4368 67.2809 31.5947 67.0586 31.7171 66.8718C31.846 66.6785 31.9394 66.5045 31.9974 66.3499C32.0554 66.1888 32.0844 66.0116 32.0844 65.8183C32.0844 65.6508 32.0361 65.5219 31.9394 65.4317C31.8428 65.3415 31.7332 65.2964 31.6108 65.2964C31.2822 65.2964 30.9439 65.3898 30.596 65.5767C30.2481 65.7635 29.9033 66.0116 29.5618 66.3209C29.2204 66.6237 28.8853 66.9716 28.5567 67.3647C28.2281 67.7577 27.9156 68.1604 27.6192 68.5728C27.3292 68.9787 27.0586 69.3782 26.8073 69.7713C26.5625 70.1643 26.3499 70.5187 26.1695 70.8344C25.989 71.1437 25.8505 71.395 25.7539 71.5883C25.6508 71.7751 25.596 71.8718 25.5896 71.8782C25.3189 72.4323 25.0548 72.9671 24.797 73.4826C24.5393 74.0045 24.2977 74.4974 24.0722 74.9613C23.8402 75.4253 23.6276 75.8473 23.4343 76.2274C23.241 76.614 23.0734 76.9491 22.9317 77.2326C22.7899 77.5161 22.6804 77.7384 22.6031 77.8995C22.5193 78.0606 22.4742 78.1443 22.4678 78.1508L21.4143 77.5515C21.9426 76.5528 22.4195 75.6508 22.8447 74.8454C23.27 74.0399 23.6759 73.2796 24.0625 72.5644C24.4491 71.8557 24.8292 71.1662 25.203 70.4961C25.5767 69.826 25.9729 69.1269 26.3917 68.3988C26.8106 67.6643 27.2648 66.8782 27.7545 66.0406C28.2506 65.1965 28.8144 64.2461 29.4459 63.1894L29.7841 63.3247Z" stroke="white" stroke-width="0.5" mask="url(#path-3-outside-1)"/>
<path d="M38.6179 63.1798C38.6179 63.3086 38.5857 63.4439 38.5213 63.5857C38.4568 63.721 38.3731 63.8434 38.27 63.953C38.1733 64.0625 38.0638 64.1527 37.9414 64.2236C37.8189 64.2945 37.6965 64.3299 37.5741 64.3299C37.4646 64.3299 37.3808 64.2912 37.3228 64.2139C37.2648 64.1302 37.2358 64.0303 37.2358 63.9143C37.2358 63.8112 37.2551 63.6888 37.2938 63.547C37.3325 63.4053 37.3905 63.2732 37.4678 63.1508C37.5451 63.0219 37.6385 62.9124 37.7481 62.8222C37.8576 62.732 37.9832 62.6869 38.125 62.6869C38.2603 62.6869 38.3763 62.7384 38.4729 62.8415C38.5696 62.9446 38.6179 63.0573 38.6179 63.1798ZM36.8106 65.3254C36.7268 65.4929 36.6076 65.7152 36.453 65.9923C36.3048 66.2629 36.1437 66.5625 35.9697 66.8911C35.7957 67.2133 35.6185 67.5548 35.4381 67.9156C35.2577 68.27 35.0934 68.6179 34.9452 68.9594C34.8035 69.2945 34.6875 69.6102 34.5973 69.9066C34.5071 70.203 34.462 70.4542 34.462 70.6604C34.462 70.8473 34.5006 70.9762 34.578 71.047C34.6553 71.1115 34.7648 71.1437 34.9066 71.1437C35.1707 71.1437 35.4285 71.0567 35.6798 70.8827C35.931 70.7088 36.1791 70.4832 36.424 70.2062C36.6752 69.9227 36.9201 69.6005 37.1585 69.2397C37.3969 68.8789 37.6353 68.5148 37.8737 68.1475L38.2216 68.4182C38.0348 68.7532 37.8222 69.1108 37.5838 69.491C37.3518 69.8711 37.0908 70.2255 36.8009 70.5541C36.5109 70.8763 36.192 71.1437 35.8441 71.3563C35.4961 71.5689 35.116 71.6753 34.7036 71.6753C34.317 71.6753 34.0206 71.5593 33.8144 71.3273C33.6082 71.0954 33.5051 70.7957 33.5051 70.4285C33.5051 69.9968 33.605 69.5457 33.8048 69.0754C34.0045 68.605 34.2526 68.1411 34.549 67.6836C34.8518 67.2197 35.1772 66.7751 35.5251 66.3499C35.8795 65.9246 36.2049 65.538 36.5013 65.1901L36.8106 65.3254Z" stroke="white" stroke-width="0.5" mask="url(#path-3-outside-1)"/>
<path d="M38.6082 69.549C38.5954 69.6263 38.5857 69.7036 38.5792 69.7809C38.5728 69.8582 38.5696 69.9356 38.5696 70.0129C38.5696 70.2448 38.6018 70.4671 38.6662 70.6798C38.7371 70.886 38.837 71.0696 38.9658 71.2307C39.1012 71.3853 39.2655 71.5077 39.4588 71.5979C39.6585 71.6881 39.884 71.7332 40.1353 71.7332C40.9794 71.7332 41.7945 71.4465 42.5805 70.8731C43.3666 70.2996 44.1495 69.3911 44.9291 68.1475L45.2577 68.4375C44.8325 69.1463 44.4008 69.7455 43.9626 70.2352C43.5245 70.7184 43.0863 71.1115 42.6482 71.4143C42.2165 71.7171 41.7912 71.9362 41.3724 72.0715C40.9536 72.2068 40.5541 72.2745 40.174 72.2745C39.8969 72.2745 39.6037 72.2358 39.2945 72.1585C38.9852 72.0812 38.6984 71.9523 38.4343 71.7719C38.1765 71.5915 37.9639 71.3499 37.7964 71.047C37.6224 70.7442 37.5354 70.3673 37.5354 69.9162C37.5354 69.433 37.6192 68.9691 37.7867 68.5245C37.9478 68.0735 38.1604 67.6546 38.4246 67.268C38.6888 66.8814 38.9916 66.5303 39.3331 66.2146C39.6746 65.8924 40.0193 65.6186 40.3673 65.393C40.7216 65.1675 41.0664 64.9936 41.4014 64.8711C41.7365 64.7423 42.0329 64.6778 42.2906 64.6778C42.4581 64.6778 42.6289 64.7036 42.8028 64.7552C42.9768 64.8067 43.1314 64.8872 43.2667 64.9968C43.4085 65.1063 43.5213 65.2513 43.605 65.4317C43.6952 65.6121 43.7403 65.828 43.7403 66.0792C43.7403 66.4207 43.6598 66.7429 43.4987 67.0457C43.3441 67.3421 43.1347 67.6192 42.8705 67.8769C42.6063 68.1282 42.3002 68.357 41.9523 68.5631C41.6044 68.7629 41.2403 68.9336 40.8602 69.0754C40.48 69.2171 40.0966 69.3299 39.71 69.4137C39.3234 69.4974 38.9562 69.5425 38.6082 69.549ZM38.6856 69.1334C39.1173 69.0883 39.5232 68.9981 39.9033 68.8628C40.2835 68.7274 40.6314 68.5631 40.9472 68.3698C41.2629 68.1701 41.5432 67.9542 41.788 67.7223C42.0393 67.4903 42.2487 67.2552 42.4162 67.0167C42.5838 66.7783 42.7126 66.5496 42.8028 66.3305C42.893 66.1115 42.9381 65.9149 42.9381 65.741C42.9381 65.567 42.8898 65.4285 42.7932 65.3254C42.703 65.2223 42.5934 65.1707 42.4646 65.1707C42.181 65.1707 41.8621 65.2738 41.5077 65.48C41.1533 65.6798 40.799 65.96 40.4446 66.3209C40.0902 66.6753 39.7551 67.0941 39.4394 67.5773C39.1301 68.0606 38.8789 68.5792 38.6856 69.1334Z" stroke="white" stroke-width="0.5" mask="url(#path-3-outside-1)"/>
<path d="M51.0277 68.4182C50.931 68.5599 50.8151 68.7532 50.6798 68.9981C50.5509 69.2365 50.3995 69.4974 50.2255 69.7809C50.0515 70.058 49.8582 70.3415 49.6456 70.6314C49.4394 70.9214 49.2107 71.1823 48.9594 71.4143C48.7146 71.6463 48.4472 71.8363 48.1572 71.9845C47.8673 72.1327 47.558 72.2068 47.2294 72.2068C47.049 72.2068 46.8782 72.1778 46.7171 72.1198C46.556 72.0683 46.4143 71.9845 46.2919 71.8686C46.1695 71.7526 46.0728 71.6108 46.0019 71.4433C45.931 71.2693 45.8956 71.0664 45.8956 70.8344C45.8956 70.5187 45.9568 70.1901 46.0792 69.8486C46.2081 69.5006 46.3563 69.1656 46.5238 68.8434C46.6914 68.5213 46.8589 68.2281 47.0264 67.9639C47.1939 67.6933 47.3164 67.4774 47.3937 67.3164C47.471 67.1553 47.5097 67.0167 47.5097 66.9008C47.5097 66.817 47.4807 66.7429 47.4227 66.6785C47.3711 66.614 47.3035 66.5528 47.2197 66.4948C47.1424 66.4304 47.0586 66.366 46.9684 66.3015C46.8847 66.2307 46.8138 66.1469 46.7558 66.0503C46.5947 66.308 46.4304 66.5689 46.2629 66.8331C46.1147 67.0586 45.9536 67.3131 45.7796 67.5966C45.6057 67.8737 45.4381 68.1475 45.2771 68.4182L44.9291 68.1475L46.9974 64.9098L47.2777 65.0548C47.2648 65.0934 47.2423 65.1546 47.21 65.2384C47.1843 65.3222 47.1714 65.4124 47.1714 65.509C47.1714 65.5799 47.181 65.6508 47.2004 65.7216C47.2262 65.7861 47.2745 65.8473 47.3454 65.9053C47.6031 66.1372 47.806 66.3177 47.9542 66.4465C48.1024 66.5689 48.2088 66.6688 48.2732 66.7461C48.3441 66.817 48.3859 66.8782 48.3988 66.9298C48.4182 66.9749 48.4278 67.0361 48.4278 67.1134C48.4278 67.1907 48.4149 67.2841 48.3892 67.3937C48.3634 67.5032 48.3183 67.6353 48.2539 67.7899C48.1959 67.9446 48.1121 68.1282 48.0026 68.3408C47.8995 68.547 47.7674 68.7887 47.6063 69.0657C47.5097 69.2332 47.413 69.404 47.3164 69.578C47.2262 69.7455 47.1424 69.9162 47.0651 70.0902C46.9942 70.2642 46.9362 70.4381 46.8911 70.6121C46.846 70.7861 46.8234 70.9536 46.8234 71.1147C46.8234 71.2371 46.8396 71.337 46.8718 71.4143C46.9104 71.4852 46.9588 71.5399 47.0167 71.5786C47.0747 71.6173 47.1359 71.643 47.2004 71.6559C47.2713 71.6688 47.3389 71.6753 47.4033 71.6753C47.616 71.6753 47.8254 71.614 48.0316 71.4916C48.2442 71.3628 48.4504 71.1985 48.6501 70.9987C48.8563 70.799 49.0528 70.5735 49.2397 70.3222C49.433 70.0644 49.6166 69.8035 49.7906 69.5393C49.9646 69.2751 50.1256 69.0238 50.2738 68.7854C50.422 68.5406 50.5541 68.328 50.6701 68.1475L51.0277 68.4182Z" stroke="white" stroke-width="0.5" mask="url(#path-3-outside-1)"/>
<path d="M56.1791 67.3647C55.9343 67.3067 55.7216 67.2262 55.5412 67.1231C55.3673 67.0135 55.2255 66.8911 55.116 66.7558C55.0064 66.6205 54.9259 66.4787 54.8743 66.3305C54.8228 66.1759 54.797 66.0245 54.797 65.8763C54.797 65.5541 54.8872 65.3061 55.0676 65.1321C55.2481 64.9517 55.4736 64.8615 55.7442 64.8615C55.9246 64.8615 56.0792 64.9098 56.2081 65.0064C56.337 65.0966 56.4433 65.2191 56.5271 65.3737C56.6108 65.5283 56.672 65.7088 56.7107 65.9149C56.7493 66.1147 56.7687 66.3241 56.7687 66.5432C56.7687 66.6914 56.7622 66.8396 56.7493 66.9878C56.7365 67.1295 56.7139 67.2745 56.6817 67.4227C56.5271 68.1186 56.2983 68.75 55.9955 69.317C55.6991 69.8776 55.3608 70.3608 54.9807 70.7667C54.607 71.1662 54.2075 71.4755 53.7822 71.6946C53.357 71.9072 52.9414 72.0135 52.5354 72.0135C52.2584 72.0135 51.9942 71.9749 51.7429 71.8975C51.4981 71.8202 51.279 71.6914 51.0857 71.511C50.8988 71.3305 50.7506 71.0954 50.6411 70.8054C50.5316 70.509 50.4768 70.145 50.4768 69.7133C50.4768 69.1785 50.5799 68.5406 50.7861 67.7996C50.9987 67.0586 51.3563 66.1888 51.8589 65.1901C52.5805 63.7919 53.3054 62.5387 54.0335 61.4304C54.3428 60.96 54.6682 60.4994 55.0097 60.0483C55.3512 59.5973 55.6926 59.1946 56.0341 58.8402C56.3821 58.4858 56.7236 58.2023 57.0586 57.9897C57.4001 57.7706 57.7223 57.6611 58.0251 57.6611C58.0638 57.6611 58.1314 57.6675 58.2281 57.6804C58.3312 57.6933 58.4343 57.7287 58.5374 57.7867C58.6405 57.8383 58.7307 57.922 58.808 58.038C58.8917 58.1475 58.9336 58.3022 58.9336 58.5019C58.9336 58.7403 58.8692 59.0432 58.7403 59.4104C58.6179 59.7713 58.431 60.174 58.1798 60.6186C57.9349 61.0567 57.6289 61.5271 57.2616 62.0296C56.9008 62.5258 56.482 63.0251 56.0051 63.5277C55.5348 64.0303 55.0097 64.5232 54.4298 65.0064C53.8563 65.4897 53.2313 65.9407 52.5548 66.3595C52.3292 66.8492 52.1392 67.2938 51.9845 67.6933C51.8363 68.0863 51.7171 68.4439 51.6269 68.7661C51.5367 69.0818 51.4723 69.3621 51.4336 69.607C51.395 69.8518 51.3756 70.0644 51.3756 70.2448C51.3756 70.4961 51.4079 70.7055 51.4723 70.8731C51.5432 71.0341 51.6366 71.163 51.7526 71.2597C51.8685 71.3499 52.0006 71.4143 52.1488 71.453C52.297 71.4916 52.4517 71.511 52.6127 71.511C52.9156 71.511 53.2088 71.4336 53.4923 71.279C53.7822 71.1244 54.056 70.9246 54.3138 70.6798C54.5715 70.4285 54.8067 70.1482 55.0193 69.8389C55.2384 69.5296 55.4285 69.2236 55.5896 68.9207C55.7506 68.6115 55.8827 68.3215 55.9858 68.0509C56.0889 67.7738 56.1533 67.5451 56.1791 67.3647ZM52.9607 65.48C53.5535 65.0741 54.0979 64.6456 54.5941 64.1946C55.0966 63.7436 55.5509 63.2925 55.9568 62.8415C56.3627 62.384 56.7204 61.9394 57.0296 61.5077C57.3389 61.0696 57.5966 60.6604 57.8028 60.2803C58.009 59.9001 58.1637 59.5619 58.2667 59.2655C58.3763 58.9626 58.431 58.7178 58.431 58.5309C58.431 58.3634 58.3698 58.2796 58.2474 58.2796C58.0155 58.2796 57.7352 58.4053 57.4066 58.6566C57.0844 58.9079 56.7075 59.317 56.2758 59.884C55.8505 60.451 55.3608 61.192 54.8067 62.107C54.259 63.0219 53.6437 64.1463 52.9607 65.48ZM56.2468 66.8621C56.2532 66.8041 56.2564 66.7461 56.2564 66.6881C56.2629 66.6302 56.2661 66.5754 56.2661 66.5238C56.2661 66.1759 56.221 65.8956 56.1308 65.683C56.0406 65.4704 55.9117 65.364 55.7442 65.364C55.7055 65.364 55.6604 65.3705 55.6089 65.3834C55.5638 65.3898 55.5155 65.4124 55.4639 65.451C55.4188 65.4832 55.3801 65.5316 55.3479 65.596C55.3157 65.6604 55.2996 65.7442 55.2996 65.8473C55.2996 66.1115 55.3898 66.3305 55.5702 66.5045C55.7571 66.672 55.9826 66.7912 56.2468 66.8621Z" stroke="white" stroke-width="0.5" mask="url(#path-3-outside-1)"/>
<path d="M61.9684 63.1798C61.9684 63.3086 61.9362 63.4439 61.8718 63.5857C61.8073 63.721 61.7236 63.8434 61.6205 63.953C61.5238 64.0625 61.4143 64.1527 61.2919 64.2236C61.1695 64.2945 61.047 64.3299 60.9246 64.3299C60.8151 64.3299 60.7313 64.2912 60.6733 64.2139C60.6153 64.1302 60.5863 64.0303 60.5863 63.9143C60.5863 63.8112 60.6057 63.6888 60.6443 63.547C60.683 63.4053 60.741 63.2732 60.8183 63.1508C60.8956 63.0219 60.989 62.9124 61.0986 62.8222C61.2081 62.732 61.3338 62.6869 61.4755 62.6869C61.6108 62.6869 61.7268 62.7384 61.8234 62.8415C61.9201 62.9446 61.9684 63.0573 61.9684 63.1798ZM60.1611 65.3254C60.0773 65.4929 59.9581 65.7152 59.8035 65.9923C59.6553 66.2629 59.4942 66.5625 59.3202 66.8911C59.1463 67.2133 58.9691 67.5548 58.7887 67.9156C58.6082 68.27 58.4439 68.6179 58.2957 68.9594C58.154 69.2945 58.038 69.6102 57.9478 69.9066C57.8576 70.203 57.8125 70.4542 57.8125 70.6604C57.8125 70.8473 57.8512 70.9762 57.9285 71.047C58.0058 71.1115 58.1153 71.1437 58.2571 71.1437C58.5213 71.1437 58.779 71.0567 59.0303 70.8827C59.2816 70.7088 59.5296 70.4832 59.7745 70.2062C60.0258 69.9227 60.2706 69.6005 60.509 69.2397C60.7474 68.8789 60.9858 68.5148 61.2242 68.1475L61.5722 68.4182C61.3853 68.7532 61.1727 69.1108 60.9343 69.491C60.7023 69.8711 60.4414 70.2255 60.1514 70.5541C59.8615 70.8763 59.5425 71.1437 59.1946 71.3563C58.8466 71.5689 58.4665 71.6753 58.0541 71.6753C57.6675 71.6753 57.3711 71.5593 57.1649 71.3273C56.9588 71.0954 56.8557 70.7957 56.8557 70.4285C56.8557 69.9968 56.9555 69.5457 57.1553 69.0754C57.355 68.605 57.6031 68.1411 57.8995 67.6836C58.2023 67.2197 58.5277 66.7751 58.8756 66.3499C59.23 65.9246 59.5554 65.538 59.8518 65.1901L60.1611 65.3254Z" stroke="white" stroke-width="0.5" mask="url(#path-3-outside-1)"/>
<path d="M67.3228 68.4182C67.2262 68.5599 67.1102 68.7532 66.9749 68.9981C66.846 69.2365 66.6946 69.4974 66.5206 69.7809C66.3466 70.058 66.1533 70.3415 65.9407 70.6314C65.7345 70.9214 65.5058 71.1823 65.2545 71.4143C65.0097 71.6463 64.7423 71.8363 64.4523 71.9845C64.1624 72.1327 63.8531 72.2068 63.5245 72.2068C63.3441 72.2068 63.1733 72.1778 63.0122 72.1198C62.8512 72.0683 62.7094 71.9845 62.587 71.8686C62.4646 71.7526 62.3679 71.6108 62.297 71.4433C62.2262 71.2693 62.1907 71.0664 62.1907 70.8344C62.1907 70.5187 62.2519 70.1901 62.3743 69.8486C62.5032 69.5006 62.6514 69.1656 62.8189 68.8434C62.9865 68.5213 63.154 68.2281 63.3215 67.9639C63.489 67.6933 63.6115 67.4774 63.6888 67.3164C63.7661 67.1553 63.8048 67.0167 63.8048 66.9008C63.8048 66.817 63.7758 66.7429 63.7178 66.6785C63.6662 66.614 63.5986 66.5528 63.5148 66.4948C63.4375 66.4304 63.3537 66.366 63.2635 66.3015C63.1798 66.2307 63.1089 66.1469 63.0509 66.0503C62.8898 66.308 62.7255 66.5689 62.558 66.8331C62.4098 67.0586 62.2487 67.3131 62.0747 67.5966C61.9008 67.8737 61.7332 68.1475 61.5722 68.4182L61.2242 68.1475L63.2925 64.9098L63.5728 65.0548C63.5599 65.0934 63.5374 65.1546 63.5051 65.2384C63.4794 65.3222 63.4665 65.4124 63.4665 65.509C63.4665 65.5799 63.4762 65.6508 63.4955 65.7216C63.5213 65.7861 63.5696 65.8473 63.6405 65.9053C63.8982 66.1372 64.1012 66.3177 64.2493 66.4465C64.3975 66.5689 64.5039 66.6688 64.5683 66.7461C64.6392 66.817 64.681 66.8782 64.6939 66.9298C64.7133 66.9749 64.7229 67.0361 64.7229 67.1134C64.7229 67.1907 64.71 67.2841 64.6843 67.3937C64.6585 67.5032 64.6134 67.6353 64.549 67.7899C64.491 67.9446 64.4072 68.1282 64.2977 68.3408C64.1946 68.547 64.0625 68.7887 63.9014 69.0657C63.8048 69.2332 63.7081 69.404 63.6115 69.578C63.5213 69.7455 63.4375 69.9162 63.3602 70.0902C63.2893 70.2642 63.2313 70.4381 63.1862 70.6121C63.1411 70.7861 63.1185 70.9536 63.1185 71.1147C63.1185 71.2371 63.1347 71.337 63.1669 71.4143C63.2055 71.4852 63.2539 71.5399 63.3118 71.5786C63.3698 71.6173 63.431 71.643 63.4955 71.6559C63.5664 71.6688 63.634 71.6753 63.6984 71.6753C63.9111 71.6753 64.1205 71.614 64.3267 71.4916C64.5393 71.3628 64.7455 71.1985 64.9452 70.9987C65.1514 70.799 65.3479 70.5735 65.5348 70.3222C65.7281 70.0644 65.9117 69.8035 66.0857 69.5393C66.2597 69.2751 66.4207 69.0238 66.5689 68.7854C66.7171 68.5406 66.8492 68.328 66.9652 68.1475L67.3228 68.4182Z" stroke="white" stroke-width="0.5" mask="url(#path-3-outside-1)"/>
<path d="M77.7416 59.0528C77.6707 59.1559 77.5548 59.3267 77.3937 59.5651C77.2326 59.8035 77.0457 60.087 76.8331 60.4156C76.6205 60.7442 76.3885 61.1082 76.1372 61.5077C75.8924 61.9072 75.6443 62.3196 75.393 62.7448C75.1482 63.1701 74.9066 63.6018 74.6682 64.0399C74.4362 64.4716 74.23 64.8872 74.0496 65.2867C73.7661 65.9053 73.5309 66.4594 73.3441 66.9491C73.1637 67.4323 73.0187 67.864 72.9091 68.2442C72.806 68.6244 72.732 68.9562 72.6868 69.2397C72.6482 69.5167 72.6289 69.7552 72.6289 69.9549C72.6289 70.3222 72.6836 70.5767 72.7932 70.7184C72.9091 70.8602 73.0638 70.9311 73.2571 70.9311C73.4568 70.9311 73.6469 70.8795 73.8273 70.7764C74.0142 70.6733 74.1914 70.5412 74.3589 70.3802C74.5329 70.2191 74.6939 70.0354 74.8421 69.8292C74.9968 69.6231 75.1385 69.4169 75.2674 69.2107C75.4027 69.0045 75.5251 68.808 75.6347 68.6211C75.7442 68.4343 75.8408 68.2764 75.9246 68.1475L76.2725 68.4182C76.2017 68.5341 76.1115 68.6888 76.0019 68.8821C75.8988 69.0689 75.7796 69.2751 75.6443 69.5006C75.509 69.7262 75.3544 69.9549 75.1804 70.1869C75.0064 70.4124 74.8131 70.6186 74.6005 70.8054C74.3943 70.9923 74.1624 71.1469 73.9046 71.2693C73.6533 71.3853 73.3795 71.4433 73.0831 71.4433C72.9414 71.4433 72.7899 71.424 72.6289 71.3853C72.4742 71.3466 72.3292 71.279 72.1939 71.1823C72.0586 71.0857 71.9394 70.9536 71.8363 70.7861C71.7332 70.6121 71.6656 70.393 71.6334 70.1289C71.1501 70.6508 70.6798 71.047 70.2223 71.3177C69.7648 71.5818 69.3331 71.7139 68.9272 71.7139C68.721 71.7139 68.4923 71.6785 68.241 71.6076C67.9961 71.5367 67.7642 71.4143 67.5451 71.2403C67.326 71.0664 67.1424 70.8376 66.9942 70.5541C66.846 70.2642 66.7719 69.9066 66.7719 69.4813C66.7719 69.0045 66.846 68.5503 66.9942 68.1186C67.1424 67.6869 67.3421 67.2874 67.5934 66.9201C67.8447 66.5464 68.1314 66.2113 68.4536 65.9149C68.7822 65.6121 69.1237 65.3576 69.4781 65.1514C69.8325 64.9388 70.1868 64.7745 70.5412 64.6585C70.9021 64.5425 71.2403 64.4845 71.556 64.4845C71.9749 64.4845 72.3035 64.5361 72.5419 64.6392C72.7803 64.7423 72.9607 64.8454 73.0831 64.9485C73.1733 64.768 73.2957 64.5393 73.4504 64.2622C73.605 63.9787 73.7854 63.6662 73.9916 63.3247C74.1978 62.9768 74.4265 62.6095 74.6778 62.2229C74.9291 61.8299 75.1965 61.4369 75.48 61.0438C75.7635 60.6443 76.0599 60.2513 76.3692 59.8647C76.6849 59.4781 77.0039 59.1173 77.326 58.7822L77.7416 59.0528ZM71.6237 69.404C71.6559 68.9272 71.7655 68.3666 71.9523 67.7223C72.1456 67.0715 72.4388 66.3241 72.8318 65.48C72.7416 65.3447 72.6127 65.2416 72.4452 65.1707C72.2841 65.0934 72.1005 65.0548 71.8943 65.0548C71.5786 65.0548 71.2564 65.1192 70.9278 65.2481C70.6057 65.3769 70.2932 65.5509 69.9903 65.77C69.6939 65.989 69.4137 66.25 69.1495 66.5528C68.8853 66.8492 68.6533 67.1682 68.4536 67.5097C68.2603 67.8512 68.1057 68.2088 67.9897 68.5825C67.8801 68.9497 67.8254 69.3138 67.8254 69.6746C67.8254 70.1579 67.9252 70.5348 68.125 70.8054C68.3312 71.076 68.605 71.2113 68.9465 71.2113C69.1076 71.2113 69.2848 71.1791 69.4781 71.1147C69.6714 71.0503 69.8808 70.9472 70.1063 70.8054C70.3383 70.6572 70.5799 70.4704 70.8312 70.2448C71.0825 70.0129 71.3466 69.7326 71.6237 69.404Z" stroke="white" stroke-width="0.5" mask="url(#path-3-outside-1)"/>
<path d="M77.5387 71.1437C77.5387 71.337 77.4678 71.5045 77.326 71.6463C77.1907 71.7816 77.0232 71.8492 76.8234 71.8492C76.6366 71.8492 76.4723 71.7816 76.3305 71.6463C76.1952 71.5045 76.1276 71.337 76.1276 71.1437C76.1276 70.9568 76.1952 70.7957 76.3305 70.6604C76.4723 70.5187 76.6366 70.4478 76.8234 70.4478C77.0232 70.4478 77.1907 70.5187 77.326 70.6604C77.4678 70.7957 77.5387 70.9568 77.5387 71.1437Z" stroke="white" stroke-width="0.5" mask="url(#path-3-outside-1)"/>
</svg>
