<svg width="1187" height="727" viewBox="0 0 1187 727" fill="none" xmlns="http://www.w3.org/2000/svg">
<rect x="164" y="153" width="960" height="574" fill="#E7F9FC" fill-opacity="0.4"/>
<path d="M424 96H1064V283M1064 609.53V481M994.947 669H104V185" stroke="white" stroke-width="3"/>
<path d="M1068.22 643.318C1067.38 643.951 1066.59 644.707 1065.85 645.586C1066.56 646.031 1067.17 646.523 1067.66 647.062C1068.15 647.59 1068.54 648.129 1068.84 648.68C1069.14 649.23 1069.36 649.775 1069.49 650.314C1069.62 650.854 1069.68 651.352 1069.68 651.809C1069.68 652.957 1069.46 653.959 1069.03 654.814C1068.6 655.658 1068.02 656.361 1067.31 656.924C1066.61 657.486 1065.79 657.908 1064.87 658.189C1063.95 658.459 1063 658.594 1062.02 658.594C1060.92 658.594 1059.83 658.471 1058.77 658.225C1058.27 659.268 1057.74 660.305 1057.17 661.336C1056.59 662.367 1055.96 663.357 1055.29 664.307C1054.62 665.244 1053.88 666.123 1053.09 666.943C1052.3 667.752 1051.45 668.449 1050.54 669.035C1049.64 669.633 1048.66 670.102 1047.6 670.441C1046.55 670.781 1045.42 670.951 1044.23 670.951C1043.07 670.951 1042 670.764 1041.01 670.389C1040.03 670.014 1039.18 669.469 1038.46 668.754C1037.75 668.027 1037.19 667.148 1036.79 666.117C1036.39 665.074 1036.2 663.885 1036.2 662.549C1036.2 660.814 1036.49 659.145 1037.07 657.539C1037.67 655.934 1038.49 654.434 1039.52 653.039C1040.56 651.645 1041.79 650.379 1043.19 649.242C1044.6 648.105 1046.12 647.133 1047.74 646.324C1049.37 645.516 1051.08 644.889 1052.86 644.443C1054.64 643.998 1056.42 643.775 1058.2 643.775C1059.6 643.775 1060.83 643.893 1061.91 644.127C1063 644.35 1063.96 644.648 1064.79 645.023C1065.26 644.613 1065.76 644.232 1066.27 643.881C1066.79 643.518 1067.34 643.195 1067.94 642.914L1068.22 643.318ZM1057.29 656.766C1057.83 655.641 1058.36 654.562 1058.89 653.531C1059.42 652.488 1059.95 651.504 1060.49 650.578C1061.04 649.641 1061.61 648.768 1062.19 647.959C1062.78 647.139 1063.41 646.383 1064.09 645.691C1063.32 645.387 1062.47 645.164 1061.56 645.023C1060.66 644.883 1059.69 644.812 1058.66 644.812C1057.24 644.812 1055.85 644.982 1054.49 645.322C1053.13 645.662 1051.82 646.131 1050.56 646.729C1049.3 647.314 1048.1 648.012 1046.95 648.82C1045.82 649.629 1044.76 650.508 1043.77 651.457C1042.8 652.406 1041.91 653.402 1041.12 654.445C1040.33 655.477 1039.66 656.52 1039.1 657.574C1038.54 658.629 1038.12 659.672 1037.81 660.703C1037.52 661.723 1037.37 662.695 1037.37 663.621C1037.37 664.523 1037.54 665.367 1037.87 666.152C1038.19 666.926 1038.64 667.6 1039.22 668.174C1039.8 668.748 1040.5 669.199 1041.29 669.527C1042.1 669.855 1042.99 670.02 1043.95 670.02C1045.44 670.02 1046.77 669.727 1047.96 669.141C1049.14 668.555 1050.23 667.723 1051.24 666.645C1052.25 665.555 1053.21 664.248 1054.11 662.725C1055.01 661.201 1055.93 659.502 1056.87 657.627C1055.65 657.146 1054.52 656.531 1053.47 655.781L1053.76 655.289C1054.32 655.57 1054.89 655.84 1055.46 656.098C1056.05 656.344 1056.66 656.566 1057.29 656.766ZM1067.84 650.807C1067.84 649.764 1067.61 648.873 1067.15 648.135C1066.71 647.396 1066.08 646.781 1065.27 646.289C1064.2 647.672 1063.18 649.283 1062.21 651.123C1061.25 652.951 1060.25 654.99 1059.22 657.24C1059.56 657.299 1059.9 657.346 1060.24 657.381C1060.58 657.404 1060.93 657.416 1061.28 657.416C1062.17 657.416 1063.01 657.258 1063.79 656.941C1064.59 656.625 1065.29 656.18 1065.88 655.605C1066.48 655.02 1066.96 654.322 1067.31 653.514C1067.66 652.705 1067.84 651.803 1067.84 650.807ZM1080.33 657.311C1080.18 657.615 1079.96 658.014 1079.68 658.506C1079.41 658.998 1079.12 659.543 1078.8 660.141C1078.49 660.727 1078.17 661.342 1077.84 661.986C1077.52 662.631 1077.23 663.264 1076.96 663.885C1076.7 664.494 1076.48 665.074 1076.31 665.625C1076.14 666.164 1076.06 666.621 1076.06 666.996C1076.06 667.371 1076.13 667.617 1076.27 667.734C1076.43 667.84 1076.62 667.893 1076.85 667.893C1077.19 667.893 1077.54 667.793 1077.89 667.594C1078.25 667.395 1078.61 667.137 1078.95 666.82C1079.3 666.504 1079.64 666.146 1079.96 665.748C1080.29 665.35 1080.6 664.951 1080.88 664.553C1081.17 664.143 1081.44 663.756 1081.67 663.393C1081.9 663.018 1082.1 662.701 1082.27 662.443L1082.9 662.936C1082.7 663.311 1082.47 663.715 1082.2 664.148C1081.93 664.582 1081.63 665.021 1081.3 665.467C1080.98 665.9 1080.64 666.322 1080.26 666.732C1079.89 667.143 1079.49 667.506 1079.07 667.822C1078.66 668.139 1078.22 668.391 1077.77 668.578C1077.31 668.766 1076.84 668.859 1076.36 668.859C1075.66 668.859 1075.14 668.648 1074.81 668.227C1074.49 667.805 1074.32 667.26 1074.32 666.592C1074.32 666.545 1074.32 666.445 1074.32 666.293C1074.33 666.129 1074.35 666 1074.38 665.906C1073.79 666.645 1073.23 667.254 1072.69 667.734C1072.16 668.215 1071.64 668.596 1071.14 668.877C1070.65 669.158 1070.17 669.352 1069.7 669.457C1069.24 669.574 1068.8 669.633 1068.38 669.633C1067.94 669.633 1067.51 669.557 1067.12 669.404C1066.73 669.264 1066.39 669.053 1066.1 668.771C1065.79 668.49 1065.56 668.145 1065.39 667.734C1065.22 667.324 1065.13 666.85 1065.13 666.311C1065.13 665.643 1065.28 664.881 1065.59 664.025C1065.88 663.158 1066.41 662.227 1067.17 661.23C1067.81 660.375 1068.48 659.654 1069.17 659.068C1069.88 658.482 1070.56 658.014 1071.23 657.662C1071.91 657.299 1072.55 657.041 1073.16 656.889C1073.77 656.736 1074.32 656.66 1074.8 656.66C1075.88 656.66 1076.69 656.842 1077.24 657.205C1077.79 657.557 1078.12 658.102 1078.24 658.84C1078.48 658.547 1078.72 658.254 1078.98 657.961C1079.24 657.668 1079.5 657.369 1079.77 657.064L1080.33 657.311ZM1074.94 663.99C1075.09 663.744 1075.28 663.434 1075.5 663.059C1075.72 662.672 1075.96 662.279 1076.2 661.881C1076.45 661.471 1076.69 661.078 1076.92 660.703C1077.16 660.328 1077.36 660.012 1077.54 659.754C1077.54 659.648 1077.52 659.479 1077.49 659.244C1077.46 659.01 1077.39 658.775 1077.26 658.541C1077.13 658.295 1076.92 658.084 1076.64 657.908C1076.36 657.732 1075.97 657.645 1075.46 657.645C1075.1 657.645 1074.69 657.703 1074.23 657.82C1073.79 657.926 1073.31 658.113 1072.79 658.383C1072.29 658.641 1071.77 658.986 1071.23 659.42C1070.69 659.854 1070.15 660.393 1069.61 661.037C1068.8 662.01 1068.18 662.988 1067.73 663.973C1067.3 664.945 1067.08 665.824 1067.08 666.609C1067.08 667.277 1067.23 667.793 1067.54 668.156C1067.84 668.52 1068.28 668.701 1068.84 668.701C1069.48 668.701 1070.09 668.561 1070.65 668.279C1071.21 667.986 1071.74 667.611 1072.23 667.154C1072.72 666.697 1073.19 666.193 1073.64 665.643C1074.08 665.08 1074.52 664.529 1074.94 663.99ZM1088.42 653.672L1084.43 661.688C1085.13 660.785 1085.87 659.947 1086.64 659.174C1087.42 658.389 1088.21 657.75 1089.02 657.258C1089.62 656.906 1090.14 656.666 1090.6 656.537C1091.06 656.396 1091.49 656.326 1091.9 656.326C1092.3 656.326 1092.63 656.391 1092.88 656.52C1093.14 656.648 1093.35 656.818 1093.5 657.029C1093.65 657.24 1093.76 657.475 1093.82 657.732C1093.88 657.979 1093.9 658.225 1093.9 658.471C1093.9 659.021 1093.81 659.566 1093.62 660.105C1093.44 660.645 1093.2 661.178 1092.92 661.705C1092.65 662.232 1092.35 662.754 1092.02 663.27C1091.7 663.773 1091.39 664.271 1091.11 664.764C1090.84 665.244 1090.61 665.719 1090.42 666.188C1090.24 666.656 1090.14 667.107 1090.14 667.541C1090.14 667.752 1090.17 667.928 1090.21 668.068C1090.27 668.197 1090.34 668.303 1090.42 668.385C1090.52 668.455 1090.62 668.502 1090.72 668.525C1090.83 668.549 1090.93 668.561 1091.04 668.561C1091.26 668.561 1091.52 668.461 1091.81 668.262C1092.12 668.051 1092.44 667.781 1092.78 667.453C1093.12 667.113 1093.46 666.732 1093.82 666.311C1094.18 665.877 1094.53 665.438 1094.85 664.992C1095.19 664.535 1095.51 664.09 1095.8 663.656C1096.1 663.211 1096.35 662.807 1096.58 662.443L1097.23 662.936C1097.1 663.193 1096.9 663.533 1096.65 663.955C1096.4 664.377 1096.11 664.834 1095.77 665.326C1095.43 665.807 1095.05 666.293 1094.64 666.785C1094.24 667.266 1093.82 667.705 1093.38 668.104C1092.93 668.502 1092.47 668.824 1092.01 669.07C1091.55 669.328 1091.1 669.457 1090.65 669.457C1090.35 669.457 1090.05 669.41 1089.77 669.316C1089.49 669.223 1089.25 669.082 1089.04 668.895C1088.82 668.695 1088.65 668.443 1088.53 668.139C1088.4 667.834 1088.33 667.471 1088.33 667.049C1088.33 666.545 1088.43 665.965 1088.63 665.309C1088.84 664.652 1089.24 663.902 1089.83 663.059C1090.31 662.367 1090.72 661.793 1091.07 661.336C1091.43 660.867 1091.71 660.463 1091.94 660.123C1092.17 659.771 1092.34 659.455 1092.45 659.174C1092.55 658.881 1092.6 658.559 1092.6 658.207C1092.6 657.902 1092.52 657.668 1092.34 657.504C1092.16 657.34 1091.96 657.258 1091.74 657.258C1091.14 657.258 1090.53 657.428 1089.9 657.768C1089.26 658.107 1088.64 658.559 1088.02 659.121C1087.39 659.672 1086.79 660.305 1086.19 661.02C1085.59 661.734 1085.02 662.467 1084.48 663.217C1083.96 663.955 1083.46 664.682 1083.01 665.396C1082.56 666.111 1082.17 666.756 1081.85 667.33C1081.52 667.893 1081.27 668.35 1081.09 668.701C1080.9 669.041 1080.8 669.217 1080.79 669.229C1080.3 670.236 1079.82 671.209 1079.35 672.146C1078.88 673.096 1078.44 673.992 1078.03 674.836C1077.61 675.68 1077.22 676.447 1076.87 677.139C1076.52 677.842 1076.21 678.451 1075.96 678.967C1075.7 679.482 1075.5 679.887 1075.36 680.18C1075.21 680.473 1075.12 680.625 1075.11 680.637L1073.2 679.547C1074.16 677.73 1075.03 676.09 1075.8 674.625C1076.57 673.16 1077.31 671.777 1078.01 670.477C1078.72 669.188 1079.41 667.934 1080.09 666.715C1080.77 665.496 1081.49 664.225 1082.25 662.9C1083.01 661.564 1083.84 660.135 1084.73 658.611C1085.63 657.076 1086.66 655.348 1087.8 653.426L1088.42 653.672ZM1104.49 653.408C1104.49 653.643 1104.43 653.889 1104.31 654.146C1104.19 654.393 1104.04 654.615 1103.85 654.814C1103.68 655.014 1103.48 655.178 1103.26 655.307C1103.03 655.436 1102.81 655.5 1102.59 655.5C1102.39 655.5 1102.24 655.43 1102.13 655.289C1102.03 655.137 1101.97 654.955 1101.97 654.744C1101.97 654.557 1102.01 654.334 1102.08 654.076C1102.15 653.818 1102.25 653.578 1102.39 653.355C1102.54 653.121 1102.71 652.922 1102.9 652.758C1103.1 652.594 1103.33 652.512 1103.59 652.512C1103.84 652.512 1104.05 652.605 1104.22 652.793C1104.4 652.98 1104.49 653.186 1104.49 653.408ZM1101.2 657.311C1101.05 657.615 1100.83 658.02 1100.55 658.523C1100.28 659.016 1099.99 659.561 1099.67 660.158C1099.35 660.744 1099.03 661.365 1098.7 662.021C1098.38 662.666 1098.08 663.299 1097.81 663.92C1097.55 664.529 1097.34 665.104 1097.17 665.643C1097.01 666.182 1096.93 666.639 1096.93 667.014C1096.93 667.354 1097 667.588 1097.14 667.717C1097.28 667.834 1097.48 667.893 1097.74 667.893C1098.22 667.893 1098.69 667.734 1099.14 667.418C1099.6 667.102 1100.05 666.691 1100.5 666.188C1100.95 665.672 1101.4 665.086 1101.83 664.43C1102.27 663.773 1102.7 663.111 1103.13 662.443L1103.77 662.936C1103.43 663.545 1103.04 664.195 1102.61 664.887C1102.18 665.578 1101.71 666.223 1101.18 666.82C1100.65 667.406 1100.07 667.893 1099.44 668.279C1098.81 668.666 1098.12 668.859 1097.37 668.859C1096.66 668.859 1096.12 668.648 1095.75 668.227C1095.38 667.805 1095.19 667.26 1095.19 666.592C1095.19 665.807 1095.37 664.986 1095.73 664.131C1096.1 663.275 1096.55 662.432 1097.09 661.6C1097.64 660.756 1098.23 659.947 1098.86 659.174C1099.51 658.4 1100.1 657.697 1100.64 657.064L1101.2 657.311ZM1104.47 664.992C1104.45 665.133 1104.43 665.273 1104.42 665.414C1104.4 665.555 1104.4 665.695 1104.4 665.836C1104.4 666.258 1104.46 666.662 1104.57 667.049C1104.7 667.424 1104.88 667.758 1105.12 668.051C1105.37 668.332 1105.66 668.555 1106.02 668.719C1106.38 668.883 1106.79 668.965 1107.25 668.965C1108.78 668.965 1110.26 668.443 1111.69 667.4C1113.12 666.357 1114.55 664.705 1115.96 662.443L1116.56 662.971C1115.79 664.26 1115 665.35 1114.21 666.24C1113.41 667.119 1112.61 667.834 1111.82 668.385C1111.03 668.936 1110.26 669.334 1109.5 669.58C1108.73 669.826 1108.01 669.949 1107.32 669.949C1106.81 669.949 1106.28 669.879 1105.72 669.738C1105.15 669.598 1104.63 669.363 1104.15 669.035C1103.68 668.707 1103.3 668.268 1102.99 667.717C1102.68 667.166 1102.52 666.48 1102.52 665.66C1102.52 664.781 1102.67 663.938 1102.97 663.129C1103.27 662.309 1103.65 661.547 1104.13 660.844C1104.62 660.141 1105.17 659.502 1105.79 658.928C1106.41 658.342 1107.04 657.844 1107.67 657.434C1108.31 657.023 1108.94 656.707 1109.55 656.484C1110.16 656.25 1110.7 656.133 1111.17 656.133C1111.47 656.133 1111.78 656.18 1112.1 656.273C1112.41 656.367 1112.7 656.514 1112.94 656.713C1113.2 656.912 1113.4 657.176 1113.56 657.504C1113.72 657.832 1113.8 658.225 1113.8 658.682C1113.8 659.303 1113.66 659.889 1113.36 660.439C1113.08 660.979 1112.7 661.482 1112.22 661.951C1111.74 662.408 1111.18 662.824 1110.55 663.199C1109.92 663.562 1109.26 663.873 1108.56 664.131C1107.87 664.389 1107.18 664.594 1106.47 664.746C1105.77 664.898 1105.1 664.98 1104.47 664.992ZM1104.61 664.236C1105.39 664.154 1106.13 663.99 1106.82 663.744C1107.52 663.498 1108.15 663.199 1108.72 662.848C1109.3 662.484 1109.81 662.092 1110.25 661.67C1110.71 661.248 1111.09 660.82 1111.39 660.387C1111.7 659.953 1111.93 659.537 1112.1 659.139C1112.26 658.74 1112.34 658.383 1112.34 658.066C1112.34 657.75 1112.26 657.498 1112.08 657.311C1111.92 657.123 1111.72 657.029 1111.48 657.029C1110.97 657.029 1110.39 657.217 1109.74 657.592C1109.1 657.955 1108.45 658.465 1107.81 659.121C1107.16 659.766 1106.55 660.527 1105.98 661.406C1105.42 662.285 1104.96 663.229 1104.61 664.236ZM1127.06 662.936C1126.88 663.193 1126.67 663.545 1126.42 663.99C1126.19 664.424 1125.91 664.898 1125.6 665.414C1125.28 665.918 1124.93 666.434 1124.54 666.961C1124.17 667.488 1123.75 667.963 1123.29 668.385C1122.85 668.807 1122.36 669.152 1121.84 669.422C1121.31 669.691 1120.75 669.826 1120.15 669.826C1119.82 669.826 1119.51 669.773 1119.22 669.668C1118.92 669.574 1118.67 669.422 1118.44 669.211C1118.22 669 1118.04 668.742 1117.92 668.438C1117.79 668.121 1117.72 667.752 1117.72 667.33C1117.72 666.756 1117.83 666.158 1118.06 665.537C1118.29 664.904 1118.56 664.295 1118.87 663.709C1119.17 663.123 1119.47 662.59 1119.78 662.109C1120.08 661.617 1120.31 661.225 1120.45 660.932C1120.59 660.639 1120.66 660.387 1120.66 660.176C1120.66 660.023 1120.61 659.889 1120.5 659.771C1120.41 659.654 1120.28 659.543 1120.13 659.438C1119.99 659.32 1119.84 659.203 1119.67 659.086C1119.52 658.957 1119.39 658.805 1119.29 658.629C1118.99 659.098 1118.7 659.572 1118.39 660.053C1118.12 660.463 1117.83 660.926 1117.51 661.441C1117.2 661.945 1116.89 662.443 1116.6 662.936L1115.96 662.443L1119.73 656.555L1120.24 656.818C1120.21 656.889 1120.17 657 1120.11 657.152C1120.07 657.305 1120.04 657.469 1120.04 657.645C1120.04 657.773 1120.06 657.902 1120.1 658.031C1120.14 658.148 1120.23 658.26 1120.36 658.365C1120.83 658.787 1121.2 659.115 1121.47 659.35C1121.74 659.572 1121.93 659.754 1122.05 659.895C1122.18 660.023 1122.25 660.135 1122.28 660.229C1122.31 660.311 1122.33 660.422 1122.33 660.562C1122.33 660.703 1122.3 660.873 1122.26 661.072C1122.21 661.271 1122.13 661.512 1122.01 661.793C1121.91 662.074 1121.75 662.408 1121.55 662.795C1121.37 663.17 1121.13 663.609 1120.83 664.113C1120.66 664.418 1120.48 664.729 1120.31 665.045C1120.14 665.35 1119.99 665.66 1119.85 665.977C1119.72 666.293 1119.62 666.609 1119.53 666.926C1119.45 667.242 1119.41 667.547 1119.41 667.84C1119.41 668.062 1119.44 668.244 1119.5 668.385C1119.57 668.514 1119.66 668.613 1119.76 668.684C1119.87 668.754 1119.98 668.801 1120.1 668.824C1120.22 668.848 1120.35 668.859 1120.46 668.859C1120.85 668.859 1121.23 668.748 1121.61 668.525C1121.99 668.291 1122.37 667.992 1122.73 667.629C1123.11 667.266 1123.46 666.855 1123.8 666.398C1124.16 665.93 1124.49 665.455 1124.81 664.975C1125.12 664.494 1125.42 664.037 1125.69 663.604C1125.96 663.158 1126.2 662.771 1126.41 662.443L1127.06 662.936ZM1136.43 661.02C1135.98 660.914 1135.59 660.768 1135.27 660.58C1134.95 660.381 1134.69 660.158 1134.49 659.912C1134.29 659.666 1134.15 659.408 1134.05 659.139C1133.96 658.857 1133.91 658.582 1133.91 658.312C1133.91 657.727 1134.08 657.275 1134.4 656.959C1134.73 656.631 1135.14 656.467 1135.63 656.467C1135.96 656.467 1136.24 656.555 1136.48 656.73C1136.71 656.895 1136.91 657.117 1137.06 657.398C1137.21 657.68 1137.32 658.008 1137.39 658.383C1137.46 658.746 1137.5 659.127 1137.5 659.525C1137.5 659.795 1137.49 660.064 1137.46 660.334C1137.44 660.592 1137.4 660.855 1137.34 661.125C1137.06 662.391 1136.64 663.539 1136.09 664.57C1135.55 665.59 1134.94 666.469 1134.25 667.207C1133.57 667.934 1132.84 668.496 1132.07 668.895C1131.29 669.281 1130.54 669.475 1129.8 669.475C1129.29 669.475 1128.81 669.404 1128.36 669.264C1127.91 669.123 1127.51 668.889 1127.16 668.561C1126.82 668.232 1126.55 667.805 1126.35 667.277C1126.15 666.738 1126.05 666.076 1126.05 665.291C1126.05 664.318 1126.24 663.158 1126.62 661.811C1127 660.463 1127.65 658.881 1128.57 657.064C1129.88 654.521 1131.2 652.242 1132.52 650.227C1133.09 649.371 1133.68 648.533 1134.3 647.713C1134.92 646.893 1135.54 646.16 1136.16 645.516C1136.79 644.871 1137.42 644.355 1138.03 643.969C1138.65 643.57 1139.23 643.371 1139.78 643.371C1139.85 643.371 1139.98 643.383 1140.15 643.406C1140.34 643.43 1140.53 643.494 1140.71 643.6C1140.9 643.693 1141.07 643.846 1141.21 644.057C1141.36 644.256 1141.44 644.537 1141.44 644.9C1141.44 645.334 1141.32 645.885 1141.08 646.553C1140.86 647.209 1140.52 647.941 1140.06 648.75C1139.62 649.547 1139.06 650.402 1138.39 651.316C1137.74 652.219 1136.98 653.127 1136.11 654.041C1135.25 654.955 1134.3 655.852 1133.24 656.73C1132.2 657.609 1131.06 658.43 1129.83 659.191C1129.42 660.082 1129.08 660.891 1128.8 661.617C1128.53 662.332 1128.31 662.982 1128.15 663.568C1127.98 664.143 1127.87 664.652 1127.79 665.098C1127.72 665.543 1127.69 665.93 1127.69 666.258C1127.69 666.715 1127.75 667.096 1127.87 667.4C1127.99 667.693 1128.16 667.928 1128.38 668.104C1128.59 668.268 1128.83 668.385 1129.1 668.455C1129.37 668.525 1129.65 668.561 1129.94 668.561C1130.49 668.561 1131.02 668.42 1131.54 668.139C1132.07 667.857 1132.56 667.494 1133.03 667.049C1133.5 666.592 1133.93 666.082 1134.32 665.52C1134.71 664.957 1135.06 664.4 1135.35 663.85C1135.65 663.287 1135.89 662.76 1136.07 662.268C1136.26 661.764 1136.38 661.348 1136.43 661.02ZM1130.57 657.592C1131.65 656.854 1132.64 656.074 1133.54 655.254C1134.46 654.434 1135.28 653.613 1136.02 652.793C1136.76 651.961 1137.41 651.152 1137.97 650.367C1138.54 649.57 1139 648.826 1139.38 648.135C1139.75 647.443 1140.04 646.828 1140.22 646.289C1140.42 645.738 1140.52 645.293 1140.52 644.953C1140.52 644.648 1140.41 644.496 1140.19 644.496C1139.77 644.496 1139.26 644.725 1138.66 645.182C1138.07 645.639 1137.39 646.383 1136.6 647.414C1135.83 648.445 1134.94 649.793 1133.93 651.457C1132.93 653.121 1131.81 655.166 1130.57 657.592ZM1136.55 660.105C1136.56 660 1136.57 659.895 1136.57 659.789C1136.58 659.684 1136.58 659.584 1136.58 659.49C1136.58 658.857 1136.5 658.348 1136.34 657.961C1136.17 657.574 1135.94 657.381 1135.63 657.381C1135.56 657.381 1135.48 657.393 1135.39 657.416C1135.31 657.428 1135.22 657.469 1135.12 657.539C1135.04 657.598 1134.97 657.686 1134.91 657.803C1134.86 657.92 1134.83 658.072 1134.83 658.26C1134.83 658.74 1134.99 659.139 1135.32 659.455C1135.66 659.76 1136.07 659.977 1136.55 660.105ZM1146.96 653.408C1146.96 653.643 1146.9 653.889 1146.78 654.146C1146.66 654.393 1146.51 654.615 1146.32 654.814C1146.15 655.014 1145.95 655.178 1145.72 655.307C1145.5 655.436 1145.28 655.5 1145.06 655.5C1144.86 655.5 1144.71 655.43 1144.6 655.289C1144.49 655.137 1144.44 654.955 1144.44 654.744C1144.44 654.557 1144.48 654.334 1144.55 654.076C1144.62 653.818 1144.72 653.578 1144.86 653.355C1145 653.121 1145.17 652.922 1145.37 652.758C1145.57 652.594 1145.8 652.512 1146.06 652.512C1146.3 652.512 1146.52 652.605 1146.69 652.793C1146.87 652.98 1146.96 653.186 1146.96 653.408ZM1143.67 657.311C1143.52 657.615 1143.3 658.02 1143.02 658.523C1142.75 659.016 1142.46 659.561 1142.14 660.158C1141.82 660.744 1141.5 661.365 1141.17 662.021C1140.84 662.666 1140.54 663.299 1140.28 663.92C1140.02 664.529 1139.81 665.104 1139.64 665.643C1139.48 666.182 1139.4 666.639 1139.4 667.014C1139.4 667.354 1139.47 667.588 1139.61 667.717C1139.75 667.834 1139.95 667.893 1140.21 667.893C1140.69 667.893 1141.15 667.734 1141.61 667.418C1142.07 667.102 1142.52 666.691 1142.96 666.188C1143.42 665.672 1143.87 665.086 1144.3 664.43C1144.73 663.773 1145.17 663.111 1145.6 662.443L1146.23 662.936C1145.89 663.545 1145.51 664.195 1145.07 664.887C1144.65 665.578 1144.18 666.223 1143.65 666.82C1143.12 667.406 1142.54 667.893 1141.91 668.279C1141.28 668.666 1140.59 668.859 1139.84 668.859C1139.13 668.859 1138.59 668.648 1138.22 668.227C1137.84 667.805 1137.66 667.26 1137.66 666.592C1137.66 665.807 1137.84 664.986 1138.2 664.131C1138.56 663.275 1139.02 662.432 1139.55 661.6C1140.11 660.756 1140.7 659.947 1141.33 659.174C1141.97 658.4 1142.57 657.697 1143.11 657.064L1143.67 657.311ZM1156.69 662.936C1156.52 663.193 1156.31 663.545 1156.06 663.99C1155.83 664.424 1155.55 664.898 1155.23 665.414C1154.92 665.918 1154.57 666.434 1154.18 666.961C1153.8 667.488 1153.39 667.963 1152.93 668.385C1152.49 668.807 1152 669.152 1151.47 669.422C1150.95 669.691 1150.38 669.826 1149.79 669.826C1149.46 669.826 1149.15 669.773 1148.85 669.668C1148.56 669.574 1148.3 669.422 1148.08 669.211C1147.86 669 1147.68 668.742 1147.55 668.438C1147.42 668.121 1147.36 667.752 1147.36 667.33C1147.36 666.756 1147.47 666.158 1147.69 665.537C1147.93 664.904 1148.2 664.295 1148.5 663.709C1148.81 663.123 1149.11 662.59 1149.42 662.109C1149.72 661.617 1149.94 661.225 1150.08 660.932C1150.22 660.639 1150.29 660.387 1150.29 660.176C1150.29 660.023 1150.24 659.889 1150.14 659.771C1150.04 659.654 1149.92 659.543 1149.77 659.438C1149.63 659.32 1149.47 659.203 1149.31 659.086C1149.16 658.957 1149.03 658.805 1148.92 658.629C1148.63 659.098 1148.33 659.572 1148.03 660.053C1147.76 660.463 1147.46 660.926 1147.15 661.441C1146.83 661.945 1146.53 662.443 1146.23 662.936L1145.6 662.443L1149.36 656.555L1149.87 656.818C1149.85 656.889 1149.81 657 1149.75 657.152C1149.7 657.305 1149.68 657.469 1149.68 657.645C1149.68 657.773 1149.7 657.902 1149.73 658.031C1149.78 658.148 1149.87 658.26 1150 658.365C1150.46 658.787 1150.83 659.115 1151.1 659.35C1151.37 659.572 1151.57 659.754 1151.68 659.895C1151.81 660.023 1151.89 660.135 1151.91 660.229C1151.95 660.311 1151.96 660.422 1151.96 660.562C1151.96 660.703 1151.94 660.873 1151.89 661.072C1151.85 661.271 1151.77 661.512 1151.65 661.793C1151.54 662.074 1151.39 662.408 1151.19 662.795C1151 663.17 1150.76 663.609 1150.47 664.113C1150.29 664.418 1150.12 664.729 1149.94 665.045C1149.78 665.35 1149.63 665.66 1149.49 665.977C1149.36 666.293 1149.25 666.609 1149.17 666.926C1149.09 667.242 1149.05 667.547 1149.05 667.84C1149.05 668.062 1149.08 668.244 1149.13 668.385C1149.21 668.514 1149.29 668.613 1149.4 668.684C1149.5 668.754 1149.62 668.801 1149.73 668.824C1149.86 668.848 1149.98 668.859 1150.1 668.859C1150.49 668.859 1150.87 668.748 1151.24 668.525C1151.63 668.291 1152.01 667.992 1152.37 667.629C1152.74 667.266 1153.1 666.855 1153.44 666.398C1153.79 665.93 1154.13 665.455 1154.44 664.975C1154.76 664.494 1155.05 664.037 1155.32 663.604C1155.59 663.158 1155.83 662.771 1156.04 662.443L1156.69 662.936ZM1175.64 645.902C1175.51 646.09 1175.3 646.4 1175.01 646.834C1174.72 647.268 1174.38 647.783 1173.99 648.381C1173.6 648.979 1173.18 649.641 1172.72 650.367C1172.28 651.094 1171.83 651.844 1171.37 652.617C1170.93 653.391 1170.49 654.176 1170.05 654.973C1169.63 655.758 1169.26 656.514 1168.93 657.24C1168.41 658.365 1167.98 659.373 1167.64 660.264C1167.32 661.143 1167.05 661.928 1166.85 662.619C1166.67 663.311 1166.53 663.914 1166.45 664.43C1166.38 664.934 1166.34 665.367 1166.34 665.73C1166.34 666.398 1166.44 666.861 1166.64 667.119C1166.85 667.377 1167.13 667.506 1167.49 667.506C1167.85 667.506 1168.2 667.412 1168.52 667.225C1168.86 667.037 1169.19 666.797 1169.49 666.504C1169.81 666.211 1170.1 665.877 1170.37 665.502C1170.65 665.127 1170.91 664.752 1171.14 664.377C1171.39 664.002 1171.61 663.645 1171.81 663.305C1172.01 662.965 1172.19 662.678 1172.34 662.443L1172.97 662.936C1172.84 663.146 1172.68 663.428 1172.48 663.779C1172.29 664.119 1172.07 664.494 1171.83 664.904C1171.58 665.314 1171.3 665.73 1170.98 666.152C1170.67 666.562 1170.32 666.938 1169.93 667.277C1169.55 667.617 1169.13 667.898 1168.66 668.121C1168.21 668.332 1167.71 668.438 1167.17 668.438C1166.91 668.438 1166.64 668.402 1166.34 668.332C1166.06 668.262 1165.8 668.139 1165.55 667.963C1165.31 667.787 1165.09 667.547 1164.9 667.242C1164.71 666.926 1164.59 666.527 1164.53 666.047C1163.65 666.996 1162.8 667.717 1161.97 668.209C1161.13 668.689 1160.35 668.93 1159.61 668.93C1159.24 668.93 1158.82 668.865 1158.36 668.736C1157.92 668.607 1157.5 668.385 1157.1 668.068C1156.7 667.752 1156.37 667.336 1156.1 666.82C1155.83 666.293 1155.69 665.643 1155.69 664.869C1155.69 664.002 1155.83 663.176 1156.1 662.391C1156.37 661.605 1156.73 660.879 1157.19 660.211C1157.64 659.531 1158.16 658.922 1158.75 658.383C1159.35 657.832 1159.97 657.369 1160.61 656.994C1161.26 656.607 1161.9 656.309 1162.55 656.098C1163.2 655.887 1163.82 655.781 1164.39 655.781C1165.15 655.781 1165.75 655.875 1166.19 656.062C1166.62 656.25 1166.95 656.438 1167.17 656.625C1167.33 656.297 1167.56 655.881 1167.84 655.377C1168.12 654.861 1168.45 654.293 1168.82 653.672C1169.2 653.039 1169.61 652.371 1170.07 651.668C1170.53 650.953 1171.01 650.238 1171.53 649.523C1172.04 648.797 1172.58 648.082 1173.15 647.379C1173.72 646.676 1174.3 646.02 1174.89 645.41L1175.64 645.902ZM1164.52 664.729C1164.57 663.861 1164.77 662.842 1165.11 661.67C1165.46 660.486 1166 659.127 1166.71 657.592C1166.55 657.346 1166.31 657.158 1166.01 657.029C1165.72 656.889 1165.38 656.818 1165.01 656.818C1164.43 656.818 1163.85 656.936 1163.25 657.17C1162.66 657.404 1162.1 657.721 1161.54 658.119C1161.01 658.518 1160.5 658.992 1160.02 659.543C1159.54 660.082 1159.11 660.662 1158.75 661.283C1158.4 661.904 1158.12 662.555 1157.91 663.234C1157.71 663.902 1157.61 664.564 1157.61 665.221C1157.61 666.1 1157.79 666.785 1158.15 667.277C1158.53 667.77 1159.03 668.016 1159.65 668.016C1159.94 668.016 1160.26 667.957 1160.61 667.84C1160.96 667.723 1161.35 667.535 1161.76 667.277C1162.18 667.008 1162.62 666.668 1163.07 666.258C1163.53 665.836 1164.01 665.326 1164.52 664.729ZM1175.27 667.893C1175.27 668.244 1175.14 668.549 1174.89 668.807C1174.64 669.053 1174.34 669.176 1173.97 669.176C1173.63 669.176 1173.33 669.053 1173.08 668.807C1172.83 668.549 1172.71 668.244 1172.71 667.893C1172.71 667.553 1172.83 667.26 1173.08 667.014C1173.33 666.756 1173.63 666.627 1173.97 666.627C1174.34 666.627 1174.64 666.756 1174.89 667.014C1175.14 667.26 1175.27 667.553 1175.27 667.893Z" fill="white"/>
<path d="M188 195H136.109L130.906 151.828H71.4219L51.7344 195H0.828125L99.5469 0.09375H152.281L188 195ZM127.531 124.406L118.25 49.875L84.3594 124.406H127.531ZM362.797 116.391C362.797 132.422 359.328 146.531 352.391 158.719C345.453 170.906 334.859 180.422 320.609 187.266C306.453 194.109 288.969 197.531 268.156 197.531C263 197.531 256.906 197.344 249.875 196.969C242.844 196.594 236.328 196.031 230.328 195.281C224.328 194.625 216.641 193.594 207.266 192.188L235.25 0.09375H281.938L272.375 65.625C281.938 54.75 293.562 49.3125 307.25 49.3125C314.469 49.3125 321.406 50.9531 328.062 54.2344C334.812 57.4219 340.766 61.9688 345.922 67.875C351.078 73.6875 355.156 80.8125 358.156 89.25C361.25 97.5938 362.797 106.641 362.797 116.391ZM313.859 116.672C313.859 107.672 311.75 101.016 307.531 96.7031C303.406 92.3906 298.438 90.2344 292.625 90.2344C283.344 90.2344 274.578 95.2969 266.328 105.422L258.594 157.875C261.688 158.25 266.188 158.438 272.094 158.438C299.938 158.438 313.859 144.516 313.859 116.672Z" fill="white"/>
<path d="M248.266 204.078C248.266 215.422 246.203 226.062 242.078 236C237.953 245.844 232.281 254.281 225.062 261.312C217.844 268.344 209.312 273.828 199.469 277.766C189.625 281.609 179.219 283.531 168.25 283.531C155.312 283.531 143.266 280.719 132.109 275.094C120.953 269.375 112.094 261.219 105.531 250.625C98.9688 240.031 95.6875 227.891 95.6875 214.203C95.6875 203.797 97.7969 193.812 102.016 184.25C106.234 174.594 112.094 166.109 119.594 158.797C127.188 151.391 136.047 145.625 146.172 141.5C156.297 137.375 167.125 135.312 178.656 135.312C190.75 135.312 202.094 137.891 212.688 143.047C223.281 148.109 231.859 155.797 238.422 166.109C244.984 176.422 248.266 189.078 248.266 204.078ZM200.453 203.234C200.453 194.516 198.109 187.719 193.422 182.844C188.828 177.969 182.922 175.531 175.703 175.531C168.203 175.531 162.062 177.734 157.281 182.141C152.5 186.547 148.984 191.891 146.734 198.172C144.578 204.359 143.5 210.172 143.5 215.609C143.5 223.391 145.797 229.953 150.391 235.297C154.984 240.641 161.125 243.312 168.812 243.312C174.906 243.312 180.391 241.344 185.266 237.406C190.141 233.469 193.891 228.406 196.516 222.219C199.141 215.938 200.453 209.609 200.453 203.234ZM424.469 137.844L403.094 281H356.406L358.797 264.266C356.922 265.578 354.016 267.594 350.078 270.312C346.234 273.031 342.625 275.234 339.25 276.922C335.969 278.609 331.844 280.109 326.875 281.422C322 282.828 316.984 283.531 311.828 283.531C301.797 283.531 293.828 281.234 287.922 276.641C282.016 271.953 277.891 266.281 275.547 259.625C273.203 252.969 272.031 246.453 272.031 240.078C272.031 237.078 272.5 231.828 273.438 224.328L286.234 137.844H332.781L319.844 227.141C319.656 228.266 319.562 229.906 319.562 232.062C319.562 241.062 323.5 245.562 331.375 245.562C336.25 245.562 341.031 243.969 345.719 240.781C350.406 237.594 356.781 232.203 364.844 224.609L377.5 137.844H424.469ZM547.797 137.844L540.344 173H512.641L503.219 219.688C502.469 223.625 502.094 226.719 502.094 228.969C502.094 236.938 505.609 240.922 512.641 240.922C520.234 240.922 529.469 236.891 540.344 228.828L537.672 272.141C524.828 279.734 511.328 283.531 497.172 283.531C490.984 283.531 484.938 282.453 479.031 280.297C473.125 278.047 467.734 273.969 462.859 268.062C457.047 261.219 454.141 252.219 454.141 241.062C454.141 236.094 454.656 230.891 455.688 225.453L465.391 173H438.953L445.281 137.844H472L477.484 109.297H524.734L519.25 137.844H547.797Z" fill="white"/>
<path d="M972.525 345.705C972.525 349.189 975.349 352.013 978.833 352.013C982.317 352.013 985.141 349.189 985.141 345.705C985.141 342.221 982.317 339.397 978.833 339.397C975.349 339.397 972.525 342.221 972.525 345.705Z" fill="white"/>
<path fill-rule="evenodd" clip-rule="evenodd" d="M1026.35 282.063C1019.05 276.236 1010.46 272 1000.08 272C989.816 272 983.579 274.987 978.361 277.896C977.834 278.19 977.322 278.48 976.821 278.763C972.369 281.28 968.817 283.288 963.561 283.288C962.644 283.288 961.846 283.914 961.626 284.804C961.407 285.694 961.823 286.618 962.635 287.044C967.031 289.351 971.625 294.07 976.432 300.691C980.217 305.902 984.045 312.165 987.942 319.088C987.803 319.083 987.664 319.078 987.525 319.073C978.984 318.815 972.275 320.585 966.834 323.596C961.411 326.597 957.365 330.766 954.048 335.132C951.679 338.249 949.618 341.563 947.717 344.62C946.988 345.793 946.282 346.927 945.592 347.998C943.026 351.98 940.667 355.095 937.897 356.917C937.203 357.374 936.865 358.214 937.05 359.024C937.235 359.834 937.903 360.445 938.727 360.555C949.374 361.986 956.971 366.318 963.998 372.543C968.759 376.76 973.163 381.744 978.075 387.302C980.552 390.105 983.158 393.054 986.004 396.124C987.319 397.542 988.635 398.987 989.963 400.444C1005.37 417.351 1022.37 436.01 1057.52 436.01C1076.49 436.01 1091.31 431.084 1104.05 422.295C1116.74 413.543 1127.28 401.028 1137.83 386.028C1140.2 382.668 1142.81 378.641 1145.62 374.326C1146.3 373.27 1147 372.196 1147.71 371.111C1151.32 365.57 1155.23 359.687 1159.36 354.081C1167.7 342.77 1176.7 332.965 1185.77 329.213C1186.54 328.895 1187.03 328.13 1187 327.297C1186.97 326.464 1186.42 325.739 1185.63 325.48C1178 322.98 1172.94 319.071 1167.59 314.942C1166.47 314.075 1165.34 313.199 1164.16 312.324C1157.39 307.271 1149.66 302.604 1136.41 301.227C1123.12 299.847 1113.52 303.042 1104.89 309.186C1097.94 314.132 1091.58 321.035 1084.44 328.791C1082.88 330.484 1081.28 332.217 1079.64 333.98C1070.48 343.77 1061.7 349.651 1052.97 352.572C1052.16 352.844 1051.34 353.092 1050.52 353.314C1046.42 350.403 1042.36 347.361 1038.31 344.33C1037.63 343.819 1036.95 343.309 1036.27 342.799C1028.33 336.86 1020.43 331.068 1012.42 326.707C1006.05 323.231 999.524 320.619 992.771 319.565C988.374 311.622 984.01 304.346 979.656 298.35C976.201 293.591 972.68 289.536 969.071 286.596C972.726 285.677 975.761 283.951 978.765 282.243C979.277 281.952 979.788 281.662 980.301 281.376C985.208 278.641 990.758 275.984 1000.08 275.984C1009.29 275.984 1017.02 279.716 1023.86 285.177C1030.74 290.666 1036.59 297.8 1042.03 304.468C1052.87 317.751 1061.56 325.679 1068.37 328.544C1069.38 328.971 1070.55 328.496 1070.97 327.482C1071.4 326.468 1070.93 325.3 1069.91 324.873C1064.1 322.426 1055.96 315.226 1045.12 301.949C1039.72 295.337 1033.61 287.862 1026.35 282.063ZM995.262 324.108C1000.36 325.298 1005.42 327.426 1010.52 330.205C1018.23 334.41 1025.92 340.035 1033.88 345.989C1034.63 346.554 1035.39 347.122 1036.15 347.692C1039.13 349.924 1042.15 352.187 1045.22 354.415C1039.01 355.307 1032.68 354.862 1026.1 353.321C1013.98 350.486 1004.87 341.427 995.262 324.108ZM1054.68 356.198C1064.87 363.096 1075.43 368.911 1086.87 371.524C1107.27 376.187 1123.71 371.33 1130.29 367.848C1131.26 367.334 1132.47 367.706 1132.98 368.678C1133.5 369.651 1133.13 370.856 1132.15 371.371C1124.78 375.27 1107.37 380.297 1085.98 375.408C1072.88 372.416 1060.95 365.458 1049.72 357.624C1041.67 359.478 1033.55 359.156 1025.19 357.201C1011.06 353.893 1001.06 343.144 991.027 324.672C990.768 324.196 990.51 323.722 990.252 323.251C989.305 323.15 988.356 323.084 987.405 323.056C979.512 322.816 973.522 324.449 968.763 327.082C963.987 329.725 960.336 333.441 957.22 337.542C954.972 340.501 953.067 343.565 951.2 346.566C950.447 347.777 949.701 348.977 948.941 350.157C947.263 352.76 945.51 355.272 943.511 357.351C952.945 359.403 960.107 363.774 966.64 369.561C971.58 373.937 976.255 379.225 981.276 384.903C983.72 387.668 986.247 390.525 988.926 393.415C990.244 394.838 991.555 396.274 992.87 397.715C1008.28 414.61 1024.18 432.026 1057.52 432.026C1075.73 432.026 1089.74 427.324 1101.79 419.015C1113.89 410.669 1124.11 398.616 1134.57 383.736C1136.89 380.442 1139.45 376.496 1142.25 372.188C1142.95 371.124 1143.65 370.038 1144.37 368.934C1147.99 363.383 1151.95 357.42 1156.15 351.717C1163.34 341.963 1171.45 332.69 1180.08 327.62C1174 324.946 1169.41 321.397 1165.02 317.998C1163.94 317.157 1162.86 316.325 1161.78 315.518C1155.36 310.73 1148.31 306.469 1136 305.19C1123.72 303.914 1115.08 306.825 1107.2 312.431C1100.62 317.114 1094.61 323.633 1087.48 331.37C1085.9 333.089 1084.26 334.869 1082.55 336.701C1073.22 346.673 1064.05 352.965 1054.68 356.198Z" fill="white"/>
</svg>
