<svg width="548" height="284" viewBox="0 0 548 284" fill="none" xmlns="http://www.w3.org/2000/svg">
<path d="M188 195H136.109L130.906 151.828H71.4219L51.7344 195H0.828125L99.5469 0.09375H152.281L188 195ZM127.531 124.406L118.25 49.875L84.3594 124.406H127.531Z" fill="white"/>
<path d="M362.797 116.391C362.797 132.422 359.328 146.531 352.391 158.719C345.453 170.906 334.859 180.422 320.609 187.266C306.453 194.109 288.969 197.531 268.156 197.531C263 197.531 256.906 197.344 249.875 196.969C242.844 196.594 236.328 196.031 230.328 195.281C224.328 194.625 216.641 193.594 207.266 192.188L235.25 0.09375H281.938L272.375 65.625C281.938 54.75 293.562 49.3125 307.25 49.3125C314.469 49.3125 321.406 50.9531 328.062 54.2344C334.812 57.4219 340.766 61.9688 345.922 67.875C351.078 73.6875 355.156 80.8125 358.156 89.25C361.25 97.5938 362.797 106.641 362.797 116.391ZM313.859 116.672C313.859 107.672 311.75 101.016 307.531 96.7031C303.406 92.3906 298.438 90.2344 292.625 90.2344C283.344 90.2344 274.578 95.2969 266.328 105.422L258.594 157.875C261.688 158.25 266.188 158.438 272.094 158.438C299.938 158.438 313.859 144.516 313.859 116.672Z" fill="white"/>
<path d="M248.266 204.078C248.266 215.422 246.203 226.062 242.078 236C237.953 245.844 232.281 254.281 225.062 261.312C217.844 268.344 209.312 273.828 199.469 277.766C189.625 281.609 179.219 283.531 168.25 283.531C155.312 283.531 143.266 280.719 132.109 275.094C120.953 269.375 112.094 261.219 105.531 250.625C98.9688 240.031 95.6875 227.891 95.6875 214.203C95.6875 203.797 97.7969 193.812 102.016 184.25C106.234 174.594 112.094 166.109 119.594 158.797C127.188 151.391 136.047 145.625 146.172 141.5C156.297 137.375 167.125 135.312 178.656 135.312C190.75 135.312 202.094 137.891 212.688 143.047C223.281 148.109 231.859 155.797 238.422 166.109C244.984 176.422 248.266 189.078 248.266 204.078ZM200.453 203.234C200.453 194.516 198.109 187.719 193.422 182.844C188.828 177.969 182.922 175.531 175.703 175.531C168.203 175.531 162.062 177.734 157.281 182.141C152.5 186.547 148.984 191.891 146.734 198.172C144.578 204.359 143.5 210.172 143.5 215.609C143.5 223.391 145.797 229.953 150.391 235.297C154.984 240.641 161.125 243.312 168.812 243.312C174.906 243.312 180.391 241.344 185.266 237.406C190.141 233.469 193.891 228.406 196.516 222.219C199.141 215.938 200.453 209.609 200.453 203.234Z" fill="white"/>
<path d="M424.469 137.844L403.094 281H356.406L358.797 264.266C356.922 265.578 354.016 267.594 350.078 270.312C346.234 273.031 342.625 275.234 339.25 276.922C335.969 278.609 331.844 280.109 326.875 281.422C322 282.828 316.984 283.531 311.828 283.531C301.797 283.531 293.828 281.234 287.922 276.641C282.016 271.953 277.891 266.281 275.547 259.625C273.203 252.969 272.031 246.453 272.031 240.078C272.031 237.078 272.5 231.828 273.438 224.328L286.234 137.844H332.781L319.844 227.141C319.656 228.266 319.562 229.906 319.562 232.062C319.562 241.062 323.5 245.562 331.375 245.562C336.25 245.562 341.031 243.969 345.719 240.781C350.406 237.594 356.781 232.203 364.844 224.609L377.5 137.844H424.469Z" fill="white"/>
<path d="M547.797 137.844L540.344 173H512.641L503.219 219.688C502.469 223.625 502.094 226.719 502.094 228.969C502.094 236.938 505.609 240.922 512.641 240.922C520.234 240.922 529.469 236.891 540.344 228.828L537.672 272.141C524.828 279.734 511.328 283.531 497.172 283.531C490.984 283.531 484.938 282.453 479.031 280.297C473.125 278.047 467.734 273.969 462.859 268.062C457.047 261.219 454.141 252.219 454.141 241.062C454.141 236.094 454.656 230.891 455.688 225.453L465.391 173H438.953L445.281 137.844H472L477.484 109.297H524.734L519.25 137.844H547.797Z" fill="white"/>
</svg>
