<svg width="458" height="716" viewBox="0 0 458 716" fill="none" xmlns="http://www.w3.org/2000/svg">
<rect x="39.7059" y="83" width="395.294" height="632.219" fill="#E7F9FC" fill-opacity="0.4"/>
<path d="M224 59H410.294V330M410.294 662V435M339 690.117H15V128" stroke="white" stroke-width="2"/>
<path d="M383.648 678.879C383.086 679.301 382.559 679.805 382.066 680.391C382.543 680.688 382.945 681.016 383.273 681.375C383.602 681.727 383.863 682.086 384.059 682.453C384.262 682.82 384.406 683.184 384.492 683.543C384.578 683.902 384.621 684.234 384.621 684.539C384.621 685.305 384.477 685.973 384.188 686.543C383.898 687.105 383.516 687.574 383.039 687.949C382.57 688.324 382.027 688.605 381.41 688.793C380.801 688.973 380.168 689.062 379.512 689.062C378.777 689.062 378.055 688.98 377.344 688.816C377.016 689.512 376.66 690.203 376.277 690.891C375.895 691.578 375.477 692.238 375.023 692.871C374.578 693.496 374.09 694.082 373.559 694.629C373.035 695.168 372.469 695.633 371.859 696.023C371.258 696.422 370.605 696.734 369.902 696.961C369.199 697.188 368.449 697.301 367.652 697.301C366.879 697.301 366.164 697.176 365.508 696.926C364.852 696.676 364.285 696.312 363.809 695.836C363.332 695.352 362.961 694.766 362.695 694.078C362.43 693.383 362.297 692.59 362.297 691.699C362.297 690.543 362.492 689.43 362.883 688.359C363.281 687.289 363.824 686.289 364.512 685.359C365.207 684.43 366.023 683.586 366.961 682.828C367.898 682.07 368.91 681.422 369.996 680.883C371.082 680.344 372.219 679.926 373.406 679.629C374.594 679.332 375.781 679.184 376.969 679.184C377.898 679.184 378.723 679.262 379.441 679.418C380.168 679.566 380.809 679.766 381.363 680.016C381.676 679.742 382.004 679.488 382.348 679.254C382.691 679.012 383.062 678.797 383.461 678.609L383.648 678.879ZM376.359 687.844C376.719 687.094 377.074 686.375 377.426 685.688C377.777 684.992 378.133 684.336 378.492 683.719C378.859 683.094 379.238 682.512 379.629 681.973C380.02 681.426 380.441 680.922 380.895 680.461C380.379 680.258 379.816 680.109 379.207 680.016C378.605 679.922 377.961 679.875 377.273 679.875C376.328 679.875 375.402 679.988 374.496 680.215C373.59 680.441 372.715 680.754 371.871 681.152C371.035 681.543 370.234 682.008 369.469 682.547C368.711 683.086 368.004 683.672 367.348 684.305C366.699 684.938 366.109 685.602 365.578 686.297C365.055 686.984 364.605 687.68 364.23 688.383C363.863 689.086 363.578 689.781 363.375 690.469C363.18 691.148 363.082 691.797 363.082 692.414C363.082 693.016 363.191 693.578 363.41 694.102C363.629 694.617 363.93 695.066 364.312 695.449C364.703 695.832 365.164 696.133 365.695 696.352C366.234 696.57 366.824 696.68 367.465 696.68C368.457 696.68 369.348 696.484 370.137 696.094C370.926 695.703 371.656 695.148 372.328 694.43C373 693.703 373.637 692.832 374.238 691.816C374.84 690.801 375.453 689.668 376.078 688.418C375.266 688.098 374.512 687.688 373.816 687.188L374.004 686.859C374.379 687.047 374.758 687.227 375.141 687.398C375.531 687.562 375.938 687.711 376.359 687.844ZM383.391 683.871C383.391 683.176 383.238 682.582 382.934 682.09C382.637 681.598 382.219 681.188 381.68 680.859C380.969 681.781 380.289 682.855 379.641 684.082C379 685.301 378.336 686.66 377.648 688.16C377.875 688.199 378.102 688.23 378.328 688.254C378.555 688.27 378.785 688.277 379.02 688.277C379.613 688.277 380.172 688.172 380.695 687.961C381.227 687.75 381.691 687.453 382.09 687.07C382.488 686.68 382.805 686.215 383.039 685.676C383.273 685.137 383.391 684.535 383.391 683.871ZM391.723 688.207C391.621 688.41 391.477 688.676 391.289 689.004C391.109 689.332 390.914 689.695 390.703 690.094C390.492 690.484 390.277 690.895 390.059 691.324C389.848 691.754 389.652 692.176 389.473 692.59C389.301 692.996 389.156 693.383 389.039 693.75C388.93 694.109 388.875 694.414 388.875 694.664C388.875 694.914 388.922 695.078 389.016 695.156C389.117 695.227 389.246 695.262 389.402 695.262C389.629 695.262 389.859 695.195 390.094 695.062C390.336 694.93 390.57 694.758 390.797 694.547C391.031 694.336 391.258 694.098 391.477 693.832C391.695 693.566 391.898 693.301 392.086 693.035C392.281 692.762 392.457 692.504 392.613 692.262C392.77 692.012 392.902 691.801 393.012 691.629L393.434 691.957C393.301 692.207 393.145 692.477 392.965 692.766C392.785 693.055 392.586 693.348 392.367 693.645C392.156 693.934 391.926 694.215 391.676 694.488C391.426 694.762 391.16 695.004 390.879 695.215C390.605 695.426 390.316 695.594 390.012 695.719C389.707 695.844 389.395 695.906 389.074 695.906C388.605 695.906 388.262 695.766 388.043 695.484C387.824 695.203 387.715 694.84 387.715 694.395C387.715 694.363 387.715 694.297 387.715 694.195C387.723 694.086 387.734 694 387.75 693.938C387.359 694.43 386.984 694.836 386.625 695.156C386.273 695.477 385.93 695.73 385.594 695.918C385.266 696.105 384.945 696.234 384.633 696.305C384.328 696.383 384.035 696.422 383.754 696.422C383.457 696.422 383.176 696.371 382.91 696.27C382.652 696.176 382.426 696.035 382.23 695.848C382.027 695.66 381.871 695.43 381.762 695.156C381.645 694.883 381.586 694.566 381.586 694.207C381.586 693.762 381.688 693.254 381.891 692.684C382.086 692.105 382.438 691.484 382.945 690.82C383.375 690.25 383.82 689.77 384.281 689.379C384.75 688.988 385.207 688.676 385.652 688.441C386.105 688.199 386.535 688.027 386.941 687.926C387.348 687.824 387.711 687.773 388.031 687.773C388.75 687.773 389.293 687.895 389.66 688.137C390.027 688.371 390.25 688.734 390.328 689.227C390.484 689.031 390.648 688.836 390.82 688.641C390.992 688.445 391.168 688.246 391.348 688.043L391.723 688.207ZM388.125 692.66C388.227 692.496 388.352 692.289 388.5 692.039C388.648 691.781 388.805 691.52 388.969 691.254C389.133 690.98 389.293 690.719 389.449 690.469C389.605 690.219 389.742 690.008 389.859 689.836C389.859 689.766 389.848 689.652 389.824 689.496C389.809 689.34 389.758 689.184 389.672 689.027C389.586 688.863 389.449 688.723 389.262 688.605C389.074 688.488 388.812 688.43 388.477 688.43C388.234 688.43 387.961 688.469 387.656 688.547C387.359 688.617 387.039 688.742 386.695 688.922C386.359 689.094 386.012 689.324 385.652 689.613C385.293 689.902 384.934 690.262 384.574 690.691C384.035 691.34 383.617 691.992 383.32 692.648C383.031 693.297 382.887 693.883 382.887 694.406C382.887 694.852 382.988 695.195 383.191 695.438C383.395 695.68 383.684 695.801 384.059 695.801C384.488 695.801 384.891 695.707 385.266 695.52C385.641 695.324 385.992 695.074 386.32 694.77C386.648 694.465 386.961 694.129 387.258 693.762C387.555 693.387 387.844 693.02 388.125 692.66ZM397.113 685.781L394.453 691.125C394.922 690.523 395.414 689.965 395.93 689.449C396.445 688.926 396.973 688.5 397.512 688.172C397.91 687.938 398.262 687.777 398.566 687.691C398.871 687.598 399.16 687.551 399.434 687.551C399.699 687.551 399.918 687.594 400.09 687.68C400.262 687.766 400.398 687.879 400.5 688.02C400.602 688.16 400.672 688.316 400.711 688.488C400.75 688.652 400.77 688.816 400.77 688.98C400.77 689.348 400.707 689.711 400.582 690.07C400.457 690.43 400.301 690.785 400.113 691.137C399.934 691.488 399.734 691.836 399.516 692.18C399.297 692.516 399.094 692.848 398.906 693.176C398.727 693.496 398.574 693.812 398.449 694.125C398.324 694.438 398.262 694.738 398.262 695.027C398.262 695.168 398.277 695.285 398.309 695.379C398.348 695.465 398.395 695.535 398.449 695.59C398.512 695.637 398.578 695.668 398.648 695.684C398.719 695.699 398.789 695.707 398.859 695.707C399.008 695.707 399.18 695.641 399.375 695.508C399.578 695.367 399.793 695.188 400.02 694.969C400.246 694.742 400.477 694.488 400.711 694.207C400.953 693.918 401.184 693.625 401.402 693.328C401.629 693.023 401.84 692.727 402.035 692.438C402.23 692.141 402.402 691.871 402.551 691.629L402.984 691.957C402.898 692.129 402.77 692.355 402.598 692.637C402.434 692.918 402.238 693.223 402.012 693.551C401.785 693.871 401.535 694.195 401.262 694.523C400.996 694.844 400.715 695.137 400.418 695.402C400.121 695.668 399.816 695.883 399.504 696.047C399.199 696.219 398.898 696.305 398.602 696.305C398.398 696.305 398.203 696.273 398.016 696.211C397.828 696.148 397.664 696.055 397.523 695.93C397.383 695.797 397.27 695.629 397.184 695.426C397.098 695.223 397.055 694.98 397.055 694.699C397.055 694.363 397.121 693.977 397.254 693.539C397.395 693.102 397.66 692.602 398.051 692.039C398.371 691.578 398.648 691.195 398.883 690.891C399.117 690.578 399.309 690.309 399.457 690.082C399.613 689.848 399.727 689.637 399.797 689.449C399.867 689.254 399.902 689.039 399.902 688.805C399.902 688.602 399.844 688.445 399.727 688.336C399.609 688.227 399.477 688.172 399.328 688.172C398.93 688.172 398.52 688.285 398.098 688.512C397.676 688.738 397.258 689.039 396.844 689.414C396.43 689.781 396.023 690.203 395.625 690.68C395.227 691.156 394.848 691.645 394.488 692.145C394.137 692.637 393.809 693.121 393.504 693.598C393.207 694.074 392.949 694.504 392.73 694.887C392.512 695.262 392.344 695.566 392.227 695.801C392.102 696.027 392.035 696.145 392.027 696.152C391.699 696.824 391.379 697.473 391.066 698.098C390.754 698.73 390.461 699.328 390.188 699.891C389.906 700.453 389.648 700.965 389.414 701.426C389.18 701.895 388.977 702.301 388.805 702.645C388.633 702.988 388.5 703.258 388.406 703.453C388.305 703.648 388.25 703.75 388.242 703.758L386.965 703.031C387.605 701.82 388.184 700.727 388.699 699.75C389.215 698.773 389.707 697.852 390.176 696.984C390.645 696.125 391.105 695.289 391.559 694.477C392.012 693.664 392.492 692.816 393 691.934C393.508 691.043 394.059 690.09 394.652 689.074C395.254 688.051 395.938 686.898 396.703 685.617L397.113 685.781ZM407.824 685.605C407.824 685.762 407.785 685.926 407.707 686.098C407.629 686.262 407.527 686.41 407.402 686.543C407.285 686.676 407.152 686.785 407.004 686.871C406.855 686.957 406.707 687 406.559 687C406.426 687 406.324 686.953 406.254 686.859C406.184 686.758 406.148 686.637 406.148 686.496C406.148 686.371 406.172 686.223 406.219 686.051C406.266 685.879 406.336 685.719 406.43 685.57C406.523 685.414 406.637 685.281 406.77 685.172C406.902 685.062 407.055 685.008 407.227 685.008C407.391 685.008 407.531 685.07 407.648 685.195C407.766 685.32 407.824 685.457 407.824 685.605ZM405.633 688.207C405.531 688.41 405.387 688.68 405.199 689.016C405.02 689.344 404.824 689.707 404.613 690.105C404.402 690.496 404.188 690.91 403.969 691.348C403.75 691.777 403.551 692.199 403.371 692.613C403.199 693.02 403.059 693.402 402.949 693.762C402.84 694.121 402.785 694.426 402.785 694.676C402.785 694.902 402.832 695.059 402.926 695.145C403.02 695.223 403.152 695.262 403.324 695.262C403.645 695.262 403.957 695.156 404.262 694.945C404.566 694.734 404.867 694.461 405.164 694.125C405.469 693.781 405.766 693.391 406.055 692.953C406.344 692.516 406.633 692.074 406.922 691.629L407.344 691.957C407.117 692.363 406.859 692.797 406.57 693.258C406.289 693.719 405.973 694.148 405.621 694.547C405.27 694.938 404.883 695.262 404.461 695.52C404.039 695.777 403.578 695.906 403.078 695.906C402.609 695.906 402.25 695.766 402 695.484C401.75 695.203 401.625 694.84 401.625 694.395C401.625 693.871 401.746 693.324 401.988 692.754C402.23 692.184 402.531 691.621 402.891 691.066C403.258 690.504 403.652 689.965 404.074 689.449C404.504 688.934 404.898 688.465 405.258 688.043L405.633 688.207ZM407.812 693.328C407.797 693.422 407.785 693.516 407.777 693.609C407.77 693.703 407.766 693.797 407.766 693.891C407.766 694.172 407.805 694.441 407.883 694.699C407.969 694.949 408.09 695.172 408.246 695.367C408.41 695.555 408.609 695.703 408.844 695.812C409.086 695.922 409.359 695.977 409.664 695.977C410.688 695.977 411.676 695.629 412.629 694.934C413.582 694.238 414.531 693.137 415.477 691.629L415.875 691.98C415.359 692.84 414.836 693.566 414.305 694.16C413.773 694.746 413.242 695.223 412.711 695.59C412.188 695.957 411.672 696.223 411.164 696.387C410.656 696.551 410.172 696.633 409.711 696.633C409.375 696.633 409.02 696.586 408.645 696.492C408.27 696.398 407.922 696.242 407.602 696.023C407.289 695.805 407.031 695.512 406.828 695.145C406.617 694.777 406.512 694.32 406.512 693.773C406.512 693.188 406.613 692.625 406.816 692.086C407.012 691.539 407.27 691.031 407.59 690.562C407.91 690.094 408.277 689.668 408.691 689.285C409.105 688.895 409.523 688.562 409.945 688.289C410.375 688.016 410.793 687.805 411.199 687.656C411.605 687.5 411.965 687.422 412.277 687.422C412.48 687.422 412.688 687.453 412.898 687.516C413.109 687.578 413.297 687.676 413.461 687.809C413.633 687.941 413.77 688.117 413.871 688.336C413.98 688.555 414.035 688.816 414.035 689.121C414.035 689.535 413.938 689.926 413.742 690.293C413.555 690.652 413.301 690.988 412.98 691.301C412.66 691.605 412.289 691.883 411.867 692.133C411.445 692.375 411.004 692.582 410.543 692.754C410.082 692.926 409.617 693.062 409.148 693.164C408.68 693.266 408.234 693.32 407.812 693.328ZM407.906 692.824C408.43 692.77 408.922 692.66 409.383 692.496C409.844 692.332 410.266 692.133 410.648 691.898C411.031 691.656 411.371 691.395 411.668 691.113C411.973 690.832 412.227 690.547 412.43 690.258C412.633 689.969 412.789 689.691 412.898 689.426C413.008 689.16 413.062 688.922 413.062 688.711C413.062 688.5 413.004 688.332 412.887 688.207C412.777 688.082 412.645 688.02 412.488 688.02C412.145 688.02 411.758 688.145 411.328 688.395C410.898 688.637 410.469 688.977 410.039 689.414C409.609 689.844 409.203 690.352 408.82 690.938C408.445 691.523 408.141 692.152 407.906 692.824ZM422.871 691.957C422.754 692.129 422.613 692.363 422.449 692.66C422.293 692.949 422.109 693.266 421.898 693.609C421.688 693.945 421.453 694.289 421.195 694.641C420.945 694.992 420.668 695.309 420.363 695.59C420.066 695.871 419.742 696.102 419.391 696.281C419.039 696.461 418.664 696.551 418.266 696.551C418.047 696.551 417.84 696.516 417.645 696.445C417.449 696.383 417.277 696.281 417.129 696.141C416.98 696 416.863 695.828 416.777 695.625C416.691 695.414 416.648 695.168 416.648 694.887C416.648 694.504 416.723 694.105 416.871 693.691C417.027 693.27 417.207 692.863 417.41 692.473C417.613 692.082 417.816 691.727 418.02 691.406C418.223 691.078 418.371 690.816 418.465 690.621C418.559 690.426 418.605 690.258 418.605 690.117C418.605 690.016 418.57 689.926 418.5 689.848C418.438 689.77 418.355 689.695 418.254 689.625C418.16 689.547 418.059 689.469 417.949 689.391C417.848 689.305 417.762 689.203 417.691 689.086C417.496 689.398 417.297 689.715 417.094 690.035C416.914 690.309 416.719 690.617 416.508 690.961C416.297 691.297 416.094 691.629 415.898 691.957L415.477 691.629L417.984 687.703L418.324 687.879C418.309 687.926 418.281 688 418.242 688.102C418.211 688.203 418.195 688.312 418.195 688.43C418.195 688.516 418.207 688.602 418.23 688.688C418.262 688.766 418.32 688.84 418.406 688.91C418.719 689.191 418.965 689.41 419.145 689.566C419.324 689.715 419.453 689.836 419.531 689.93C419.617 690.016 419.668 690.09 419.684 690.152C419.707 690.207 419.719 690.281 419.719 690.375C419.719 690.469 419.703 690.582 419.672 690.715C419.641 690.848 419.586 691.008 419.508 691.195C419.438 691.383 419.336 691.605 419.203 691.863C419.078 692.113 418.918 692.406 418.723 692.742C418.605 692.945 418.488 693.152 418.371 693.363C418.262 693.566 418.16 693.773 418.066 693.984C417.98 694.195 417.91 694.406 417.855 694.617C417.801 694.828 417.773 695.031 417.773 695.227C417.773 695.375 417.793 695.496 417.832 695.59C417.879 695.676 417.938 695.742 418.008 695.789C418.078 695.836 418.152 695.867 418.23 695.883C418.316 695.898 418.398 695.906 418.477 695.906C418.734 695.906 418.988 695.832 419.238 695.684C419.496 695.527 419.746 695.328 419.988 695.086C420.238 694.844 420.477 694.57 420.703 694.266C420.938 693.953 421.16 693.637 421.371 693.316C421.582 692.996 421.777 692.691 421.957 692.402C422.137 692.105 422.297 691.848 422.438 691.629L422.871 691.957ZM429.117 690.68C428.82 690.609 428.562 690.512 428.344 690.387C428.133 690.254 427.961 690.105 427.828 689.941C427.695 689.777 427.598 689.605 427.535 689.426C427.473 689.238 427.441 689.055 427.441 688.875C427.441 688.484 427.551 688.184 427.77 687.973C427.988 687.754 428.262 687.645 428.59 687.645C428.809 687.645 428.996 687.703 429.152 687.82C429.309 687.93 429.438 688.078 429.539 688.266C429.641 688.453 429.715 688.672 429.762 688.922C429.809 689.164 429.832 689.418 429.832 689.684C429.832 689.863 429.824 690.043 429.809 690.223C429.793 690.395 429.766 690.57 429.727 690.75C429.539 691.594 429.262 692.359 428.895 693.047C428.535 693.727 428.125 694.312 427.664 694.805C427.211 695.289 426.727 695.664 426.211 695.93C425.695 696.188 425.191 696.316 424.699 696.316C424.363 696.316 424.043 696.27 423.738 696.176C423.441 696.082 423.176 695.926 422.941 695.707C422.715 695.488 422.535 695.203 422.402 694.852C422.27 694.492 422.203 694.051 422.203 693.527C422.203 692.879 422.328 692.105 422.578 691.207C422.836 690.309 423.27 689.254 423.879 688.043C424.754 686.348 425.633 684.828 426.516 683.484C426.891 682.914 427.285 682.355 427.699 681.809C428.113 681.262 428.527 680.773 428.941 680.344C429.363 679.914 429.777 679.57 430.184 679.312C430.598 679.047 430.988 678.914 431.355 678.914C431.402 678.914 431.484 678.922 431.602 678.938C431.727 678.953 431.852 678.996 431.977 679.066C432.102 679.129 432.211 679.23 432.305 679.371C432.406 679.504 432.457 679.691 432.457 679.934C432.457 680.223 432.379 680.59 432.223 681.035C432.074 681.473 431.848 681.961 431.543 682.5C431.246 683.031 430.875 683.602 430.43 684.211C429.992 684.812 429.484 685.418 428.906 686.027C428.336 686.637 427.699 687.234 426.996 687.82C426.301 688.406 425.543 688.953 424.723 689.461C424.449 690.055 424.219 690.594 424.031 691.078C423.852 691.555 423.707 691.988 423.598 692.379C423.488 692.762 423.41 693.102 423.363 693.398C423.316 693.695 423.293 693.953 423.293 694.172C423.293 694.477 423.332 694.73 423.41 694.934C423.496 695.129 423.609 695.285 423.75 695.402C423.891 695.512 424.051 695.59 424.23 695.637C424.41 695.684 424.598 695.707 424.793 695.707C425.16 695.707 425.516 695.613 425.859 695.426C426.211 695.238 426.543 694.996 426.855 694.699C427.168 694.395 427.453 694.055 427.711 693.68C427.977 693.305 428.207 692.934 428.402 692.566C428.598 692.191 428.758 691.84 428.883 691.512C429.008 691.176 429.086 690.898 429.117 690.68ZM425.215 688.395C425.934 687.902 426.594 687.383 427.195 686.836C427.805 686.289 428.355 685.742 428.848 685.195C429.34 684.641 429.773 684.102 430.148 683.578C430.523 683.047 430.836 682.551 431.086 682.09C431.336 681.629 431.523 681.219 431.648 680.859C431.781 680.492 431.848 680.195 431.848 679.969C431.848 679.766 431.773 679.664 431.625 679.664C431.344 679.664 431.004 679.816 430.605 680.121C430.215 680.426 429.758 680.922 429.234 681.609C428.719 682.297 428.125 683.195 427.453 684.305C426.789 685.414 426.043 686.777 425.215 688.395ZM429.199 690.07C429.207 690 429.211 689.93 429.211 689.859C429.219 689.789 429.223 689.723 429.223 689.66C429.223 689.238 429.168 688.898 429.059 688.641C428.949 688.383 428.793 688.254 428.59 688.254C428.543 688.254 428.488 688.262 428.426 688.277C428.371 688.285 428.312 688.312 428.25 688.359C428.195 688.398 428.148 688.457 428.109 688.535C428.07 688.613 428.051 688.715 428.051 688.84C428.051 689.16 428.16 689.426 428.379 689.637C428.605 689.84 428.879 689.984 429.199 690.07ZM436.137 685.605C436.137 685.762 436.098 685.926 436.02 686.098C435.941 686.262 435.84 686.41 435.715 686.543C435.598 686.676 435.465 686.785 435.316 686.871C435.168 686.957 435.02 687 434.871 687C434.738 687 434.637 686.953 434.566 686.859C434.496 686.758 434.461 686.637 434.461 686.496C434.461 686.371 434.484 686.223 434.531 686.051C434.578 685.879 434.648 685.719 434.742 685.57C434.836 685.414 434.949 685.281 435.082 685.172C435.215 685.062 435.367 685.008 435.539 685.008C435.703 685.008 435.844 685.07 435.961 685.195C436.078 685.32 436.137 685.457 436.137 685.605ZM433.945 688.207C433.844 688.41 433.699 688.68 433.512 689.016C433.332 689.344 433.137 689.707 432.926 690.105C432.715 690.496 432.5 690.91 432.281 691.348C432.062 691.777 431.863 692.199 431.684 692.613C431.512 693.02 431.371 693.402 431.262 693.762C431.152 694.121 431.098 694.426 431.098 694.676C431.098 694.902 431.145 695.059 431.238 695.145C431.332 695.223 431.465 695.262 431.637 695.262C431.957 695.262 432.27 695.156 432.574 694.945C432.879 694.734 433.18 694.461 433.477 694.125C433.781 693.781 434.078 693.391 434.367 692.953C434.656 692.516 434.945 692.074 435.234 691.629L435.656 691.957C435.43 692.363 435.172 692.797 434.883 693.258C434.602 693.719 434.285 694.148 433.934 694.547C433.582 694.938 433.195 695.262 432.773 695.52C432.352 695.777 431.891 695.906 431.391 695.906C430.922 695.906 430.562 695.766 430.312 695.484C430.062 695.203 429.938 694.84 429.938 694.395C429.938 693.871 430.059 693.324 430.301 692.754C430.543 692.184 430.844 691.621 431.203 691.066C431.57 690.504 431.965 689.965 432.387 689.449C432.816 688.934 433.211 688.465 433.57 688.043L433.945 688.207ZM442.629 691.957C442.512 692.129 442.371 692.363 442.207 692.66C442.051 692.949 441.867 693.266 441.656 693.609C441.445 693.945 441.211 694.289 440.953 694.641C440.703 694.992 440.426 695.309 440.121 695.59C439.824 695.871 439.5 696.102 439.148 696.281C438.797 696.461 438.422 696.551 438.023 696.551C437.805 696.551 437.598 696.516 437.402 696.445C437.207 696.383 437.035 696.281 436.887 696.141C436.738 696 436.621 695.828 436.535 695.625C436.449 695.414 436.406 695.168 436.406 694.887C436.406 694.504 436.48 694.105 436.629 693.691C436.785 693.27 436.965 692.863 437.168 692.473C437.371 692.082 437.574 691.727 437.777 691.406C437.98 691.078 438.129 690.816 438.223 690.621C438.316 690.426 438.363 690.258 438.363 690.117C438.363 690.016 438.328 689.926 438.258 689.848C438.195 689.77 438.113 689.695 438.012 689.625C437.918 689.547 437.816 689.469 437.707 689.391C437.605 689.305 437.52 689.203 437.449 689.086C437.254 689.398 437.055 689.715 436.852 690.035C436.672 690.309 436.477 690.617 436.266 690.961C436.055 691.297 435.852 691.629 435.656 691.957L435.234 691.629L437.742 687.703L438.082 687.879C438.066 687.926 438.039 688 438 688.102C437.969 688.203 437.953 688.312 437.953 688.43C437.953 688.516 437.965 688.602 437.988 688.688C438.02 688.766 438.078 688.84 438.164 688.91C438.477 689.191 438.723 689.41 438.902 689.566C439.082 689.715 439.211 689.836 439.289 689.93C439.375 690.016 439.426 690.09 439.441 690.152C439.465 690.207 439.477 690.281 439.477 690.375C439.477 690.469 439.461 690.582 439.43 690.715C439.398 690.848 439.344 691.008 439.266 691.195C439.195 691.383 439.094 691.605 438.961 691.863C438.836 692.113 438.676 692.406 438.48 692.742C438.363 692.945 438.246 693.152 438.129 693.363C438.02 693.566 437.918 693.773 437.824 693.984C437.738 694.195 437.668 694.406 437.613 694.617C437.559 694.828 437.531 695.031 437.531 695.227C437.531 695.375 437.551 695.496 437.59 695.59C437.637 695.676 437.695 695.742 437.766 695.789C437.836 695.836 437.91 695.867 437.988 695.883C438.074 695.898 438.156 695.906 438.234 695.906C438.492 695.906 438.746 695.832 438.996 695.684C439.254 695.527 439.504 695.328 439.746 695.086C439.996 694.844 440.234 694.57 440.461 694.266C440.695 693.953 440.918 693.637 441.129 693.316C441.34 692.996 441.535 692.691 441.715 692.402C441.895 692.105 442.055 691.848 442.195 691.629L442.629 691.957ZM455.262 680.602C455.176 680.727 455.035 680.934 454.84 681.223C454.645 681.512 454.418 681.855 454.16 682.254C453.902 682.652 453.621 683.094 453.316 683.578C453.02 684.062 452.719 684.562 452.414 685.078C452.117 685.594 451.824 686.117 451.535 686.648C451.254 687.172 451.004 687.676 450.785 688.16C450.441 688.91 450.156 689.582 449.93 690.176C449.711 690.762 449.535 691.285 449.402 691.746C449.277 692.207 449.188 692.609 449.133 692.953C449.086 693.289 449.062 693.578 449.062 693.82C449.062 694.266 449.129 694.574 449.262 694.746C449.402 694.918 449.59 695.004 449.824 695.004C450.066 695.004 450.297 694.941 450.516 694.816C450.742 694.691 450.957 694.531 451.16 694.336C451.371 694.141 451.566 693.918 451.746 693.668C451.934 693.418 452.105 693.168 452.262 692.918C452.426 692.668 452.574 692.43 452.707 692.203C452.84 691.977 452.957 691.785 453.059 691.629L453.48 691.957C453.395 692.098 453.285 692.285 453.152 692.52C453.027 692.746 452.883 692.996 452.719 693.27C452.555 693.543 452.367 693.82 452.156 694.102C451.945 694.375 451.711 694.625 451.453 694.852C451.203 695.078 450.922 695.266 450.609 695.414C450.305 695.555 449.973 695.625 449.613 695.625C449.441 695.625 449.258 695.602 449.062 695.555C448.875 695.508 448.699 695.426 448.535 695.309C448.371 695.191 448.227 695.031 448.102 694.828C447.977 694.617 447.895 694.352 447.855 694.031C447.27 694.664 446.699 695.145 446.145 695.473C445.59 695.793 445.066 695.953 444.574 695.953C444.324 695.953 444.047 695.91 443.742 695.824C443.445 695.738 443.164 695.59 442.898 695.379C442.633 695.168 442.41 694.891 442.23 694.547C442.051 694.195 441.961 693.762 441.961 693.246C441.961 692.668 442.051 692.117 442.23 691.594C442.41 691.07 442.652 690.586 442.957 690.141C443.262 689.688 443.609 689.281 444 688.922C444.398 688.555 444.812 688.246 445.242 687.996C445.672 687.738 446.102 687.539 446.531 687.398C446.969 687.258 447.379 687.188 447.762 687.188C448.27 687.188 448.668 687.25 448.957 687.375C449.246 687.5 449.465 687.625 449.613 687.75C449.723 687.531 449.871 687.254 450.059 686.918C450.246 686.574 450.465 686.195 450.715 685.781C450.965 685.359 451.242 684.914 451.547 684.445C451.852 683.969 452.176 683.492 452.52 683.016C452.863 682.531 453.223 682.055 453.598 681.586C453.98 681.117 454.367 680.68 454.758 680.273L455.262 680.602ZM447.844 693.152C447.883 692.574 448.016 691.895 448.242 691.113C448.477 690.324 448.832 689.418 449.309 688.395C449.199 688.23 449.043 688.105 448.84 688.02C448.645 687.926 448.422 687.879 448.172 687.879C447.789 687.879 447.398 687.957 447 688.113C446.609 688.27 446.23 688.48 445.863 688.746C445.504 689.012 445.164 689.328 444.844 689.695C444.523 690.055 444.242 690.441 444 690.855C443.766 691.27 443.578 691.703 443.438 692.156C443.305 692.602 443.238 693.043 443.238 693.48C443.238 694.066 443.359 694.523 443.602 694.852C443.852 695.18 444.184 695.344 444.598 695.344C444.793 695.344 445.008 695.305 445.242 695.227C445.477 695.148 445.73 695.023 446.004 694.852C446.285 694.672 446.578 694.445 446.883 694.172C447.188 693.891 447.508 693.551 447.844 693.152ZM455.016 695.262C455.016 695.496 454.93 695.699 454.758 695.871C454.594 696.035 454.391 696.117 454.148 696.117C453.922 696.117 453.723 696.035 453.551 695.871C453.387 695.699 453.305 695.496 453.305 695.262C453.305 695.035 453.387 694.84 453.551 694.676C453.723 694.504 453.922 694.418 454.148 694.418C454.391 694.418 454.594 694.504 454.758 694.676C454.93 694.84 455.016 695.035 455.016 695.262Z" fill="white"/>
<path d="M100.833 105.628H72.8788L70.0758 82.2315H38.0303L27.4242 105.628H0L53.1818 0H81.5909L100.833 105.628ZM68.2576 67.3704L63.2576 26.9786L45 67.3704H68.2576Z" fill="white"/>
<path d="M195 63.0264C195 71.7144 193.131 79.3609 189.394 85.9658C185.657 92.5708 179.949 97.7277 172.273 101.437C164.646 105.146 155.227 107 144.015 107C141.237 107 137.955 106.898 134.167 106.695C130.379 106.492 126.869 106.187 123.636 105.781C120.404 105.425 116.263 104.866 111.212 104.104L126.288 0H151.439L146.288 35.5142C151.439 29.6206 157.702 26.6738 165.076 26.6738C168.965 26.6738 172.702 27.5629 176.288 29.3412C179.924 31.0686 183.131 33.5328 185.909 36.7336C188.687 39.8837 190.884 43.745 192.5 48.3177C194.167 52.8395 195 57.7424 195 63.0264ZM168.636 63.1788C168.636 58.3013 167.5 54.694 165.227 52.3568C163.005 50.0197 160.328 48.8511 157.197 48.8511C152.197 48.8511 147.475 51.5947 143.03 57.0819L138.864 85.5085C140.53 85.7118 142.955 85.8134 146.136 85.8134C161.136 85.8134 168.636 78.2685 168.636 63.1788Z" fill="white"/>
<path d="M133.345 110.135C133.345 116.255 132.232 121.995 130.006 127.357C127.78 132.667 124.719 137.22 120.823 141.013C116.927 144.806 112.323 147.765 107.01 149.889C101.697 151.963 96.0812 153 90.1614 153C83.1792 153 76.6776 151.483 70.6566 148.448C64.6357 145.363 59.8543 140.962 56.3126 135.247C52.7709 129.532 51 122.982 51 115.597C51 109.983 52.1384 104.596 54.4152 99.4374C56.6921 94.2279 59.8543 89.6505 63.902 85.7054C68.0003 81.7097 72.7816 78.5991 78.246 76.3737C83.7104 74.1482 89.5543 73.0355 95.7776 73.0355C102.305 73.0355 108.427 74.4264 114.144 77.2082C119.861 79.9395 124.491 84.0869 128.033 89.6505C131.574 95.2141 133.345 102.042 133.345 110.135ZM107.541 109.68C107.541 104.976 106.276 101.309 103.746 98.6788C101.267 96.0487 98.0797 94.7337 94.1838 94.7337C90.1361 94.7337 86.8221 95.9222 84.2417 98.2994C81.6613 100.677 79.7639 103.56 78.5496 106.948C77.3859 110.287 76.804 113.422 76.804 116.356C76.804 120.554 78.0436 124.094 80.5229 126.977C83.0021 129.86 86.3161 131.302 90.465 131.302C93.7538 131.302 96.7136 130.24 99.3446 128.115C101.976 125.991 103.999 123.26 105.416 119.922C106.833 116.533 107.541 113.119 107.541 109.68Z" fill="white"/>
<path d="M228.441 74.4011L216.905 151.634H191.708L192.998 142.606C191.986 143.314 190.418 144.402 188.293 145.868C186.218 147.335 184.27 148.524 182.449 149.434C180.678 150.345 178.452 151.154 175.77 151.862C173.139 152.621 170.432 153 167.649 153C162.236 153 157.935 151.761 154.747 149.282C151.56 146.754 149.334 143.694 148.069 140.102C146.804 136.511 146.171 132.996 146.171 129.557C146.171 127.938 146.424 125.106 146.93 121.06L153.837 74.4011H178.958L171.975 122.577C171.874 123.184 171.824 124.069 171.824 125.232C171.824 130.088 173.949 132.516 178.199 132.516C180.83 132.516 183.41 131.656 185.94 129.936C188.47 128.217 191.91 125.308 196.262 121.211L203.092 74.4011H228.441Z" fill="white"/>
<path d="M295 74.4011L290.978 93.368H276.026L270.942 118.556C270.537 120.68 270.334 122.349 270.334 123.563C270.334 127.863 272.232 130.012 276.026 130.012C280.125 130.012 285.108 127.837 290.978 123.487L289.536 146.855C282.604 150.952 275.318 153 267.678 153C264.339 153 261.075 152.418 257.888 151.255C254.7 150.041 251.791 147.841 249.16 144.655C246.023 140.962 244.454 136.107 244.454 130.088C244.454 127.407 244.733 124.6 245.289 121.667L250.526 93.368H236.258L239.673 74.4011H254.093L257.053 59H282.553L279.593 74.4011H295Z" fill="white"/>
<path d="M374.784 371.597C374.784 372.949 375.88 374.045 377.231 374.045C378.583 374.045 379.679 372.949 379.679 371.597C379.679 370.246 378.583 369.15 377.231 369.15C375.88 369.15 374.784 370.246 374.784 371.597Z" fill="white"/>
<path fill-rule="evenodd" clip-rule="evenodd" d="M395.668 346.905C392.836 344.644 389.504 343 385.475 343C381.493 343 379.073 344.159 377.048 345.288C376.843 345.402 376.645 345.514 376.45 345.624C374.723 346.6 373.345 347.38 371.305 347.38C370.95 347.38 370.64 347.622 370.555 347.968C370.47 348.313 370.631 348.672 370.946 348.837C372.652 349.732 374.434 351.563 376.3 354.132C377.768 356.154 379.253 358.584 380.765 361.27C380.712 361.268 380.658 361.266 380.604 361.264C377.29 361.164 374.687 361.851 372.576 363.019C370.472 364.184 368.901 365.801 367.615 367.495C366.695 368.705 365.896 369.991 365.158 371.177C364.875 371.632 364.602 372.072 364.334 372.487C363.338 374.032 362.423 375.241 361.348 375.948C361.079 376.125 360.948 376.451 361.019 376.765C361.091 377.08 361.35 377.317 361.67 377.36C365.801 377.914 368.749 379.596 371.475 382.011C373.322 383.647 375.031 385.581 376.937 387.737C377.898 388.825 378.909 389.969 380.014 391.16C380.524 391.71 381.034 392.271 381.549 392.836C387.526 399.396 394.122 406.636 407.761 406.636C415.124 406.636 420.872 404.725 425.817 401.315C430.741 397.919 434.829 393.063 438.923 387.243C439.84 385.939 440.855 384.377 441.943 382.703C442.21 382.293 442.48 381.876 442.755 381.455C444.157 379.305 445.672 377.022 447.276 374.847C450.511 370.459 454.004 366.655 457.523 365.199C457.821 365.075 458.012 364.778 457.999 364.455C457.987 364.132 457.775 363.851 457.468 363.75C454.507 362.78 452.543 361.263 450.47 359.662C450.034 359.325 449.594 358.985 449.139 358.646C446.51 356.685 443.514 354.874 438.371 354.34C433.216 353.805 429.491 355.044 426.142 357.428C423.445 359.347 420.978 362.025 418.207 365.035C417.602 365.692 416.982 366.364 416.343 367.048C412.79 370.847 409.384 373.128 405.997 374.262C405.681 374.368 405.364 374.464 405.048 374.55C403.453 373.42 401.878 372.24 400.309 371.064C400.044 370.866 399.78 370.668 399.515 370.47C396.435 368.166 393.37 365.918 390.264 364.226C387.79 362.878 385.259 361.864 382.639 361.455C380.933 358.374 379.24 355.55 377.551 353.224C376.21 351.377 374.844 349.804 373.444 348.663C374.862 348.307 376.039 347.637 377.205 346.974C377.403 346.862 377.602 346.749 377.801 346.638C379.705 345.577 381.858 344.546 385.475 344.546C389.047 344.546 392.05 345.994 394.704 348.113C397.371 350.243 399.64 353.01 401.752 355.598C405.959 360.752 409.329 363.827 411.97 364.939C412.363 365.105 412.816 364.92 412.982 364.527C413.148 364.133 412.963 363.68 412.57 363.515C410.315 362.565 407.155 359.772 402.949 354.62C400.855 352.055 398.486 349.154 395.668 346.905ZM383.606 363.218C385.583 363.68 387.546 364.505 389.524 365.584C392.519 367.215 395.501 369.397 398.589 371.708C398.882 371.927 399.176 372.147 399.471 372.368C400.626 373.235 401.797 374.113 402.988 374.977C400.578 375.323 398.124 375.15 395.571 374.553C390.869 373.452 387.335 369.938 383.606 363.218ZM406.661 375.669C410.615 378.345 414.712 380.602 419.148 381.615C427.064 383.424 433.442 381.54 435.997 380.189C436.375 379.99 436.842 380.134 437.042 380.511C437.241 380.889 437.097 381.356 436.72 381.556C433.858 383.069 427.103 385.019 418.803 383.122C413.723 381.961 409.091 379.262 404.735 376.222C401.61 376.942 398.46 376.817 395.218 376.058C389.734 374.774 385.856 370.604 381.962 363.437C381.862 363.252 381.762 363.068 381.662 362.885C381.294 362.846 380.926 362.821 380.557 362.81C377.495 362.717 375.17 363.35 373.324 364.372C371.471 365.397 370.054 366.839 368.845 368.43C367.973 369.578 367.234 370.767 366.51 371.932C366.218 372.401 365.928 372.867 365.633 373.325C364.982 374.335 364.302 375.31 363.526 376.116C367.187 376.912 369.965 378.608 372.5 380.854C374.417 382.552 376.231 384.603 378.179 386.806C379.128 387.879 380.108 388.988 381.147 390.109C381.659 390.661 382.167 391.219 382.677 391.778C388.658 398.333 394.824 405.09 407.761 405.09C414.826 405.09 420.265 403.266 424.939 400.042C429.635 396.803 433.598 392.127 437.659 386.353C438.558 385.076 439.552 383.545 440.639 381.873C440.907 381.46 441.181 381.039 441.46 380.611C442.865 378.457 444.4 376.143 446.032 373.93C448.821 370.146 451.967 366.548 455.316 364.581C452.955 363.543 451.177 362.166 449.473 360.847C449.052 360.521 448.635 360.198 448.215 359.885C445.723 358.027 442.987 356.374 438.211 355.878C433.446 355.383 430.094 356.512 427.038 358.687C424.485 360.504 422.154 363.034 419.387 366.036C418.773 366.703 418.137 367.393 417.472 368.104C413.853 371.973 410.295 374.414 406.661 375.669Z" fill="white"/>
</svg>
