<svg width="185" height="171" viewBox="0 0 185 171" fill="none" xmlns="http://www.w3.org/2000/svg">
<path d="M53.7227 126.318C52.8789 126.951 52.0879 127.707 51.3496 128.586C52.0645 129.031 52.668 129.523 53.1602 130.062C53.6523 130.59 54.0449 131.129 54.3379 131.68C54.6426 132.23 54.8594 132.775 54.9883 133.314C55.1172 133.854 55.1816 134.352 55.1816 134.809C55.1816 135.957 54.9648 136.959 54.5312 137.814C54.0977 138.658 53.5234 139.361 52.8086 139.924C52.1055 140.486 51.291 140.908 50.3652 141.189C49.4512 141.459 48.502 141.594 47.5176 141.594C46.416 141.594 45.332 141.471 44.2656 141.225C43.7734 142.268 43.2402 143.305 42.666 144.336C42.0918 145.367 41.4648 146.357 40.7852 147.307C40.1172 148.244 39.3848 149.123 38.5879 149.943C37.8027 150.752 36.9531 151.449 36.0391 152.035C35.1367 152.633 34.1582 153.102 33.1035 153.441C32.0488 153.781 30.9238 153.951 29.7285 153.951C28.5684 153.951 27.4961 153.764 26.5117 153.389C25.5273 153.014 24.6777 152.469 23.9629 151.754C23.248 151.027 22.6914 150.148 22.293 149.117C21.8945 148.074 21.6953 146.885 21.6953 145.549C21.6953 143.814 21.9883 142.145 22.5742 140.539C23.1719 138.934 23.9863 137.434 25.0176 136.039C26.0605 134.645 27.2852 133.379 28.6914 132.242C30.0977 131.105 31.6152 130.133 33.2441 129.324C34.873 128.516 36.5781 127.889 38.3594 127.443C40.1406 126.998 41.9219 126.775 43.7031 126.775C45.0977 126.775 46.334 126.893 47.4121 127.127C48.502 127.35 49.4629 127.648 50.2949 128.023C50.7637 127.613 51.2559 127.232 51.7715 126.881C52.2871 126.518 52.8438 126.195 53.4414 125.914L53.7227 126.318ZM42.7891 139.766C43.3281 138.641 43.8613 137.562 44.3887 136.531C44.916 135.488 45.4492 134.504 45.9883 133.578C46.5391 132.641 47.1074 131.768 47.6934 130.959C48.2793 130.139 48.9121 129.383 49.5918 128.691C48.8184 128.387 47.9746 128.164 47.0605 128.023C46.1582 127.883 45.1914 127.812 44.1602 127.812C42.7422 127.812 41.3535 127.982 39.9941 128.322C38.6348 128.662 37.3223 129.131 36.0566 129.729C34.8027 130.314 33.6016 131.012 32.4531 131.82C31.3164 132.629 30.2559 133.508 29.2715 134.457C28.2988 135.406 27.4141 136.402 26.6172 137.445C25.832 138.477 25.1582 139.52 24.5957 140.574C24.0449 141.629 23.6172 142.672 23.3125 143.703C23.0195 144.723 22.873 145.695 22.873 146.621C22.873 147.523 23.0371 148.367 23.3652 149.152C23.6934 149.926 24.1445 150.6 24.7188 151.174C25.3047 151.748 25.9961 152.199 26.793 152.527C27.6016 152.855 28.4863 153.02 29.4473 153.02C30.9355 153.02 32.2715 152.727 33.4551 152.141C34.6387 151.555 35.7344 150.723 36.7422 149.645C37.75 148.555 38.7051 147.248 39.6074 145.725C40.5098 144.201 41.4297 142.502 42.3672 140.627C41.1484 140.146 40.0176 139.531 38.9746 138.781L39.2559 138.289C39.8184 138.57 40.3867 138.84 40.9609 139.098C41.5469 139.344 42.1562 139.566 42.7891 139.766ZM53.3359 133.807C53.3359 132.764 53.1074 131.873 52.6504 131.135C52.2051 130.396 51.5781 129.781 50.7695 129.289C49.7031 130.672 48.6836 132.283 47.7109 134.123C46.75 135.951 45.7539 137.99 44.7227 140.24C45.0625 140.299 45.4023 140.346 45.7422 140.381C46.082 140.404 46.4277 140.416 46.7793 140.416C47.6699 140.416 48.5078 140.258 49.293 139.941C50.0898 139.625 50.7871 139.18 51.3848 138.605C51.9824 138.02 52.457 137.322 52.8086 136.514C53.1602 135.705 53.3359 134.803 53.3359 133.807ZM65.834 140.311C65.6816 140.615 65.4648 141.014 65.1836 141.506C64.9141 141.998 64.6211 142.543 64.3047 143.141C63.9883 143.727 63.666 144.342 63.3379 144.986C63.0215 145.631 62.7285 146.264 62.459 146.885C62.2012 147.494 61.9844 148.074 61.8086 148.625C61.6445 149.164 61.5625 149.621 61.5625 149.996C61.5625 150.371 61.6328 150.617 61.7734 150.734C61.9258 150.84 62.1191 150.893 62.3535 150.893C62.6934 150.893 63.0391 150.793 63.3906 150.594C63.7539 150.395 64.1055 150.137 64.4453 149.82C64.7969 149.504 65.1367 149.146 65.4648 148.748C65.793 148.35 66.0977 147.951 66.3789 147.553C66.6719 147.143 66.9355 146.756 67.1699 146.393C67.4043 146.018 67.6035 145.701 67.7676 145.443L68.4004 145.936C68.2012 146.311 67.9668 146.715 67.6973 147.148C67.4277 147.582 67.1289 148.021 66.8008 148.467C66.4844 148.9 66.1387 149.322 65.7637 149.732C65.3887 150.143 64.9902 150.506 64.5684 150.822C64.1582 151.139 63.7246 151.391 63.2676 151.578C62.8105 151.766 62.3418 151.859 61.8613 151.859C61.1582 151.859 60.6426 151.648 60.3145 151.227C59.9863 150.805 59.8223 150.26 59.8223 149.592C59.8223 149.545 59.8223 149.445 59.8223 149.293C59.834 149.129 59.8516 149 59.875 148.906C59.2891 149.645 58.7266 150.254 58.1875 150.734C57.6602 151.215 57.1445 151.596 56.6406 151.877C56.1484 152.158 55.668 152.352 55.1992 152.457C54.7422 152.574 54.3027 152.633 53.8809 152.633C53.4355 152.633 53.0137 152.557 52.6152 152.404C52.2285 152.264 51.8887 152.053 51.5957 151.771C51.291 151.49 51.0566 151.145 50.8926 150.734C50.7168 150.324 50.6289 149.85 50.6289 149.311C50.6289 148.643 50.7812 147.881 51.0859 147.025C51.3789 146.158 51.9062 145.227 52.668 144.23C53.3125 143.375 53.9805 142.654 54.6719 142.068C55.375 141.482 56.0605 141.014 56.7285 140.662C57.4082 140.299 58.0527 140.041 58.6621 139.889C59.2715 139.736 59.8164 139.66 60.2969 139.66C61.375 139.66 62.1895 139.842 62.7402 140.205C63.291 140.557 63.625 141.102 63.7422 141.84C63.9766 141.547 64.2227 141.254 64.4805 140.961C64.7383 140.668 65.002 140.369 65.2715 140.064L65.834 140.311ZM60.4375 146.99C60.5898 146.744 60.7773 146.434 61 146.059C61.2227 145.672 61.457 145.279 61.7031 144.881C61.9492 144.471 62.1895 144.078 62.4238 143.703C62.6582 143.328 62.8633 143.012 63.0391 142.754C63.0391 142.648 63.0215 142.479 62.9863 142.244C62.9629 142.01 62.8867 141.775 62.7578 141.541C62.6289 141.295 62.4238 141.084 62.1426 140.908C61.8613 140.732 61.4688 140.645 60.9648 140.645C60.6016 140.645 60.1914 140.703 59.7344 140.82C59.2891 140.926 58.8086 141.113 58.293 141.383C57.7891 141.641 57.2676 141.986 56.7285 142.42C56.1895 142.854 55.6504 143.393 55.1113 144.037C54.3027 145.01 53.6758 145.988 53.2305 146.973C52.7969 147.945 52.5801 148.824 52.5801 149.609C52.5801 150.277 52.7324 150.793 53.0371 151.156C53.3418 151.52 53.7754 151.701 54.3379 151.701C54.9824 151.701 55.5859 151.561 56.1484 151.279C56.7109 150.986 57.2383 150.611 57.7305 150.154C58.2227 149.697 58.6914 149.193 59.1367 148.643C59.582 148.08 60.0156 147.529 60.4375 146.99ZM73.9199 136.672L69.9297 144.688C70.6328 143.785 71.3711 142.947 72.1445 142.174C72.918 141.389 73.709 140.75 74.5176 140.258C75.1152 139.906 75.6426 139.666 76.0996 139.537C76.5566 139.396 76.9902 139.326 77.4004 139.326C77.7988 139.326 78.127 139.391 78.3848 139.52C78.6426 139.648 78.8477 139.818 79 140.029C79.1523 140.24 79.2578 140.475 79.3164 140.732C79.375 140.979 79.4043 141.225 79.4043 141.471C79.4043 142.021 79.3105 142.566 79.123 143.105C78.9355 143.645 78.7012 144.178 78.4199 144.705C78.1504 145.232 77.8516 145.754 77.5234 146.27C77.1953 146.773 76.8906 147.271 76.6094 147.764C76.3398 148.244 76.1113 148.719 75.9238 149.188C75.7363 149.656 75.6426 150.107 75.6426 150.541C75.6426 150.752 75.666 150.928 75.7129 151.068C75.7715 151.197 75.8418 151.303 75.9238 151.385C76.0176 151.455 76.1172 151.502 76.2227 151.525C76.3281 151.549 76.4336 151.561 76.5391 151.561C76.7617 151.561 77.0195 151.461 77.3125 151.262C77.6172 151.051 77.9395 150.781 78.2793 150.453C78.6191 150.113 78.9648 149.732 79.3164 149.311C79.6797 148.877 80.0254 148.438 80.3535 147.992C80.6934 147.535 81.0098 147.09 81.3027 146.656C81.5957 146.211 81.8535 145.807 82.0762 145.443L82.7266 145.936C82.5977 146.193 82.4043 146.533 82.1465 146.955C81.9004 147.377 81.6074 147.834 81.2676 148.326C80.9277 148.807 80.5527 149.293 80.1426 149.785C79.7441 150.266 79.3223 150.705 78.877 151.104C78.4316 151.502 77.9746 151.824 77.5059 152.07C77.0488 152.328 76.5977 152.457 76.1523 152.457C75.8477 152.457 75.5547 152.41 75.2734 152.316C74.9922 152.223 74.7461 152.082 74.5352 151.895C74.3242 151.695 74.1543 151.443 74.0254 151.139C73.8965 150.834 73.832 150.471 73.832 150.049C73.832 149.545 73.9316 148.965 74.1309 148.309C74.3418 147.652 74.7402 146.902 75.3262 146.059C75.8066 145.367 76.2227 144.793 76.5742 144.336C76.9258 143.867 77.2129 143.463 77.4355 143.123C77.6699 142.771 77.8398 142.455 77.9453 142.174C78.0508 141.881 78.1035 141.559 78.1035 141.207C78.1035 140.902 78.0156 140.668 77.8398 140.504C77.6641 140.34 77.4648 140.258 77.2422 140.258C76.6445 140.258 76.0293 140.428 75.3965 140.768C74.7637 141.107 74.1367 141.559 73.5156 142.121C72.8945 142.672 72.2852 143.305 71.6875 144.02C71.0898 144.734 70.5215 145.467 69.9824 146.217C69.4551 146.955 68.9629 147.682 68.5059 148.396C68.0605 149.111 67.6738 149.756 67.3457 150.33C67.0176 150.893 66.7656 151.35 66.5898 151.701C66.4023 152.041 66.3027 152.217 66.291 152.229C65.7988 153.236 65.3184 154.209 64.8496 155.146C64.3809 156.096 63.9414 156.992 63.5312 157.836C63.1094 158.68 62.7227 159.447 62.3711 160.139C62.0195 160.842 61.7148 161.451 61.457 161.967C61.1992 162.482 61 162.887 60.8594 163.18C60.707 163.473 60.625 163.625 60.6133 163.637L58.6973 162.547C59.6582 160.73 60.5254 159.09 61.2988 157.625C62.0723 156.16 62.8105 154.777 63.5137 153.477C64.2168 152.188 64.9082 150.934 65.5879 149.715C66.2676 148.496 66.9883 147.225 67.75 145.9C68.5117 144.564 69.3379 143.135 70.2285 141.611C71.1309 140.076 72.1562 138.348 73.3047 136.426L73.9199 136.672ZM89.9863 136.408C89.9863 136.643 89.9277 136.889 89.8105 137.146C89.6934 137.393 89.541 137.615 89.3535 137.814C89.1777 138.014 88.9785 138.178 88.7559 138.307C88.5332 138.436 88.3105 138.5 88.0879 138.5C87.8887 138.5 87.7363 138.43 87.6309 138.289C87.5254 138.137 87.4727 137.955 87.4727 137.744C87.4727 137.557 87.5078 137.334 87.5781 137.076C87.6484 136.818 87.7539 136.578 87.8945 136.355C88.0352 136.121 88.2051 135.922 88.4043 135.758C88.6035 135.594 88.832 135.512 89.0898 135.512C89.3359 135.512 89.5469 135.605 89.7227 135.793C89.8984 135.98 89.9863 136.186 89.9863 136.408ZM86.6992 140.311C86.5469 140.615 86.3301 141.02 86.0488 141.523C85.7793 142.016 85.4863 142.561 85.1699 143.158C84.8535 143.744 84.5312 144.365 84.2031 145.021C83.875 145.666 83.5762 146.299 83.3066 146.92C83.0488 147.529 82.8379 148.104 82.6738 148.643C82.5098 149.182 82.4277 149.639 82.4277 150.014C82.4277 150.354 82.498 150.588 82.6387 150.717C82.7793 150.834 82.9785 150.893 83.2363 150.893C83.7168 150.893 84.1855 150.734 84.6426 150.418C85.0996 150.102 85.5508 149.691 85.9961 149.188C86.4531 148.672 86.8984 148.086 87.332 147.43C87.7656 146.773 88.1992 146.111 88.6328 145.443L89.2656 145.936C88.9258 146.545 88.5391 147.195 88.1055 147.887C87.6836 148.578 87.209 149.223 86.6816 149.82C86.1543 150.406 85.5742 150.893 84.9414 151.279C84.3086 151.666 83.6172 151.859 82.8672 151.859C82.1641 151.859 81.625 151.648 81.25 151.227C80.875 150.805 80.6875 150.26 80.6875 149.592C80.6875 148.807 80.8691 147.986 81.2324 147.131C81.5957 146.275 82.0469 145.432 82.5859 144.6C83.1367 143.756 83.7285 142.947 84.3613 142.174C85.0059 141.4 85.5977 140.697 86.1367 140.064L86.6992 140.311ZM89.9688 147.992C89.9453 148.133 89.9277 148.273 89.916 148.414C89.9043 148.555 89.8984 148.695 89.8984 148.836C89.8984 149.258 89.957 149.662 90.0742 150.049C90.2031 150.424 90.3848 150.758 90.6191 151.051C90.8652 151.332 91.1641 151.555 91.5156 151.719C91.8789 151.883 92.2891 151.965 92.7461 151.965C94.2812 151.965 95.7637 151.443 97.1934 150.4C98.623 149.357 100.047 147.705 101.465 145.443L102.062 145.971C101.289 147.26 100.504 148.35 99.707 149.24C98.9102 150.119 98.1133 150.834 97.3164 151.385C96.5312 151.936 95.7578 152.334 94.9961 152.58C94.2344 152.826 93.5078 152.949 92.8164 152.949C92.3125 152.949 91.7793 152.879 91.2168 152.738C90.6543 152.598 90.1328 152.363 89.6523 152.035C89.1836 151.707 88.7969 151.268 88.4922 150.717C88.1758 150.166 88.0176 149.48 88.0176 148.66C88.0176 147.781 88.1699 146.938 88.4746 146.129C88.7676 145.309 89.1543 144.547 89.6348 143.844C90.1152 143.141 90.666 142.502 91.2871 141.928C91.9082 141.342 92.5352 140.844 93.168 140.434C93.8125 140.023 94.4395 139.707 95.0488 139.484C95.6582 139.25 96.1973 139.133 96.666 139.133C96.9707 139.133 97.2812 139.18 97.5977 139.273C97.9141 139.367 98.1953 139.514 98.4414 139.713C98.6992 139.912 98.9043 140.176 99.0566 140.504C99.2207 140.832 99.3027 141.225 99.3027 141.682C99.3027 142.303 99.1562 142.889 98.8633 143.439C98.582 143.979 98.2012 144.482 97.7207 144.951C97.2402 145.408 96.6836 145.824 96.0508 146.199C95.418 146.562 94.7559 146.873 94.0645 147.131C93.373 147.389 92.6758 147.594 91.9727 147.746C91.2695 147.898 90.6016 147.98 89.9688 147.992ZM90.1094 147.236C90.8945 147.154 91.6328 146.99 92.3242 146.744C93.0156 146.498 93.6484 146.199 94.2227 145.848C94.7969 145.484 95.3066 145.092 95.752 144.67C96.209 144.248 96.5898 143.82 96.8945 143.387C97.1992 142.953 97.4336 142.537 97.5977 142.139C97.7617 141.74 97.8438 141.383 97.8438 141.066C97.8438 140.75 97.7559 140.498 97.5801 140.311C97.416 140.123 97.2168 140.029 96.9824 140.029C96.4668 140.029 95.8867 140.217 95.2422 140.592C94.5977 140.955 93.9531 141.465 93.3086 142.121C92.6641 142.766 92.0547 143.527 91.4805 144.406C90.918 145.285 90.4609 146.229 90.1094 147.236ZM112.557 145.936C112.381 146.193 112.17 146.545 111.924 146.99C111.689 147.424 111.414 147.898 111.098 148.414C110.781 148.918 110.43 149.434 110.043 149.961C109.668 150.488 109.252 150.963 108.795 151.385C108.35 151.807 107.863 152.152 107.336 152.422C106.809 152.691 106.246 152.826 105.648 152.826C105.32 152.826 105.01 152.773 104.717 152.668C104.424 152.574 104.166 152.422 103.943 152.211C103.721 152 103.545 151.742 103.416 151.438C103.287 151.121 103.223 150.752 103.223 150.33C103.223 149.756 103.334 149.158 103.557 148.537C103.791 147.904 104.061 147.295 104.365 146.709C104.67 146.123 104.975 145.59 105.279 145.109C105.584 144.617 105.807 144.225 105.947 143.932C106.088 143.639 106.158 143.387 106.158 143.176C106.158 143.023 106.105 142.889 106 142.771C105.906 142.654 105.783 142.543 105.631 142.438C105.49 142.32 105.338 142.203 105.174 142.086C105.021 141.957 104.893 141.805 104.787 141.629C104.494 142.098 104.195 142.572 103.891 143.053C103.621 143.463 103.328 143.926 103.012 144.441C102.695 144.945 102.391 145.443 102.098 145.936L101.465 145.443L105.227 139.555L105.736 139.818C105.713 139.889 105.672 140 105.613 140.152C105.566 140.305 105.543 140.469 105.543 140.645C105.543 140.773 105.561 140.902 105.596 141.031C105.643 141.148 105.73 141.26 105.859 141.365C106.328 141.787 106.697 142.115 106.967 142.35C107.236 142.572 107.43 142.754 107.547 142.895C107.676 143.023 107.752 143.135 107.775 143.229C107.811 143.311 107.828 143.422 107.828 143.562C107.828 143.703 107.805 143.873 107.758 144.072C107.711 144.271 107.629 144.512 107.512 144.793C107.406 145.074 107.254 145.408 107.055 145.795C106.867 146.17 106.627 146.609 106.334 147.113C106.158 147.418 105.982 147.729 105.807 148.045C105.643 148.35 105.49 148.66 105.35 148.977C105.221 149.293 105.115 149.609 105.033 149.926C104.951 150.242 104.91 150.547 104.91 150.84C104.91 151.062 104.939 151.244 104.998 151.385C105.068 151.514 105.156 151.613 105.262 151.684C105.367 151.754 105.479 151.801 105.596 151.824C105.725 151.848 105.848 151.859 105.965 151.859C106.352 151.859 106.732 151.748 107.107 151.525C107.494 151.291 107.869 150.992 108.232 150.629C108.607 150.266 108.965 149.855 109.305 149.398C109.656 148.93 109.99 148.455 110.307 147.975C110.623 147.494 110.916 147.037 111.186 146.604C111.455 146.158 111.695 145.771 111.906 145.443L112.557 145.936ZM121.926 144.02C121.48 143.914 121.094 143.768 120.766 143.58C120.449 143.381 120.191 143.158 119.992 142.912C119.793 142.666 119.646 142.408 119.553 142.139C119.459 141.857 119.412 141.582 119.412 141.312C119.412 140.727 119.576 140.275 119.904 139.959C120.232 139.631 120.643 139.467 121.135 139.467C121.463 139.467 121.744 139.555 121.979 139.73C122.213 139.895 122.406 140.117 122.559 140.398C122.711 140.68 122.822 141.008 122.893 141.383C122.963 141.746 122.998 142.127 122.998 142.525C122.998 142.795 122.986 143.064 122.963 143.334C122.939 143.592 122.898 143.855 122.84 144.125C122.559 145.391 122.143 146.539 121.592 147.57C121.053 148.59 120.438 149.469 119.746 150.207C119.066 150.934 118.34 151.496 117.566 151.895C116.793 152.281 116.037 152.475 115.299 152.475C114.795 152.475 114.314 152.404 113.857 152.264C113.412 152.123 113.014 151.889 112.662 151.561C112.322 151.232 112.053 150.805 111.854 150.277C111.654 149.738 111.555 149.076 111.555 148.291C111.555 147.318 111.742 146.158 112.117 144.811C112.504 143.463 113.154 141.881 114.068 140.064C115.381 137.521 116.699 135.242 118.023 133.227C118.586 132.371 119.178 131.533 119.799 130.713C120.42 129.893 121.041 129.16 121.662 128.516C122.295 127.871 122.916 127.355 123.525 126.969C124.146 126.57 124.732 126.371 125.283 126.371C125.354 126.371 125.477 126.383 125.652 126.406C125.84 126.43 126.027 126.494 126.215 126.6C126.402 126.693 126.566 126.846 126.707 127.057C126.859 127.256 126.936 127.537 126.936 127.9C126.936 128.334 126.818 128.885 126.584 129.553C126.361 130.209 126.021 130.941 125.564 131.75C125.119 132.547 124.562 133.402 123.895 134.316C123.238 135.219 122.477 136.127 121.609 137.041C120.754 137.955 119.799 138.852 118.744 139.73C117.701 140.609 116.564 141.43 115.334 142.191C114.924 143.082 114.578 143.891 114.297 144.617C114.027 145.332 113.811 145.982 113.646 146.568C113.482 147.143 113.365 147.652 113.295 148.098C113.225 148.543 113.189 148.93 113.189 149.258C113.189 149.715 113.248 150.096 113.365 150.4C113.494 150.693 113.664 150.928 113.875 151.104C114.086 151.268 114.326 151.385 114.596 151.455C114.865 151.525 115.146 151.561 115.439 151.561C115.99 151.561 116.523 151.42 117.039 151.139C117.566 150.857 118.064 150.494 118.533 150.049C119.002 149.592 119.43 149.082 119.816 148.52C120.215 147.957 120.561 147.4 120.854 146.85C121.146 146.287 121.387 145.76 121.574 145.268C121.762 144.764 121.879 144.348 121.926 144.02ZM116.072 140.592C117.15 139.854 118.141 139.074 119.043 138.254C119.957 137.434 120.783 136.613 121.521 135.793C122.26 134.961 122.91 134.152 123.473 133.367C124.035 132.57 124.504 131.826 124.879 131.135C125.254 130.443 125.535 129.828 125.723 129.289C125.922 128.738 126.021 128.293 126.021 127.953C126.021 127.648 125.91 127.496 125.688 127.496C125.266 127.496 124.756 127.725 124.158 128.182C123.572 128.639 122.887 129.383 122.102 130.414C121.328 131.445 120.438 132.793 119.43 134.457C118.434 136.121 117.314 138.166 116.072 140.592ZM122.049 143.105C122.061 143 122.066 142.895 122.066 142.789C122.078 142.684 122.084 142.584 122.084 142.49C122.084 141.857 122.002 141.348 121.838 140.961C121.674 140.574 121.439 140.381 121.135 140.381C121.064 140.381 120.982 140.393 120.889 140.416C120.807 140.428 120.719 140.469 120.625 140.539C120.543 140.598 120.473 140.686 120.414 140.803C120.355 140.92 120.326 141.072 120.326 141.26C120.326 141.74 120.49 142.139 120.818 142.455C121.158 142.76 121.568 142.977 122.049 143.105ZM132.455 136.408C132.455 136.643 132.396 136.889 132.279 137.146C132.162 137.393 132.01 137.615 131.822 137.814C131.646 138.014 131.447 138.178 131.225 138.307C131.002 138.436 130.779 138.5 130.557 138.5C130.357 138.5 130.205 138.43 130.1 138.289C129.994 138.137 129.941 137.955 129.941 137.744C129.941 137.557 129.977 137.334 130.047 137.076C130.117 136.818 130.223 136.578 130.363 136.355C130.504 136.121 130.674 135.922 130.873 135.758C131.072 135.594 131.301 135.512 131.559 135.512C131.805 135.512 132.016 135.605 132.191 135.793C132.367 135.98 132.455 136.186 132.455 136.408ZM129.168 140.311C129.016 140.615 128.799 141.02 128.518 141.523C128.248 142.016 127.955 142.561 127.639 143.158C127.322 143.744 127 144.365 126.672 145.021C126.344 145.666 126.045 146.299 125.775 146.92C125.518 147.529 125.307 148.104 125.143 148.643C124.979 149.182 124.896 149.639 124.896 150.014C124.896 150.354 124.967 150.588 125.107 150.717C125.248 150.834 125.447 150.893 125.705 150.893C126.186 150.893 126.654 150.734 127.111 150.418C127.568 150.102 128.02 149.691 128.465 149.188C128.922 148.672 129.367 148.086 129.801 147.43C130.234 146.773 130.668 146.111 131.102 145.443L131.734 145.936C131.395 146.545 131.008 147.195 130.574 147.887C130.152 148.578 129.678 149.223 129.15 149.82C128.623 150.406 128.043 150.893 127.41 151.279C126.777 151.666 126.086 151.859 125.336 151.859C124.633 151.859 124.094 151.648 123.719 151.227C123.344 150.805 123.156 150.26 123.156 149.592C123.156 148.807 123.338 147.986 123.701 147.131C124.064 146.275 124.516 145.432 125.055 144.6C125.605 143.756 126.197 142.947 126.83 142.174C127.475 141.4 128.066 140.697 128.605 140.064L129.168 140.311ZM142.193 145.936C142.018 146.193 141.807 146.545 141.561 146.99C141.326 147.424 141.051 147.898 140.734 148.414C140.418 148.918 140.066 149.434 139.68 149.961C139.305 150.488 138.889 150.963 138.432 151.385C137.986 151.807 137.5 152.152 136.973 152.422C136.445 152.691 135.883 152.826 135.285 152.826C134.957 152.826 134.646 152.773 134.354 152.668C134.061 152.574 133.803 152.422 133.58 152.211C133.357 152 133.182 151.742 133.053 151.438C132.924 151.121 132.859 150.752 132.859 150.33C132.859 149.756 132.971 149.158 133.193 148.537C133.428 147.904 133.697 147.295 134.002 146.709C134.307 146.123 134.611 145.59 134.916 145.109C135.221 144.617 135.443 144.225 135.584 143.932C135.725 143.639 135.795 143.387 135.795 143.176C135.795 143.023 135.742 142.889 135.637 142.771C135.543 142.654 135.42 142.543 135.268 142.438C135.127 142.32 134.975 142.203 134.811 142.086C134.658 141.957 134.529 141.805 134.424 141.629C134.131 142.098 133.832 142.572 133.527 143.053C133.258 143.463 132.965 143.926 132.648 144.441C132.332 144.945 132.027 145.443 131.734 145.936L131.102 145.443L134.863 139.555L135.373 139.818C135.35 139.889 135.309 140 135.25 140.152C135.203 140.305 135.18 140.469 135.18 140.645C135.18 140.773 135.197 140.902 135.232 141.031C135.279 141.148 135.367 141.26 135.496 141.365C135.965 141.787 136.334 142.115 136.604 142.35C136.873 142.572 137.066 142.754 137.184 142.895C137.312 143.023 137.389 143.135 137.412 143.229C137.447 143.311 137.465 143.422 137.465 143.562C137.465 143.703 137.441 143.873 137.395 144.072C137.348 144.271 137.266 144.512 137.148 144.793C137.043 145.074 136.891 145.408 136.691 145.795C136.504 146.17 136.264 146.609 135.971 147.113C135.795 147.418 135.619 147.729 135.443 148.045C135.279 148.35 135.127 148.66 134.986 148.977C134.857 149.293 134.752 149.609 134.67 149.926C134.588 150.242 134.547 150.547 134.547 150.84C134.547 151.062 134.576 151.244 134.635 151.385C134.705 151.514 134.793 151.613 134.898 151.684C135.004 151.754 135.115 151.801 135.232 151.824C135.361 151.848 135.484 151.859 135.602 151.859C135.988 151.859 136.369 151.748 136.744 151.525C137.131 151.291 137.506 150.992 137.869 150.629C138.244 150.266 138.602 149.855 138.941 149.398C139.293 148.93 139.627 148.455 139.943 147.975C140.26 147.494 140.553 147.037 140.822 146.604C141.092 146.158 141.332 145.771 141.543 145.443L142.193 145.936ZM161.143 128.902C161.014 129.09 160.803 129.4 160.51 129.834C160.217 130.268 159.877 130.783 159.49 131.381C159.104 131.979 158.682 132.641 158.225 133.367C157.779 134.094 157.328 134.844 156.871 135.617C156.426 136.391 155.986 137.176 155.553 137.973C155.131 138.758 154.756 139.514 154.428 140.24C153.912 141.365 153.484 142.373 153.145 143.264C152.816 144.143 152.553 144.928 152.354 145.619C152.166 146.311 152.031 146.914 151.949 147.43C151.879 147.934 151.844 148.367 151.844 148.73C151.844 149.398 151.943 149.861 152.143 150.119C152.354 150.377 152.635 150.506 152.986 150.506C153.35 150.506 153.695 150.412 154.023 150.225C154.363 150.037 154.686 149.797 154.99 149.504C155.307 149.211 155.6 148.877 155.869 148.502C156.15 148.127 156.408 147.752 156.643 147.377C156.889 147.002 157.111 146.645 157.311 146.305C157.51 145.965 157.686 145.678 157.838 145.443L158.471 145.936C158.342 146.146 158.178 146.428 157.979 146.779C157.791 147.119 157.574 147.494 157.328 147.904C157.082 148.314 156.801 148.73 156.484 149.152C156.168 149.562 155.816 149.938 155.43 150.277C155.055 150.617 154.633 150.898 154.164 151.121C153.707 151.332 153.209 151.438 152.67 151.438C152.412 151.438 152.137 151.402 151.844 151.332C151.562 151.262 151.299 151.139 151.053 150.963C150.807 150.787 150.59 150.547 150.402 150.242C150.215 149.926 150.092 149.527 150.033 149.047C149.154 149.996 148.299 150.717 147.467 151.209C146.635 151.689 145.85 151.93 145.111 151.93C144.736 151.93 144.32 151.865 143.863 151.736C143.418 151.607 142.996 151.385 142.598 151.068C142.199 150.752 141.865 150.336 141.596 149.82C141.326 149.293 141.191 148.643 141.191 147.869C141.191 147.002 141.326 146.176 141.596 145.391C141.865 144.605 142.229 143.879 142.686 143.211C143.143 142.531 143.664 141.922 144.25 141.383C144.848 140.832 145.469 140.369 146.113 139.994C146.758 139.607 147.402 139.309 148.047 139.098C148.703 138.887 149.318 138.781 149.893 138.781C150.654 138.781 151.252 138.875 151.686 139.062C152.119 139.25 152.447 139.438 152.67 139.625C152.834 139.297 153.057 138.881 153.338 138.377C153.619 137.861 153.947 137.293 154.322 136.672C154.697 136.039 155.113 135.371 155.57 134.668C156.027 133.953 156.514 133.238 157.029 132.523C157.545 131.797 158.084 131.082 158.646 130.379C159.221 129.676 159.801 129.02 160.387 128.41L161.143 128.902ZM150.016 147.729C150.074 146.861 150.273 145.842 150.613 144.67C150.965 143.486 151.498 142.127 152.213 140.592C152.049 140.346 151.814 140.158 151.51 140.029C151.217 139.889 150.883 139.818 150.508 139.818C149.934 139.818 149.348 139.936 148.75 140.17C148.164 140.404 147.596 140.721 147.045 141.119C146.506 141.518 145.996 141.992 145.516 142.543C145.035 143.082 144.613 143.662 144.25 144.283C143.898 144.904 143.617 145.555 143.406 146.234C143.207 146.902 143.107 147.564 143.107 148.221C143.107 149.1 143.289 149.785 143.652 150.277C144.027 150.77 144.525 151.016 145.146 151.016C145.439 151.016 145.762 150.957 146.113 150.84C146.465 150.723 146.846 150.535 147.256 150.277C147.678 150.008 148.117 149.668 148.574 149.258C149.031 148.836 149.512 148.326 150.016 147.729ZM160.773 150.893C160.773 151.244 160.645 151.549 160.387 151.807C160.141 152.053 159.836 152.176 159.473 152.176C159.133 152.176 158.834 152.053 158.576 151.807C158.33 151.549 158.207 151.244 158.207 150.893C158.207 150.553 158.33 150.26 158.576 150.014C158.834 149.756 159.133 149.627 159.473 149.627C159.836 149.627 160.141 149.756 160.387 150.014C160.645 150.26 160.773 150.553 160.773 150.893Z" fill="#70969B" fill-opacity="0.65"/>
<path d="M158.654 46.4108C158.654 48.7842 156.922 50.7081 154.786 50.7081C152.65 50.7081 150.919 48.7842 150.919 46.4108C150.919 44.0375 152.65 42.1135 154.786 42.1135C156.922 42.1135 158.654 44.0375 158.654 46.4108Z" fill="#70969B" fill-opacity="0.35"/>
<path fill-rule="evenodd" clip-rule="evenodd" d="M124.754 6.3197C129.359 2.63818 134.729 -1.77827e-06 141.197 0C147.627 1.72747e-06 151.515 1.86448 154.811 3.70366C155.148 3.8916 155.477 4.07814 155.8 4.26158C158.642 5.87254 161.064 7.24555 164.61 7.24555C164.904 7.24555 165.16 7.44627 165.23 7.73189C165.301 8.0175 165.167 8.31428 164.907 8.45096C161.955 10.0021 158.939 13.1297 155.841 17.4008C153.21 21.0296 150.552 25.4361 147.85 30.2968C148.32 30.2566 148.792 30.229 149.266 30.2146C154.638 30.0517 158.824 31.1661 162.202 33.038C165.575 34.9068 168.106 37.5101 170.201 40.2697C171.7 42.2453 172.996 44.3319 174.21 46.2858C174.681 47.0446 175.14 47.7834 175.593 48.488C177.239 51.0443 178.814 53.1496 180.712 54.4003C180.935 54.5469 181.043 54.8165 180.984 55.0765C180.925 55.3366 180.71 55.5325 180.446 55.568C173.468 56.5065 168.484 59.3577 163.906 63.4176C160.826 66.1499 157.959 69.3971 154.792 72.9843C153.209 74.7776 151.551 76.6559 149.753 78.5973C148.91 79.5085 148.067 80.4347 147.217 81.3677C137.341 92.217 126.62 103.995 104.373 103.995C92.3305 103.995 82.9601 100.869 74.9013 95.3042C66.8599 89.7517 60.1562 81.7926 53.4054 72.1837C51.8979 70.038 50.2287 67.4663 48.4316 64.6978C47.9906 64.0185 47.542 63.3273 47.0862 62.6277C44.768 59.0695 42.2562 55.2802 39.5953 51.6663C34.2502 44.4068 28.3873 37.9761 22.3944 35.4934C22.1475 35.3911 21.9903 35.1457 22.0005 34.8784C22.0106 34.6111 22.1859 34.3784 22.4398 34.2951C27.4448 32.6536 30.7846 30.0693 34.2163 27.4139C34.9299 26.8617 35.6475 26.3065 36.3848 25.756C40.6722 22.5552 45.5155 19.6247 53.8617 18.7566C62.2176 17.8874 68.2193 19.8925 73.6321 23.7498C78.0284 26.8826 82.048 31.2513 86.626 36.227C87.6297 37.3178 88.6602 38.4379 89.7274 39.5805C95.6478 45.9188 101.362 49.7661 107.086 51.6836C107.717 51.8951 108.349 52.0833 108.982 52.2489C111.7 50.3284 114.376 48.3208 117.031 46.3284C117.481 45.9905 117.931 45.6531 118.38 45.3165C123.474 41.5016 128.505 37.811 133.59 35.0365C137.738 32.7735 141.948 31.1049 146.29 30.4765C149.155 25.2806 151.989 20.537 154.808 16.6495C157.377 13.1078 159.965 10.232 162.591 8.37989C159.72 7.96098 157.485 6.69078 155.177 5.37842C154.85 5.19253 154.521 5.0058 154.189 4.82051C150.993 3.03692 147.325 1.27862 141.197 1.27862C135.106 1.27862 130.009 3.75492 125.55 7.31893C121.08 10.8921 117.29 15.5257 113.808 19.7967C106.857 28.3219 101.375 33.2934 97.1715 35.0656C96.8465 35.2026 96.472 35.0499 96.3352 34.7245C96.1983 34.3991 96.3509 34.0242 96.6759 33.8872C100.56 32.2497 105.869 27.5114 112.819 18.9882C116.286 14.735 120.159 9.99207 124.754 6.3197ZM145.511 31.8993C141.701 32.5931 137.953 34.1121 134.201 36.1593C129.207 38.8837 124.245 42.5205 119.146 46.3403C118.673 46.6946 118.199 47.0504 117.723 47.4072C115.401 49.1504 113.047 50.9168 110.65 52.6327C115.211 53.5403 119.842 53.3103 124.662 52.1809C132.902 50.2501 138.957 43.9754 145.318 32.2533C145.383 32.1351 145.447 32.0171 145.511 31.8993ZM107.627 53.1964C100.726 57.9667 93.5342 62.0729 85.701 63.8652C72.462 66.8944 61.7675 63.7499 57.4189 61.448C57.1072 61.283 56.7208 61.4022 56.556 61.7144C56.3911 62.0265 56.5102 62.4133 56.822 62.5784C61.4236 65.0141 72.4296 68.2134 85.9856 65.1117C94.3646 63.1945 102.007 58.7052 109.241 53.6318C114.385 54.8689 119.58 54.6848 124.953 53.4259C133.741 51.3667 140.031 44.6757 146.441 32.8637C146.66 32.4596 146.879 32.0581 147.098 31.6593C147.83 31.5713 148.566 31.5151 149.304 31.4927C154.468 31.336 158.424 32.4059 161.584 34.1567C164.75 35.9107 167.154 38.3686 169.184 41.0432C170.645 42.968 171.891 44.9741 173.093 46.9103C173.572 47.6814 174.044 48.4413 174.52 49.1807C175.842 51.2348 177.198 53.1332 178.791 54.5331C172.274 55.7006 167.456 58.5619 163.06 62.4605C159.921 65.2439 156.968 68.5886 153.766 72.2146C152.193 73.9956 150.561 75.8445 148.817 77.7281C147.972 78.6405 147.131 79.5642 146.285 80.4919C136.405 91.3374 126.04 102.716 104.373 102.716C92.5771 102.716 83.4619 99.6619 75.6263 94.2516C67.7733 88.8291 61.1738 81.0186 54.45 71.4481C52.9573 69.3235 51.3049 66.7778 49.5091 64.0113C49.0667 63.3297 48.6155 62.6346 48.1559 61.9292C45.8355 58.3676 43.3071 54.5527 40.6233 50.9076C35.6844 44.1998 30.1479 37.9639 24.3226 34.9795C28.7576 33.2609 31.9358 30.7989 35.0396 28.3946C35.7418 27.8507 36.4401 27.3097 37.1483 26.781C41.3218 23.6652 45.9504 20.865 53.9937 20.0283C62.0274 19.1927 67.7209 21.1068 72.8916 24.7915C77.169 27.8396 81.0764 32.0851 85.6505 37.0549C86.6622 38.1542 87.7065 39.2888 88.7946 40.4538C94.8172 46.9016 100.703 50.8938 106.681 52.8961C106.996 53.0018 107.311 53.1018 107.627 53.1964Z" fill="#70969B" fill-opacity="0.35"/>
</svg>
