<svg width="110" height="75" viewBox="0 0 110 75" fill="none" xmlns="http://www.w3.org/2000/svg">
<path d="M47.6436 45.9184C47.6436 37.9592 46.4141 31.1224 43.9551 25.4082C41.496 19.4898 38.3198 14.6939 34.4264 11.0204C30.5329 7.14286 26.1272 4.38776 21.2091 2.75511C16.0861 0.91837 11.0656 0 6.1476 0V10.7143C11.4755 10.7143 16.496 12.551 21.2091 16.2245C25.7173 19.6939 28.3813 24.4898 29.2009 30.6122C28.5862 30.4082 27.869 30.2041 27.0493 30C26.4345 29.7959 25.7173 29.5918 24.8977 29.3878C23.8731 29.1837 22.746 29.0816 21.5165 29.0816C15.3689 29.0816 10.246 31.4286 6.1476 36.1225C2.04923 40.6122 4.57764e-05 45.9184 4.57764e-05 52.0408C4.57764e-05 58.1633 2.15169 63.5714 6.45498 68.2653C10.5533 72.7551 16.0862 75 23.0534 75C30.8403 75 36.8854 72.1429 41.1887 66.4286C45.492 60.5102 47.6436 53.6735 47.6436 45.9184ZM109.119 45.9184C109.119 37.9592 107.89 31.1224 105.431 25.4082C102.972 19.4898 99.7953 14.6939 95.9019 11.0204C92.0084 7.14286 87.6027 4.38776 82.6847 2.75511C77.5617 0.91837 72.5412 0 67.6231 0V10.7143C72.951 10.7143 77.9715 12.551 82.6847 16.2245C87.1929 19.6939 89.8568 24.4898 90.6765 30.6122C90.0617 30.4082 89.3445 30.2041 88.5248 30C87.9101 29.7959 87.1929 29.5918 86.3732 29.3878C85.3486 29.1837 84.2215 29.0816 82.992 29.0816C76.8445 29.0816 71.7215 31.4286 67.6231 36.1225C63.5248 40.6122 61.4756 45.9184 61.4756 52.0408C61.4756 58.1633 63.6272 63.5714 67.9305 68.2653C72.0289 72.7551 77.5617 75 84.5289 75C92.3158 75 98.3609 72.1429 102.664 66.4286C106.967 60.5102 109.119 53.6735 109.119 45.9184Z" fill="white"/>
</svg>
