<svg width="110" height="75" viewBox="0 0 110 75" fill="none" xmlns="http://www.w3.org/2000/svg">
<path d="M61.4756 29.0816C61.4756 37.0408 62.7051 43.9796 65.1641 49.898C67.6231 55.6122 70.7994 60.4082 74.6928 64.2857C78.5863 67.9592 83.0945 70.7143 88.2174 72.551C93.1355 74.1837 98.0535 75 102.972 75V64.2857C97.6437 64.2857 92.7256 62.551 88.2174 59.0816C83.5043 55.4082 80.7379 50.5102 79.9182 44.3878C80.533 44.7959 81.2502 45.102 82.0699 45.3061C83.7092 45.7143 85.5535 45.9184 87.6027 45.9184C93.7502 45.9184 98.8732 43.6735 102.972 39.1837C107.07 34.4898 109.119 29.0816 109.119 22.9592C109.119 16.8367 107.07 11.5306 102.972 7.04082C98.6683 2.34694 93.033 0 86.0658 0C78.2789 0 72.2338 2.95918 67.9305 8.87755C63.6272 14.5918 61.4756 21.3265 61.4756 29.0816ZM3.05176e-05 29.0816C3.05176e-05 37.0408 1.22954 43.9796 3.68857 49.898C6.14759 55.6122 9.32382 60.4082 13.2173 64.2857C17.1107 67.9592 21.6189 70.7143 26.7419 72.551C31.6599 74.1837 36.578 75 41.496 75V64.2857C36.1681 64.2857 31.2501 62.551 26.7419 59.0816C22.0288 55.4082 19.2624 50.5102 18.4427 44.3878C19.0574 44.7959 19.7747 45.102 20.5943 45.3061C22.2337 45.7143 24.078 45.9184 26.1272 45.9184C32.2747 45.9184 37.3976 43.6735 41.496 39.1837C45.5944 34.4898 47.6436 29.0816 47.6436 22.9592C47.6436 16.8367 45.5944 11.5306 41.496 7.04082C37.1927 2.34694 31.5575 0 24.5903 0C16.8034 0 10.7583 2.95918 6.45499 8.87755C2.15169 14.5918 3.05176e-05 21.3265 3.05176e-05 29.0816Z" fill="white"/>
</svg>
