<svg width="465" height="46" viewBox="0 0 465 46" fill="none" xmlns="http://www.w3.org/2000/svg">
<path d="M51.3855 17.3534C22.4207 17.3777 -6.1991 21.0449 1.18767 26.3574C8.91619 31.9157 74.5684 30.6038 126.703 28.8478C178.839 27.0918 192.814 33.2048 244.498 34.7417C300.498 36.407 325.597 31.2491 364.216 30.3606C402.835 29.4721 408.631 32.8917 439.526 32.8657C470.422 32.8398 468.486 27.0626 456.898 23.8619C445.309 20.6611 381.585 18.3603 331.381 20.5428C281.177 22.7252 265.721 13.3208 201.999 13.3743C138.276 13.4278 146.005 18.5581 111.247 18.5873C76.4893 18.6165 78.453 17.3306 51.3855 17.3534Z" fill="white" fill-opacity="0.8"/>
<path d="M418.856 1.4971C418.239 2.76561 413.629 11.5096 412.198 12.1814C412.27 12.6516 412.228 13.7835 411.479 14.5487C410.543 15.5053 407.132 15.9319 407.051 16.5763C406.97 17.2207 408.125 17.2546 408.794 17.0385C411.459 16.1766 412.945 17.031 414.301 17.6344C415.658 18.2378 424.652 19.1993 425.507 18.8871C426.362 18.575 424.815 17.9105 423.743 17.9854C422.672 18.0602 415.746 17.0508 415.583 15.9927C415.42 14.9346 424.698 10.7072 425.756 10.5442C426.814 10.3812 428.89 8.61724 428.13 8.3732C427.37 8.12916 421.192 10.796 419.143 11.5628C417.095 12.3297 415.528 12.1197 414.931 11.7603C414.334 11.4009 417.569 6.0283 418.111 4.86154C418.653 3.69479 419.473 0.228584 418.856 1.4971Z" fill="#86CBE3"/>
<path d="M445.336 44.0694C444.4 43.0135 437.608 35.8314 436.049 35.5692C435.992 35.0968 435.647 34.018 434.72 33.4823C433.562 32.8126 430.162 33.3189 429.91 32.7201C429.659 32.1213 430.763 31.7779 431.464 31.8063C434.263 31.9197 435.465 30.6973 436.609 29.7513C437.753 28.8053 446.158 25.4606 447.065 25.5315C447.972 25.6024 446.661 26.6582 445.609 26.8743C444.556 27.0905 438.157 29.9249 438.285 30.9879C438.412 32.0508 448.486 33.6277 449.549 33.5001C450.612 33.3726 453.085 34.5135 452.419 34.9528C451.752 35.3922 445.084 34.4851 442.905 34.2973C440.726 34.1095 439.273 34.733 438.795 35.2397C438.317 35.7464 442.877 40.0514 443.713 41.0293C444.549 42.0072 446.271 45.1252 445.336 44.0694Z" fill="#86CBE3"/>
</svg>
