<svg width="128" height="30" viewBox="0 0 128 30" fill="none" xmlns="http://www.w3.org/2000/svg">
<path d="M14.1891 7.92946C6.26751 8.16995 -1.43142 12.6611 0.776081 18.8095C3.08572 25.2424 20.9967 23.2299 35.1948 20.798C49.3929 18.366 53.4307 25.4008 67.6215 26.8167C82.9972 28.3509 89.6805 22.1452 100.212 20.825C110.744 19.5048 112.45 23.4549 120.899 23.1983C129.349 22.9418 128.616 16.211 125.334 12.5589C122.051 8.90681 104.54 6.68716 90.8855 9.60286C77.2307 12.5186 72.672 1.65189 55.2446 2.18097C37.8172 2.71006 40.1117 8.64316 30.6058 8.93175C21.0999 9.22034 21.5918 7.70472 14.1891 7.92946Z" fill="white"/>
</svg>
