<svg width="1392" height="591" viewBox="0 0 1392 591" fill="none" xmlns="http://www.w3.org/2000/svg">
<rect x="526.5" y="201.5" width="167" height="203.757" stroke="#E5FDC6" stroke-width="3"/>
<rect x="536.455" y="211.455" width="147.09" height="183.847" stroke="#E5FDC6" stroke-width="3"/>
<line x1="527.592" y1="202.002" x2="537.547" y2="211.957" stroke="#E5FDC6" stroke-width="3"/>
<line x1="693.763" y1="201.827" x2="683.808" y2="211.781" stroke="#E5FDC6" stroke-width="3"/>
<line x1="537.547" y1="394.799" x2="527.592" y2="404.754" stroke="#E5FDC6" stroke-width="3"/>
<line x1="684.574" y1="395.741" x2="694.529" y2="405.696" stroke="#E5FDC6" stroke-width="3"/>
<rect x="632.5" y="1.5" width="199" height="250" stroke="#FFFBD3" stroke-width="3"/>
<rect x="660.5" y="26.5" width="143" height="198" stroke="#FFFBD3" stroke-width="3"/>
<rect x="1226.5" y="103.5" width="161" height="218" stroke="#B5E8FA" stroke-width="3"/>
<path d="M1259.85 559.572C1269.5 559.572 1278.5 558.996 1288 553.533C1309.55 541.14 1318.82 509.675 1338.75 502.903C1358.68 496.131 1366.18 514.064 1375.45 516.78C1362.4 522.779 1359.4 533.886 1352.57 548.02C1345.74 562.154 1339.81 578.208 1317.04 585.18C1294.28 592.152 1278.13 584.205 1259.67 569.855C1249.42 561.893 1232.29 545.069 1219.01 543.802C1229.61 536.33 1229.2 526.279 1244.35 519.86C1259.5 513.441 1268.98 520.495 1284.11 529.196C1299.25 537.897 1310.85 537.363 1321.79 530.994C1329.33 526.602 1333.33 518.614 1335.99 505.525C1338.65 492.435 1341.73 481.414 1346.67 476.516C1338.75 478.944 1334.19 472.781 1322.2 476.454C1310.21 480.126 1305.2 492.331 1301.05 502.493C1296.91 512.655 1293.18 518.862 1289.81 521.671" stroke="#C5EAFF" stroke-width="3" stroke-linecap="round" stroke-linejoin="round"/>
<circle cx="1348.65" cy="516.368" r="4.03846" transform="rotate(-17.0296 1348.65 516.368)" fill="#C5EAFF"/>
<path d="M1261.5 559.472C1195.22 559.472 1035.22 559.472 1035.22 559.472C1035.22 559.472 1007.74 550.985 1007.74 527.95C1007.74 504.914 1006.12 494.811 1006.12 482.687C1046.81 482.687 1150.16 482.687 1173.43 482.687C1192.83 482.687 1192.83 468 1192.83 460.864C1192.83 453.729 1192.83 177.973 1192.83 177.973C1192.83 172.316 1188.95 161 1173.43 161C1157.92 161 879.227 161 741.823 161C734.549 161 720 164.395 720 177.973C720 191.552 720 372.225 720 460.864C720 472 724.041 482.687 736.973 482.687C749.906 482.687 863.601 482.687 910.749 482.687C910.749 488.615 909.941 505.965 909.941 527.95C909.941 552.602 882.864 559.472 882.864 559.472H0" stroke="#C5EAFF" stroke-width="3"/>
<rect x="739.515" y="177.857" width="432.652" height="244.327" stroke="#C5EAFF" stroke-width="3"/>
<line x1="720.808" y1="439.966" x2="1193.64" y2="439.966" stroke="#C5EAFF" stroke-width="3"/>
</svg>
