<svg width="762" height="46" viewBox="0 0 762 46" fill="none" xmlns="http://www.w3.org/2000/svg">
<path d="M84.2632 14.7651C36.8185 14.8049 -10.0634 18.1944 2.03302 23.075C14.6891 28.1814 122.229 26.9354 207.628 25.2892C293.027 23.6431 315.916 29.2559 400.575 30.6379C492.302 32.1354 533.417 27.3774 596.676 26.5371C659.935 25.6967 669.427 28.8377 720.034 28.7952C770.642 28.7527 767.474 23.4415 748.494 20.5053C729.514 17.5691 625.134 15.4919 542.898 17.529C460.662 19.5661 435.351 10.9278 330.973 11.0154C226.594 11.103 239.25 15.8158 182.317 15.8636C125.383 15.9114 128.6 14.7279 84.2632 14.7651Z" fill="white" fill-opacity="0.8"/>
<path d="M714.856 1.4971C714.239 2.76561 709.629 11.5096 708.198 12.1814C708.27 12.6516 708.228 13.7835 707.479 14.5487C706.543 15.5053 703.132 15.9319 703.051 16.5763C702.97 17.2207 704.125 17.2546 704.794 17.0385C707.459 16.1766 708.945 17.031 710.301 17.6344C711.658 18.2378 720.652 19.1993 721.507 18.8871C722.362 18.575 720.815 17.9105 719.743 17.9854C718.672 18.0602 711.746 17.0508 711.583 15.9927C711.42 14.9346 720.698 10.7072 721.756 10.5442C722.814 10.3812 724.89 8.61724 724.13 8.3732C723.37 8.12916 717.192 10.796 715.143 11.5628C713.095 12.3297 711.528 12.1197 710.931 11.7603C710.334 11.4009 713.569 6.0283 714.111 4.86154C714.653 3.69479 715.473 0.228584 714.856 1.4971Z" fill="#86CBE3"/>
<path d="M741.336 44.0694C740.4 43.0135 733.608 35.8314 732.049 35.5692C731.992 35.0968 731.647 34.018 730.72 33.4823C729.562 32.8126 726.162 33.3189 725.91 32.7201C725.659 32.1213 726.763 31.7779 727.464 31.8063C730.263 31.9197 731.465 30.6973 732.609 29.7513C733.753 28.8053 742.158 25.4606 743.065 25.5315C743.972 25.6024 742.661 26.6582 741.609 26.8743C740.556 27.0905 734.157 29.9249 734.285 30.9879C734.412 32.0508 744.486 33.6277 745.549 33.5001C746.612 33.3726 749.085 34.5135 748.419 34.9528C747.752 35.3922 741.084 34.4851 738.905 34.2973C736.726 34.1095 735.273 34.733 734.795 35.2397C734.317 35.7464 738.877 40.0514 739.713 41.0293C740.549 42.0072 742.271 45.1252 741.336 44.0694Z" fill="#86CBE3"/>
</svg>
