<svg width="107" height="46" viewBox="0 0 107 46" fill="none" xmlns="http://www.w3.org/2000/svg">
<path d="M11.501 19.4719C5.01927 19.4773 -1.38343 22.4978 0.272272 26.8981C2.00458 31.5019 16.6956 30.4495 28.3615 29.0227C40.0275 27.5958 43.158 32.662 54.7247 33.9601C67.2573 35.3666 72.8712 31.1108 81.5129 30.3951C90.1546 29.6793 91.4534 32.5122 98.3672 32.5064C105.281 32.5006 104.845 27.7185 102.25 25.0638C99.6551 22.409 85.3936 20.4726 74.1601 22.2533C62.9266 24.034 59.4631 16.2433 45.2033 16.2553C30.9435 16.2672 32.6755 20.5169 24.8975 20.5234C17.1194 20.5299 17.5582 19.4668 11.501 19.4719Z" fill="white" fill-opacity="0.8"/>
<path d="M71.8565 1.4971C71.2395 2.76561 66.6287 11.5096 65.1977 12.1814C65.2701 12.6516 65.2278 13.7835 64.4791 14.5487C63.5433 15.5053 60.1321 15.9319 60.0509 16.5763C59.9696 17.2207 61.1254 17.2546 61.7936 17.0385C64.4591 16.1766 65.9447 17.031 67.3014 17.6344C68.6581 18.2378 77.6523 19.1993 78.5069 18.8871C79.3615 18.575 77.8149 17.9105 76.7432 17.9854C75.6715 18.0602 68.746 17.0508 68.583 15.9927C68.4201 14.9346 77.6982 10.7072 78.7563 10.5442C79.8144 10.3812 81.8897 8.61724 81.1299 8.3732C80.3702 8.12916 74.1915 10.796 72.1432 11.5628C70.0949 12.3297 68.5281 12.1197 67.9311 11.7603C67.3341 11.4009 70.5686 6.0283 71.111 4.86154C71.6534 3.69479 72.4735 0.228584 71.8565 1.4971Z" fill="#86CBE3"/>
<path d="M98.3357 44.0694C97.4003 43.0135 90.6081 35.8314 89.0491 35.5692C88.9924 35.0968 88.6473 34.018 87.7205 33.4823C86.5618 32.8126 83.1616 33.3189 82.9101 32.7201C82.6585 32.1213 83.7626 31.7779 84.4643 31.8063C87.2634 31.9197 88.4645 30.6973 89.609 29.7513C90.7535 28.8053 99.1579 25.4606 100.065 25.5315C100.972 25.6024 99.661 26.6582 98.6087 26.8743C97.5564 27.0905 91.1574 29.9249 91.2849 30.9879C91.4125 32.0508 101.486 33.6277 102.549 33.5001C103.612 33.3726 106.085 34.5135 105.419 34.9528C104.752 35.3922 98.0842 34.4851 95.9052 34.2973C93.7261 34.1095 92.2734 34.733 91.7951 35.2397C91.3168 35.7464 95.8768 40.0514 96.713 41.0293C97.5491 42.0072 99.2711 45.1252 98.3357 44.0694Z" fill="#86CBE3"/>
</svg>
