<svg width="152" height="46" viewBox="0 0 152 46" fill="none" xmlns="http://www.w3.org/2000/svg">
<path d="M16.4781 17.1291C7.19102 17.1369 -1.98336 20.7878 0.388114 26.1046C2.8693 31.6673 23.9188 30.3928 40.6341 28.6665C57.3493 26.9402 61.8338 33.0613 78.4064 34.6276C96.3628 36.3248 104.407 31.1813 116.789 30.3148C129.171 29.4483 131.032 32.8712 140.938 32.8629C150.844 32.8546 150.22 27.0763 146.502 23.8689C142.785 20.6616 122.351 18.3244 106.256 20.4782C90.1599 22.6321 85.1989 13.2189 64.7674 13.236C44.3359 13.2532 46.8168 18.3878 35.6724 18.3972C24.5279 18.4065 25.1568 17.1218 16.4781 17.1291Z" fill="white" fill-opacity="0.8"/>
<path d="M116.845 1.4971C116.228 2.76561 111.617 11.5096 110.186 12.1814C110.259 12.6516 110.216 13.7835 109.468 14.5487C108.532 15.5053 105.121 15.9319 105.04 16.5763C104.958 17.2207 106.114 17.2546 106.782 17.0385C109.448 16.1766 110.933 17.031 112.29 17.6344C113.647 18.2378 122.641 19.1993 123.496 18.8871C124.35 18.575 122.804 17.9105 121.732 17.9854C120.66 18.0602 113.735 17.0508 113.572 15.9927C113.409 14.9346 122.687 10.7072 123.745 10.5442C124.803 10.3812 126.878 8.61724 126.119 8.3732C125.359 8.12916 119.18 10.796 117.132 11.5628C115.084 12.3297 113.517 12.1197 112.92 11.7603C112.323 11.4009 115.557 6.0283 116.1 4.86154C116.642 3.69479 117.462 0.228584 116.845 1.4971Z" fill="#86CBE3"/>
<path d="M143.324 44.0692C142.389 43.0134 135.597 35.8313 134.038 35.5691C133.981 35.0966 133.636 34.0179 132.709 33.4821C131.55 32.8125 128.15 33.3188 127.899 32.72C127.647 32.1212 128.751 31.7778 129.453 31.8062C132.252 31.9196 133.453 30.6972 134.598 29.7512C135.742 28.8052 144.147 25.4605 145.054 25.5314C145.961 25.6022 144.65 26.6581 143.597 26.8742C142.545 27.0903 136.146 29.9248 136.274 30.9878C136.401 32.0507 146.474 33.6275 147.537 33.5C148.6 33.3724 151.073 34.5134 150.407 34.9527C149.741 35.3921 143.073 34.4849 140.894 34.2971C138.715 34.1093 137.262 34.7329 136.784 35.2396C136.305 35.7463 140.865 40.0512 141.702 41.0292C142.538 42.0071 144.26 45.1251 143.324 44.0692Z" fill="#86CBE3"/>
</svg>
