<svg width="513" height="344" viewBox="0 0 513 344" fill="none" xmlns="http://www.w3.org/2000/svg">
<rect x="243.5" y="53.3823" width="70.753" height="86.2672" stroke="#E5FDC6"/>
<rect x="247.702" y="57.5842" width="62.3495" height="77.8637" stroke="#E5FDC6"/>
<line x1="244" y1="53.8215" x2="248.202" y2="58.0233" stroke="#E5FDC6"/>
<line x1="314.137" y1="53.5591" x2="309.935" y2="57.7609" stroke="#E5FDC6"/>
<line x1="248.202" y1="135.009" x2="244" y2="139.21" stroke="#E5FDC6"/>
<line x1="310.259" y1="135.594" x2="314.46" y2="139.796" stroke="#E5FDC6"/>
<rect x="283.24" y="0.5" width="84.2595" height="105.785" stroke="#FFFBD3"/>
<rect x="295.059" y="11.052" width="60.6232" height="83.8374" stroke="#FFFBD3"/>
<rect x="410.5" y="92.5" width="79" height="107" stroke="#B5E8FA"/>
<path d="M465.199 324.756C468.65 324.756 471.868 324.55 475.265 322.596C482.972 318.164 486.285 306.912 493.414 304.49C500.542 302.068 503.222 308.482 506.54 309.453C501.871 311.598 500.799 315.57 498.356 320.625C495.912 325.679 493.792 331.42 485.652 333.913C477.512 336.407 471.737 333.565 465.133 328.433C461.469 325.586 455.343 319.569 450.593 319.116C454.386 316.444 454.239 312.85 459.657 310.554C465.075 308.259 468.462 310.781 473.876 313.893C479.289 317.004 483.435 316.814 487.349 314.536C490.047 312.965 491.478 310.109 492.429 305.428C493.38 300.747 494.478 296.806 496.247 295.054C493.413 295.922 491.784 293.718 487.496 295.032C483.208 296.345 481.417 300.709 479.934 304.343C478.451 307.977 477.116 310.197 475.913 311.202" stroke="#C5EAFF" stroke-linecap="round" stroke-linejoin="round"/>
<circle cx="496.955" cy="309.305" r="1.4442" transform="rotate(-17.0296 496.955 309.305)" fill="#C5EAFF"/>
<path d="M465.789 324.72C442.087 324.72 384.869 324.72 384.869 324.72C384.869 324.72 375.041 321.685 375.041 313.447C375.041 305.209 374.463 301.596 374.463 297.261C389.012 297.261 425.971 297.261 434.295 297.261C441.232 297.261 441.232 292.008 441.232 289.457C441.232 286.905 441.232 188.292 441.232 188.292C441.232 186.268 439.845 182.222 434.295 182.222C428.746 182.222 329.084 182.222 279.946 182.222C277.345 182.222 272.142 183.436 272.142 188.292C272.142 193.147 272.142 257.758 272.142 289.457C272.142 293.439 273.587 297.261 278.212 297.261C282.837 297.261 323.495 297.261 340.356 297.261C340.356 299.38 340.067 305.585 340.067 313.447C340.067 322.263 330.384 324.72 330.384 324.72H0" stroke="#C5EAFF"/>
<rect x="279.084" y="188.214" width="154.794" height="87.4471" stroke="#C5EAFF"/>
<line x1="272.431" y1="282.02" x2="441.521" y2="282.02" stroke="#C5EAFF"/>
</svg>
