<svg width="349" height="455" viewBox="0 0 349 455" fill="none" xmlns="http://www.w3.org/2000/svg">
<path d="M298.688 0.09375L202.781 197.531H175.641L145.406 85.0312L85.5 197.531H57.9375L16.4531 0.09375H64.2656L83.25 111.469L138.797 0.09375H170.719L197.297 111.469L248.484 0.09375H298.688Z" fill="#B5E8FA"/>
<path d="M161.016 221.922C161.016 227.266 160.312 234.25 158.906 242.875L146.812 325H99.9844L113.203 236.828C113.391 235.328 113.484 234.156 113.484 233.312C113.484 229.188 112.453 225.531 110.391 222.344C108.422 219.156 105.422 217.562 101.391 217.562C96.7969 217.562 92.0156 219.297 87.0469 222.766C82.0781 226.141 75.7969 231.438 68.2031 238.656L55.5469 325H8.57812L37.6875 130.094H84.0938L73.9688 198.578C82.5938 192.203 90.3281 187.422 97.1719 184.234C104.016 180.953 111.844 179.312 120.656 179.312C131.25 179.312 139.5 181.703 145.406 186.484C151.406 191.172 155.484 196.797 157.641 203.359C159.891 209.828 161.016 216.016 161.016 221.922ZM336.234 183.812L314.578 325H268.031L270.281 312.062C264.844 316.844 259.547 320.641 254.391 323.453C249.328 326.172 242.812 327.531 234.844 327.531C224.719 327.531 215.766 324.719 207.984 319.094C200.203 313.375 194.203 305.781 189.984 296.312C185.766 286.844 183.656 276.531 183.656 265.375C183.656 256.094 185.156 246.625 188.156 236.969C191.25 227.219 196.688 217.938 204.469 209.125C212.344 200.219 223.406 193.047 237.656 187.609C251.906 182.078 269.484 179.312 290.391 179.312C299.203 179.312 306.422 179.641 312.047 180.297C317.672 180.953 325.734 182.125 336.234 183.812ZM285.609 213.766H276.891C268.453 213.766 260.719 216.156 253.688 220.938C246.75 225.719 241.312 232.188 237.375 240.344C233.438 248.5 231.469 257.312 231.469 266.781C231.469 273.25 233.109 278.781 236.391 283.375C239.672 287.875 244.359 290.125 250.453 290.125C253.453 290.125 256.828 289.375 260.578 287.875C264.422 286.281 269.297 283.562 275.203 279.719L285.609 213.766ZM114.609 305.844L107.156 341H79.4531L70.0312 387.688C69.2812 391.625 68.9062 394.719 68.9062 396.969C68.9062 404.938 72.4219 408.922 79.4531 408.922C87.0469 408.922 96.2812 404.891 107.156 396.828L104.484 440.141C91.6406 447.734 78.1406 451.531 63.9844 451.531C57.7969 451.531 51.75 450.453 45.8438 448.297C39.9375 446.047 34.5469 441.969 29.6719 436.062C23.8594 429.219 20.9531 420.219 20.9531 409.062C20.9531 404.094 21.4688 398.891 22.5 393.453L32.2031 341H5.76562L12.0938 305.844H38.8125L44.2969 277.297H91.5469L86.0625 305.844H114.609Z" fill="#B5E8FA"/>
</svg>
