<svg width="243" height="46" viewBox="0 0 243 46" fill="none" xmlns="http://www.w3.org/2000/svg">
<path d="M26.8469 14.8133C11.7684 14.826 -3.12928 18.1886 0.717904 23.0761C4.74308 28.1898 38.9199 27.0054 66.0598 25.4081C93.1997 23.8108 100.477 29.4367 127.383 30.8673C156.536 32.4173 169.6 27.6829 189.704 26.8788C209.808 26.0747 212.827 29.2211 228.91 29.2076C244.994 29.1941 243.984 23.8811 237.951 20.934C231.917 17.9869 198.742 15.8499 172.608 17.8399C146.474 19.8299 138.424 11.1771 105.252 11.2049C72.0793 11.2328 76.1041 15.9528 58.01 15.968C39.9159 15.9832 40.9377 14.8015 26.8469 14.8133Z" fill="white" fill-opacity="0.8"/>
<path d="M198.856 1.4971C198.239 2.76561 193.629 11.5096 192.198 12.1814C192.27 12.6516 192.228 13.7835 191.479 14.5487C190.543 15.5053 187.132 15.9319 187.051 16.5763C186.97 17.2207 188.125 17.2546 188.794 17.0385C191.459 16.1766 192.945 17.031 194.301 17.6344C195.658 18.2378 204.652 19.1993 205.507 18.8871C206.362 18.575 204.815 17.9105 203.743 17.9854C202.672 18.0602 195.746 17.0508 195.583 15.9927C195.42 14.9346 204.698 10.7072 205.756 10.5442C206.814 10.3812 208.89 8.61724 208.13 8.3732C207.37 8.12916 201.192 10.796 199.143 11.5628C197.095 12.3297 195.528 12.1197 194.931 11.7603C194.334 11.4009 197.569 6.0283 198.111 4.86154C198.653 3.69479 199.473 0.228584 198.856 1.4971Z" fill="#86CBE3"/>
<path d="M225.336 44.0692C224.4 43.0134 217.608 35.8313 216.049 35.5691C215.992 35.0966 215.647 34.0179 214.72 33.4821C213.562 32.8125 210.162 33.3188 209.91 32.72C209.659 32.1212 210.763 31.7778 211.464 31.8062C214.263 31.9196 215.465 30.6972 216.609 29.7512C217.753 28.8052 226.158 25.4605 227.065 25.5314C227.972 25.6022 226.661 26.6581 225.609 26.8742C224.556 27.0903 218.157 29.9248 218.285 30.9878C218.412 32.0507 228.486 33.6275 229.549 33.5C230.612 33.3724 233.085 34.5134 232.419 34.9527C231.752 35.3921 225.084 34.4849 222.905 34.2971C220.726 34.1093 219.273 34.7329 218.795 35.2396C218.317 35.7463 222.877 40.0512 223.713 41.0292C224.549 42.0071 226.271 45.1251 225.336 44.0692Z" fill="#86CBE3"/>
</svg>
