<svg width="40" height="39" viewBox="0 0 40 39" fill="none" xmlns="http://www.w3.org/2000/svg">
<path d="M15.8427 2.7199C10.7976 2.48271 13.5495 9.83491 15.8427 13.3923C18.1359 16.9498 21.7133 16.1908 23.181 15.0525C25.0156 13.6295 25.9329 2.22744 23.6396 0.585477C20.6585 -1.54903 18.5945 2.84928 15.8427 2.7199Z" fill="#A0DBEF"/>
<path d="M11.3731 35.1239C14.4351 39.1204 18.1535 32.4043 19.3353 28.4212C20.5171 24.4381 17.6543 22.1865 15.8628 21.7822C13.6234 21.2767 4.52796 27.7381 4.7752 30.5182C5.0966 34.1322 9.70301 32.944 11.3731 35.1239Z" fill="#A0DBEF"/>
<path d="M32.6548 8.77748C30.0687 4.4578 25.6085 10.7059 23.9801 14.5282C22.3517 18.3505 24.939 20.9139 26.6727 21.52C28.8398 22.2776 38.6129 16.8958 38.6844 14.1057C38.7773 10.4786 34.0654 11.1337 32.6548 8.77748Z" fill="#A0DBEF"/>
<path d="M4.44759 11.2325C5.24045 6.26071 11.7055 10.4003 14.6393 13.3421C17.5732 16.2838 16.1256 19.626 14.742 20.8337C13.0124 22.3433 1.93857 20.985 0.833907 18.4219C-0.602121 15.0898 4.01512 13.9444 4.44759 11.2325Z" fill="#A0DBEF"/>
<path d="M27.6955 34.8341C24.41 38.649 21.0816 31.7313 20.1295 27.6872C19.1773 23.6431 22.1642 21.5589 23.9759 21.2576C26.2406 20.881 34.9517 27.8518 34.5459 30.6132C34.0184 34.2029 29.4875 32.7533 27.6955 34.8341Z" fill="#A0DBEF"/>
</svg>
