<?xml version="1.0" encoding="UTF-8" standalone="no"?>
<!DOCTYPE svg PUBLIC "-//W3C//DTD SVG 1.1//EN" "http://www.w3.org/Graphics/SVG/1.1/DTD/svg11.dtd">
<svg width="100%" height="100%" viewBox="0 0 1920 432" version="1.1" xmlns="http://www.w3.org/2000/svg" xmlns:xlink="http://www.w3.org/1999/xlink" xml:space="preserve" xmlns:serif="http://www.serif.com/" style="fill-rule:evenodd;clip-rule:evenodd;stroke-linecap:round;stroke-linejoin:round;">
    <g transform="matrix(1,0,0,1,511,0)">
        <path d="M1276.85,400.573C1286.5,400.573 1295.5,399.996 1305,394.533C1326.55,382.14 1335.82,350.675 1355.75,343.903C1375.68,337.131 1383.18,355.064 1392.45,357.78C1379.4,363.779 1376.4,374.886 1369.57,389.02C1362.74,403.154 1356.81,419.208 1334.04,426.18C1311.28,433.152 1295.13,425.205 1276.67,410.855C1266.42,402.893 1249.29,386.069 1236.01,384.802C1246.61,377.33 1246.2,367.279 1261.35,360.86C1276.5,354.441 1285.98,361.495 1301.11,370.196C1316.25,378.897 1327.85,378.363 1338.79,371.994C1346.33,367.602 1350.33,359.614 1352.99,346.525C1355.65,333.435 1358.73,322.414 1363.67,317.516C1355.75,319.944 1351.19,313.781 1339.2,317.454C1327.21,321.126 1322.2,333.331 1318.05,343.493C1313.91,353.655 1310.18,359.862 1306.81,362.671" style="fill:none;fill-rule:nonzero;stroke:white;stroke-width:3px;"/>
    </g>
    <g transform="matrix(0.956154,-0.292866,0.292866,0.956154,466.218025,415.621362)">
        <circle cx="1365.65" cy="357.368" r="4.038" style="fill:white;"/>
    </g>
    <g transform="matrix(1,0,0,1,511,0)">
        <path d="M1278.5,400.472L1052.22,400.472C1052.22,400.472 1024.74,391.985 1024.74,368.95C1024.74,345.914 1023.12,335.811 1023.12,323.687L1190.43,323.687C1209.83,323.687 1209.83,309 1209.83,301.864L1209.83,18.973C1209.83,13.316 1205.95,2 1190.43,2L758.823,2C751.549,2 737,5.395 737,18.973L737,301.864C737,313 741.041,323.687 753.973,323.687L927.749,323.687C927.749,329.615 926.941,346.965 926.941,368.95C926.941,393.602 899.864,400.472 899.864,400.472L-530.12,400.472" style="fill:none;fill-rule:nonzero;stroke:white;stroke-width:3px;stroke-linecap:butt;stroke-linejoin:miter;"/>
    </g>
    <g transform="matrix(1,0,0,1,511,0)">
        <rect x="756.515" y="18.857" width="432.652" height="244.327" style="fill:none;stroke:white;stroke-width:3px;stroke-linecap:butt;stroke-linejoin:miter;"/>
    </g>
    <g transform="matrix(1,0,0,1,511,0)">
        <path d="M737.808,280.966L1210.64,280.966" style="fill:none;fill-rule:nonzero;stroke:white;stroke-width:3px;stroke-linecap:butt;stroke-linejoin:miter;"/>
    </g>
    <g transform="matrix(1,0,0,1,511,0)">
        <path d="M1012,322L938,322L938,346.252L1012,346.252L1012,322ZM953.812,333.525C954.083,332.973 954.219,332.366 954.219,331.705C954.219,330.752 953.917,329.965 953.312,329.345C952.708,328.725 951.74,328.416 950.406,328.416L946.344,328.416L944.758,339.244L947.547,339.244L948.101,335.384L950.344,335.384C951.224,335.384 951.956,335.212 952.539,334.869C953.122,334.525 953.547,334.077 953.812,333.525ZM951.101,330.9C951.268,331.181 951.351,331.499 951.351,331.853C951.351,332.515 951.156,333.007 950.766,333.33C950.375,333.647 949.825,333.806 949.117,333.806L948.344,333.806L948.906,329.994L949.164,329.994C949.628,329.994 950.026,330.074 950.359,330.236C950.693,330.397 950.94,330.619 951.101,330.9ZM960.797,334.478L962.023,331.962C961.768,331.707 961.526,331.509 961.297,331.369C961.073,331.223 960.815,331.15 960.523,331.15C959.966,331.15 959.331,331.577 958.617,332.431L958.781,331.291L956.203,331.291L955.016,339.244L957.594,339.244L958.266,334.697C958.693,333.962 959.161,333.595 959.672,333.595C959.937,333.595 960.156,333.681 960.328,333.853C960.5,334.025 960.656,334.233 960.797,334.478ZM969.984,336.744C970.213,336.192 970.328,335.6 970.328,334.97C970.328,334.137 970.146,333.434 969.781,332.861C969.417,332.288 968.94,331.861 968.351,331.58C967.763,331.293 967.133,331.15 966.461,331.15C965.82,331.15 965.219,331.265 964.656,331.494C964.094,331.723 963.601,332.043 963.18,332.455C962.763,332.861 962.437,333.332 962.203,333.869C961.969,334.4 961.851,334.955 961.851,335.533C961.851,336.293 962.034,336.968 962.398,337.556C962.763,338.145 963.255,338.598 963.875,338.916C964.495,339.228 965.164,339.384 965.883,339.384C966.492,339.384 967.07,339.278 967.617,339.064C968.164,338.845 968.638,338.541 969.039,338.15C969.44,337.759 969.755,337.291 969.984,336.744ZM967.281,333.791C967.542,334.061 967.672,334.439 967.672,334.923C967.672,335.278 967.599,335.629 967.453,335.978C967.307,336.322 967.099,336.603 966.828,336.822C966.557,337.041 966.253,337.15 965.914,337.15C965.487,337.15 965.146,337.002 964.891,336.705C964.635,336.408 964.508,336.043 964.508,335.611C964.508,335.309 964.568,334.986 964.687,334.642C964.812,334.293 965.008,333.996 965.273,333.752C965.539,333.507 965.88,333.384 966.297,333.384C966.698,333.384 967.026,333.52 967.281,333.791ZM975.125,330.314C975.359,330.08 975.476,329.798 975.476,329.47C975.476,329.262 975.422,329.064 975.312,328.877C975.203,328.689 975.055,328.541 974.867,328.431C974.68,328.322 974.482,328.267 974.273,328.267C973.945,328.267 973.661,328.387 973.422,328.627C973.187,328.861 973.07,329.142 973.07,329.47C973.07,329.793 973.187,330.074 973.422,330.314C973.661,330.548 973.945,330.666 974.273,330.666C974.607,330.666 974.891,330.548 975.125,330.314ZM974.078,340.072L975.328,331.291L972.719,331.291L971.601,339.244C971.534,339.759 971.404,340.142 971.211,340.392C971.023,340.647 970.708,340.775 970.266,340.775C970.182,340.775 970.12,340.772 970.078,340.767L969.758,342.861C970.169,342.955 970.518,343.002 970.805,343.002C971.7,343.002 972.44,342.731 973.023,342.189C973.607,341.647 973.958,340.942 974.078,340.072ZM984.187,335.947C984.26,335.546 984.297,335.158 984.297,334.783C984.297,333.986 984.143,333.314 983.836,332.767C983.529,332.22 983.117,331.814 982.601,331.548C982.091,331.283 981.526,331.15 980.906,331.15C980.078,331.15 979.333,331.356 978.672,331.767C978.016,332.173 977.5,332.725 977.125,333.423C976.755,334.116 976.57,334.871 976.57,335.689C976.57,336.236 976.682,336.788 976.906,337.345C977.13,337.903 977.552,338.382 978.172,338.783C978.792,339.184 979.643,339.384 980.726,339.384C981.237,339.384 981.659,339.345 981.992,339.267C982.331,339.189 982.779,339.038 983.336,338.814L983.734,336.861C983.146,337.1 982.638,337.283 982.211,337.408C981.789,337.533 981.31,337.595 980.773,337.595C979.695,337.595 979.156,337.046 979.156,335.947L984.187,335.947ZM981.781,334.439L981.781,334.541L979.367,334.541C979.555,334.061 979.755,333.676 979.969,333.384C980.187,333.087 980.484,332.939 980.859,332.939C981.479,332.939 981.789,333.387 981.789,334.283C981.789,334.35 981.786,334.403 981.781,334.439ZM992.531,333.9L992.883,331.439C992.049,331.246 991.266,331.15 990.531,331.15C989.25,331.15 988.229,331.4 987.469,331.9C986.713,332.4 986.185,332.988 985.883,333.666C985.581,334.337 985.43,334.965 985.43,335.548C985.43,336.465 985.74,337.335 986.359,338.158C986.984,338.975 988.151,339.384 989.859,339.384C990.109,339.384 990.351,339.371 990.586,339.345C990.825,339.324 991.044,339.291 991.242,339.244C991.445,339.197 991.711,339.121 992.039,339.017L992.453,336.345C991.844,336.632 991.357,336.827 990.992,336.931C990.628,337.035 990.26,337.087 989.891,337.087C989.167,337.087 988.685,336.923 988.445,336.595C988.206,336.267 988.086,335.929 988.086,335.58C988.086,335.314 988.172,335.017 988.344,334.689C988.516,334.356 988.792,334.074 989.172,333.845C989.552,333.616 990.042,333.502 990.641,333.502C990.963,333.502 991.273,333.538 991.57,333.611C991.7,333.637 992.021,333.733 992.531,333.9ZM998.883,333.244L999.297,331.291L997.711,331.291L998.016,329.705L995.391,329.705L995.086,331.291L993.601,331.291L993.25,333.244L994.719,333.244L994.18,336.158C994.122,336.46 994.094,336.749 994.094,337.025C994.094,337.645 994.255,338.145 994.578,338.525C994.849,338.853 995.148,339.08 995.476,339.205C995.805,339.324 996.141,339.384 996.484,339.384C997.271,339.384 998.021,339.173 998.734,338.752L998.883,336.345C998.279,336.793 997.766,337.017 997.344,337.017C996.953,337.017 996.758,336.796 996.758,336.353C996.758,336.228 996.779,336.056 996.82,335.837L997.344,333.244L998.883,333.244ZM1005.52,333.759L1005.72,331.884C1005.29,331.65 1004.88,331.47 1004.49,331.345C1004.11,331.215 1003.66,331.15 1003.14,331.15C1002.16,331.15 1001.41,331.392 1000.9,331.877C1000.39,332.361 1000.13,332.918 1000.13,333.548C1000.13,334.007 1000.28,334.421 1000.57,334.791C1000.87,335.155 1001.23,335.504 1001.67,335.837C1002.15,336.192 1002.47,336.444 1002.63,336.595C1002.8,336.741 1002.88,336.892 1002.88,337.048C1002.88,337.173 1002.82,337.285 1002.7,337.384C1002.59,337.483 1002.42,337.533 1002.21,337.533C1001.86,337.533 1001.52,337.481 1001.21,337.377C1000.9,337.267 1000.45,337.095 999.875,336.861L999.539,338.681C1000.07,338.957 1000.58,339.145 1001.07,339.244C1001.57,339.337 1001.95,339.384 1002.21,339.384C1002.88,339.384 1003.45,339.259 1003.91,339.009C1004.38,338.754 1004.73,338.431 1004.96,338.041C1005.19,337.645 1005.3,337.252 1005.3,336.861C1005.3,336.554 1005.21,336.225 1005.03,335.877C1004.85,335.528 1004.5,335.134 1003.98,334.697C1003.78,334.53 1003.55,334.361 1003.3,334.189C1003.05,334.012 1002.87,333.866 1002.77,333.752C1002.66,333.637 1002.61,333.509 1002.61,333.369C1002.61,333.124 1002.79,333.002 1003.14,333.002C1003.41,333.002 1003.78,333.08 1004.24,333.236C1004.71,333.392 1005.14,333.567 1005.52,333.759Z" style="fill:white;"/>
    </g>
    <g transform="matrix(1,0,0,1,511,0)">
        <path d="M976.012,293.629L968.043,310.164L966.941,310.164L963.941,298.891L958.469,310.164L957.344,310.164L953.723,293.629L956.453,293.629L958.738,304.48L958.785,304.48L963.988,293.629L965.148,293.629L968.102,304.598L968.172,304.598L973.188,293.629L976.012,293.629ZM979.48,298.891C980.293,298.891 981.016,299.082 981.648,299.465C982.289,299.84 982.781,300.375 983.125,301.07C983.477,301.766 983.652,302.551 983.652,303.426C983.652,303.816 983.613,304.23 983.535,304.668L976.645,304.668C976.598,304.941 976.574,305.191 976.574,305.418C976.574,305.996 976.688,306.504 976.914,306.941C977.148,307.371 977.473,307.703 977.887,307.938C978.301,308.164 978.766,308.277 979.281,308.277C979.789,308.277 980.348,308.172 980.957,307.961C981.566,307.742 982.258,307.414 983.031,306.977L982.598,309.262C981.348,309.949 980.121,310.293 978.918,310.293C977.941,310.293 977.078,310.078 976.328,309.648C975.586,309.219 975.012,308.602 974.605,307.797C974.207,306.992 974.008,306.07 974.008,305.031C974.008,303.914 974.25,302.883 974.734,301.938C975.219,300.984 975.879,300.238 976.715,299.699C977.559,299.16 978.48,298.891 979.48,298.891ZM981.156,303.062L981.156,302.875C981.156,302.25 981,301.754 980.688,301.387C980.383,301.02 979.945,300.836 979.375,300.836C978.25,300.836 977.441,301.578 976.949,303.062L981.156,303.062ZM993.215,303.859C993.215,302.977 993.027,302.293 992.652,301.809C992.277,301.316 991.762,301.07 991.105,301.07C990.746,301.07 990.367,301.191 989.969,301.434C989.578,301.676 989.215,301.996 988.879,302.395L988.059,308.125C988.09,308.133 988.25,308.145 988.539,308.16C988.828,308.168 989.027,308.172 989.137,308.172C990.418,308.172 991.418,307.793 992.137,307.035C992.855,306.277 993.215,305.219 993.215,303.859ZM995.887,303.812C995.887,304.75 995.719,305.629 995.383,306.449C995.047,307.27 994.578,307.965 993.977,308.535C993.375,309.105 992.641,309.543 991.773,309.848C990.914,310.145 989.949,310.293 988.879,310.293C987.566,310.293 986.348,310.203 985.223,310.023L987.484,293.629L990.098,293.629L989.184,300.109L989.195,300.121L989.23,300.109C989.723,299.664 990.176,299.352 990.59,299.172C991.004,298.984 991.465,298.891 991.973,298.891C992.715,298.891 993.387,299.105 993.988,299.535C994.59,299.957 995.055,300.547 995.383,301.305C995.719,302.055 995.887,302.891 995.887,303.812Z" style="fill:white;fill-rule:nonzero;"/>
    </g>
</svg>
