<svg width="512" height="344" viewBox="0 0 512 344" fill="none" xmlns="http://www.w3.org/2000/svg">
<path d="M425.488 321.619C431.773 321.619 437.635 321.244 443.822 317.686C457.859 309.613 463.895 289.118 476.879 284.707C489.862 280.296 494.743 291.977 500.787 293.746C492.283 297.654 490.33 304.888 485.88 314.095C481.43 323.301 477.568 333.758 462.742 338.299C447.916 342.84 437.397 337.664 425.368 328.317C418.694 323.131 407.536 312.173 398.885 311.347C405.793 306.48 405.525 299.933 415.393 295.752C425.262 291.571 431.432 296.166 441.292 301.833C451.152 307.501 458.704 307.153 465.832 303.005C470.747 300.144 473.353 294.941 475.085 286.415C476.817 277.889 478.818 270.71 482.04 267.52C476.877 269.101 473.91 265.087 466.1 267.479C458.289 269.871 455.027 277.821 452.326 284.44C449.626 291.059 447.194 295.102 445.003 296.932" stroke="white" stroke-width="3" stroke-linecap="round" stroke-linejoin="round"/>
<circle cx="483.33" cy="293.477" r="2.63049" transform="rotate(-17.0296 483.33 293.477)" fill="white"/>
<path d="M427 321.692C373.826 321.692 322.446 321.692 322.446 321.692C322.446 321.692 300.399 314.883 300.399 296.402C300.399 277.921 299.102 269.815 299.102 260.088C331.741 260.088 414.658 260.088 433.333 260.088C448.896 260.088 448.896 248.304 448.896 242.579C448.896 236.854 448.896 15.6177 448.896 15.6177C448.896 11.0785 445.784 2 433.333 2C420.883 2 197.293 2 87.0545 2C81.2183 2 69.5461 4.72354 69.5461 15.6177C69.5461 26.5119 69.5461 171.465 69.5461 242.579C69.5461 251.514 72.7884 260.088 83.1638 260.088C93.5392 260.088 184.756 260.088 222.583 260.088C222.583 264.843 221.935 278.764 221.935 296.402C221.935 316.18 200.211 321.692 200.211 321.692H-541" stroke="white" stroke-width="3"/>
<rect x="85.4993" y="15.8208" width="346.521" height="195.429" stroke="white" stroke-width="3"/>
<line x1="70.1943" y1="225.516" x2="449.545" y2="225.516" stroke="white" stroke-width="3"/>
<path fill-rule="evenodd" clip-rule="evenodd" d="M291 259H230V278.992H291V259ZM243.285 268.379C243.505 267.93 243.615 267.437 243.615 266.9C243.615 266.125 243.37 265.486 242.879 264.983C242.388 264.479 241.601 264.227 240.518 264.227H237.217L235.928 273.025H238.194L238.645 269.889H240.467C241.182 269.889 241.776 269.75 242.25 269.47C242.724 269.191 243.069 268.827 243.285 268.379ZM241.082 266.246C241.218 266.474 241.286 266.733 241.286 267.02C241.286 267.558 241.127 267.958 240.81 268.22C240.492 268.478 240.046 268.607 239.47 268.607H238.842L239.299 265.51H239.508C239.885 265.51 240.209 265.575 240.479 265.706C240.75 265.838 240.951 266.017 241.082 266.246ZM248.96 269.153L249.956 267.109C249.749 266.902 249.552 266.741 249.366 266.627C249.184 266.508 248.975 266.449 248.738 266.449C248.285 266.449 247.769 266.796 247.189 267.49L247.322 266.563H245.227L244.263 273.025H246.357L246.903 269.331C247.25 268.734 247.631 268.436 248.046 268.436C248.262 268.436 248.439 268.506 248.579 268.645C248.719 268.785 248.846 268.954 248.96 269.153ZM256.425 270.994C256.611 270.545 256.704 270.065 256.704 269.553C256.704 268.876 256.556 268.305 256.26 267.839C255.963 267.374 255.576 267.027 255.098 266.798C254.62 266.565 254.108 266.449 253.562 266.449C253.041 266.449 252.553 266.542 252.096 266.728C251.639 266.914 251.239 267.175 250.896 267.509C250.557 267.839 250.293 268.222 250.102 268.658C249.912 269.09 249.817 269.54 249.817 270.01C249.817 270.628 249.965 271.176 250.261 271.654C250.557 272.132 250.957 272.5 251.461 272.759C251.964 273.012 252.508 273.139 253.092 273.139C253.587 273.139 254.057 273.053 254.501 272.879C254.946 272.701 255.331 272.454 255.657 272.137C255.983 271.819 256.239 271.438 256.425 270.994ZM254.228 268.595C254.44 268.815 254.546 269.121 254.546 269.515C254.546 269.803 254.487 270.088 254.368 270.372C254.25 270.651 254.08 270.88 253.86 271.057C253.64 271.235 253.393 271.324 253.118 271.324C252.771 271.324 252.493 271.203 252.286 270.962C252.079 270.721 251.975 270.425 251.975 270.074C251.975 269.828 252.024 269.566 252.121 269.286C252.223 269.003 252.381 268.762 252.597 268.563C252.813 268.364 253.09 268.264 253.429 268.264C253.755 268.264 254.021 268.374 254.228 268.595ZM260.602 265.77C260.792 265.579 260.887 265.351 260.887 265.084C260.887 264.915 260.843 264.754 260.754 264.602C260.665 264.449 260.544 264.329 260.392 264.24C260.24 264.151 260.079 264.107 259.91 264.107C259.643 264.107 259.412 264.204 259.218 264.399C259.027 264.589 258.932 264.818 258.932 265.084C258.932 265.347 259.027 265.575 259.218 265.77C259.412 265.96 259.643 266.055 259.91 266.055C260.18 266.055 260.411 265.96 260.602 265.77ZM259.751 273.698L260.767 266.563H258.646L257.739 273.025C257.684 273.444 257.578 273.755 257.421 273.958C257.269 274.166 257.013 274.269 256.653 274.269C256.586 274.269 256.535 274.267 256.501 274.263L256.241 275.964C256.575 276.04 256.859 276.078 257.091 276.078C257.819 276.078 258.42 275.858 258.894 275.418C259.368 274.978 259.654 274.405 259.751 273.698ZM267.965 270.346C268.024 270.021 268.054 269.705 268.054 269.401C268.054 268.753 267.929 268.207 267.679 267.763C267.429 267.319 267.095 266.989 266.676 266.773C266.262 266.557 265.802 266.449 265.299 266.449C264.626 266.449 264.021 266.616 263.483 266.95C262.95 267.281 262.531 267.729 262.227 268.296C261.926 268.859 261.776 269.473 261.776 270.137C261.776 270.581 261.867 271.03 262.049 271.483C262.231 271.935 262.574 272.325 263.077 272.651C263.581 272.977 264.273 273.139 265.153 273.139C265.567 273.139 265.91 273.108 266.181 273.044C266.456 272.981 266.82 272.858 267.273 272.676L267.597 271.089C267.118 271.284 266.706 271.432 266.359 271.533C266.016 271.635 265.627 271.686 265.191 271.686C264.315 271.686 263.877 271.239 263.877 270.346H267.965ZM266.01 269.121V269.204H264.048C264.201 268.815 264.364 268.501 264.537 268.264C264.715 268.023 264.956 267.903 265.261 267.903C265.764 267.903 266.016 268.267 266.016 268.994C266.016 269.049 266.014 269.092 266.01 269.121ZM274.744 268.683L275.03 266.684C274.353 266.527 273.716 266.449 273.119 266.449C272.078 266.449 271.249 266.652 270.631 267.058C270.017 267.465 269.588 267.943 269.342 268.493C269.097 269.039 268.974 269.549 268.974 270.023C268.974 270.768 269.226 271.474 269.729 272.143C270.237 272.807 271.185 273.139 272.573 273.139C272.776 273.139 272.973 273.129 273.164 273.108C273.358 273.091 273.536 273.063 273.697 273.025C273.862 272.987 274.078 272.926 274.344 272.841L274.681 270.67C274.185 270.903 273.79 271.062 273.494 271.146C273.197 271.231 272.899 271.273 272.599 271.273C272.01 271.273 271.619 271.14 271.424 270.873C271.23 270.607 271.132 270.332 271.132 270.048C271.132 269.832 271.202 269.591 271.342 269.324C271.481 269.054 271.706 268.825 272.015 268.639C272.324 268.453 272.721 268.36 273.208 268.36C273.47 268.36 273.722 268.389 273.963 268.449C274.069 268.47 274.329 268.548 274.744 268.683ZM279.905 268.15L280.241 266.563H278.953L279.2 265.275H277.067L276.82 266.563H275.614L275.328 268.15H276.521L276.083 270.518C276.037 270.763 276.014 270.998 276.014 271.222C276.014 271.726 276.145 272.132 276.407 272.441C276.627 272.708 276.871 272.892 277.137 272.993C277.404 273.091 277.677 273.139 277.956 273.139C278.595 273.139 279.204 272.968 279.784 272.625L279.905 270.67C279.414 271.034 278.997 271.216 278.654 271.216C278.337 271.216 278.178 271.036 278.178 270.677C278.178 270.575 278.195 270.435 278.229 270.258L278.654 268.15H279.905ZM285.3 268.569L285.459 267.046C285.108 266.855 284.775 266.709 284.462 266.608C284.153 266.502 283.787 266.449 283.364 266.449C282.569 266.449 281.961 266.646 281.542 267.039C281.128 267.433 280.92 267.886 280.92 268.398C280.92 268.77 281.039 269.107 281.276 269.407C281.517 269.703 281.815 269.987 282.171 270.258C282.56 270.545 282.82 270.751 282.952 270.873C283.087 270.992 283.155 271.115 283.155 271.241C283.155 271.343 283.106 271.434 283.009 271.514C282.916 271.595 282.782 271.635 282.609 271.635C282.321 271.635 282.05 271.593 281.796 271.508C281.542 271.419 281.181 271.28 280.711 271.089L280.438 272.568C280.87 272.792 281.284 272.945 281.682 273.025C282.084 273.101 282.393 273.139 282.609 273.139C283.155 273.139 283.616 273.038 283.993 272.835C284.373 272.627 284.657 272.365 284.843 272.048C285.029 271.726 285.123 271.407 285.123 271.089C285.123 270.839 285.048 270.573 284.9 270.289C284.756 270.006 284.471 269.686 284.043 269.331C283.883 269.195 283.701 269.058 283.498 268.918C283.294 268.774 283.148 268.656 283.06 268.563C282.975 268.47 282.933 268.366 282.933 268.252C282.933 268.053 283.076 267.953 283.364 267.953C283.584 267.953 283.883 268.017 284.259 268.144C284.64 268.271 284.987 268.413 285.3 268.569Z" fill="white"/>
<path d="M260.76 236.357L254.119 250.137H253.201L250.701 240.742L246.141 250.137H245.203L242.186 236.357H244.461L246.365 245.4H246.404L250.74 236.357H251.707L254.168 245.498H254.227L258.406 236.357H260.76ZM263.65 240.742C264.327 240.742 264.93 240.902 265.457 241.221C265.991 241.533 266.401 241.979 266.688 242.559C266.98 243.138 267.127 243.792 267.127 244.521C267.127 244.847 267.094 245.192 267.029 245.557H261.287C261.248 245.785 261.229 245.993 261.229 246.182C261.229 246.663 261.323 247.087 261.512 247.451C261.707 247.809 261.977 248.086 262.322 248.281C262.667 248.47 263.055 248.564 263.484 248.564C263.908 248.564 264.373 248.477 264.881 248.301C265.389 248.118 265.965 247.845 266.609 247.48L266.248 249.385C265.206 249.958 264.184 250.244 263.182 250.244C262.368 250.244 261.648 250.065 261.023 249.707C260.405 249.349 259.926 248.835 259.588 248.164C259.256 247.493 259.09 246.725 259.09 245.859C259.09 244.928 259.292 244.069 259.695 243.281C260.099 242.487 260.649 241.865 261.346 241.416C262.049 240.967 262.817 240.742 263.65 240.742ZM265.047 244.219V244.062C265.047 243.542 264.917 243.128 264.656 242.822C264.402 242.516 264.038 242.363 263.562 242.363C262.625 242.363 261.951 242.982 261.541 244.219H265.047ZM275.096 244.883C275.096 244.147 274.939 243.577 274.627 243.174C274.314 242.764 273.885 242.559 273.338 242.559C273.038 242.559 272.723 242.66 272.391 242.861C272.065 243.063 271.762 243.33 271.482 243.662L270.799 248.438C270.825 248.444 270.958 248.454 271.199 248.467C271.44 248.473 271.606 248.477 271.697 248.477C272.765 248.477 273.598 248.161 274.197 247.529C274.796 246.898 275.096 246.016 275.096 244.883ZM277.322 244.844C277.322 245.625 277.182 246.357 276.902 247.041C276.622 247.725 276.232 248.304 275.73 248.779C275.229 249.255 274.617 249.619 273.895 249.873C273.178 250.12 272.374 250.244 271.482 250.244C270.389 250.244 269.373 250.169 268.436 250.02L270.32 236.357H272.498L271.736 241.758L271.746 241.768L271.775 241.758C272.186 241.387 272.563 241.126 272.908 240.977C273.253 240.82 273.637 240.742 274.061 240.742C274.679 240.742 275.239 240.921 275.74 241.279C276.242 241.631 276.629 242.122 276.902 242.754C277.182 243.379 277.322 244.076 277.322 244.844Z" fill="white"/>
</svg>
