<svg width="119" height="39" viewBox="0 0 119 39" fill="none" xmlns="http://www.w3.org/2000/svg">
<path fill-rule="evenodd" clip-rule="evenodd" d="M119 0H0V39H119V0ZM32.8164 18.4219C33.2227 17.5938 33.4258 16.6836 33.4258 15.6914C33.4258 14.2617 32.9727 13.082 32.0664 12.1523C31.1602 11.2227 29.707 10.7578 27.707 10.7578H21.6133L19.2344 27H23.418L24.25 21.2109H27.6133C28.9336 21.2109 30.0312 20.9531 30.9062 20.4375C31.7812 19.9219 32.418 19.25 32.8164 18.4219ZM28.75 14.4844C29 14.9062 29.125 15.3828 29.125 15.9141C29.125 16.9062 28.832 17.6445 28.2461 18.1289C27.6602 18.6055 26.8359 18.8438 25.7734 18.8438H24.6133L25.457 13.125H25.8438C26.5391 13.125 27.1367 13.2461 27.6367 13.4883C28.1367 13.7305 28.5078 14.0625 28.75 14.4844ZM45.9648 23.25C46.3086 22.4219 46.4805 21.5352 46.4805 20.5898C46.4805 19.3398 46.207 18.2852 45.6602 17.4258C45.1133 16.5664 44.3984 15.9258 43.5156 15.5039C42.6328 15.0742 41.6875 14.8594 40.6797 14.8594C39.7188 14.8594 38.8164 15.0312 37.9727 15.375C37.1289 15.7188 36.3906 16.1992 35.7578 16.8164C35.1328 17.4258 34.6445 18.1328 34.293 18.9375C33.9414 19.7344 33.7656 20.5664 33.7656 21.4336C33.7656 22.5742 34.0391 23.5859 34.5859 24.4688C35.1328 25.3516 35.8711 26.0312 36.8008 26.5078C37.7305 26.9766 38.7344 27.2109 39.8125 27.2109C40.7266 27.2109 41.5938 27.0508 42.4141 26.7305C43.2344 26.4023 43.9453 25.9453 44.5469 25.3594C45.1484 24.7734 45.6211 24.0703 45.9648 23.25ZM41.9102 18.8203C42.3008 19.2266 42.4961 19.793 42.4961 20.5195C42.4961 21.0508 42.3867 21.5781 42.168 22.1016C41.9492 22.6172 41.6367 23.0391 41.2305 23.3672C40.8242 23.6953 40.3672 23.8594 39.8594 23.8594C39.2188 23.8594 38.707 23.6367 38.3242 23.1914C37.9414 22.7461 37.75 22.1992 37.75 21.5508C37.75 21.0977 37.8398 20.6133 38.0195 20.0977C38.207 19.5742 38.5 19.1289 38.8984 18.7617C39.2969 18.3945 39.8086 18.2109 40.4336 18.2109C41.0352 18.2109 41.5273 18.4141 41.9102 18.8203ZM56.4766 18.7734L56.7695 15.9609C56.1211 15.6094 55.5078 15.3398 54.9297 15.1523C54.3594 14.957 53.6836 14.8594 52.9023 14.8594C51.4336 14.8594 50.3125 15.2227 49.5391 15.9492C48.7734 16.6758 48.3906 17.5117 48.3906 18.457C48.3906 19.1445 48.6094 19.7656 49.0469 20.3203C49.4922 20.8672 50.043 21.3906 50.6992 21.8906C51.418 22.4219 51.8984 22.8008 52.1406 23.0273C52.3906 23.2461 52.5156 23.4727 52.5156 23.707C52.5156 23.8945 52.4258 24.0625 52.2461 24.2109C52.0742 24.3594 51.8281 24.4336 51.5078 24.4336C50.9766 24.4336 50.4766 24.3555 50.0078 24.1992C49.5391 24.0352 48.8711 23.7773 48.0039 23.4258L47.5 26.1562C48.2969 26.5703 49.0625 26.8516 49.7969 27C50.5391 27.1406 51.1094 27.2109 51.5078 27.2109C52.5156 27.2109 53.3672 27.0234 54.0625 26.6484C54.7656 26.2656 55.2891 25.7812 55.6328 25.1953C55.9766 24.6016 56.1484 24.0117 56.1484 23.4258C56.1484 22.9648 56.0117 22.4727 55.7383 21.9492C55.4727 21.4258 54.9453 20.8359 54.1562 20.1797C53.8594 19.9297 53.5234 19.6758 53.1484 19.418C52.7734 19.1523 52.5039 18.9336 52.3398 18.7617C52.1836 18.5898 52.1055 18.3984 52.1055 18.1875C52.1055 17.8203 52.3711 17.6367 52.9023 17.6367C53.3086 17.6367 53.8594 17.7539 54.5547 17.9883C55.2578 18.2227 55.8984 18.4844 56.4766 18.7734ZM66.2031 18L66.8242 15.0703H64.4453L64.9023 12.6914H60.9648L60.5078 15.0703H58.2812L57.7539 18H59.957L59.1484 22.3711C59.0625 22.8242 59.0195 23.2578 59.0195 23.6719C59.0195 24.6016 59.2617 25.3516 59.7461 25.9219C60.1523 26.4141 60.6016 26.7539 61.0938 26.9414C61.5859 27.1211 62.0898 27.2109 62.6055 27.2109C63.7852 27.2109 64.9102 26.8945 65.9805 26.2617L66.2031 22.6523C65.2969 23.3242 64.5273 23.6602 63.8945 23.6602C63.3086 23.6602 63.0156 23.3281 63.0156 22.6641C63.0156 22.4766 63.0469 22.2188 63.1094 21.8906L63.8945 18H66.2031ZM79.3398 22.0547C79.4492 21.4531 79.5039 20.8711 79.5039 20.3086C79.5039 19.1133 79.2734 18.1055 78.8125 17.2852C78.3516 16.4648 77.7344 15.8555 76.9609 15.457C76.1953 15.0586 75.3477 14.8594 74.418 14.8594C73.1758 14.8594 72.0586 15.168 71.0664 15.7852C70.082 16.3945 69.3086 17.2227 68.7461 18.2695C68.1914 19.3086 67.9141 20.4414 67.9141 21.668C67.9141 22.4883 68.082 23.3164 68.418 24.1523C68.7539 24.9883 69.3867 25.707 70.3164 26.3086C71.2461 26.9102 72.5234 27.2109 74.1484 27.2109C74.9141 27.2109 75.5469 27.1523 76.0469 27.0352C76.5547 26.918 77.2266 26.6914 78.0625 26.3555L78.6602 23.4258C77.7773 23.7852 77.0156 24.0586 76.375 24.2461C75.7422 24.4336 75.0234 24.5273 74.2188 24.5273C72.6016 24.5273 71.793 23.7031 71.793 22.0547H79.3398ZM75.7305 19.793V19.9453H72.1094C72.3906 19.2266 72.6914 18.6484 73.0117 18.2109C73.3398 17.7656 73.7852 17.543 74.3477 17.543C75.2773 17.543 75.7422 18.2148 75.7422 19.5586C75.7422 19.6602 75.7383 19.7383 75.7305 19.793ZM89.6992 19.8516L91.5391 16.0781C91.1562 15.6953 90.793 15.3984 90.4492 15.1875C90.1133 14.9688 89.7266 14.8594 89.2891 14.8594C88.4531 14.8594 87.5 15.5 86.4297 16.7812L86.6758 15.0703H82.8086L81.0273 27H84.8945L85.9023 20.1797C86.543 19.0781 87.2461 18.5273 88.0117 18.5273C88.4102 18.5273 88.7383 18.6562 88.9961 18.9141C89.2539 19.1719 89.4883 19.4844 89.6992 19.8516ZM100.188 18.7734L100.48 15.9609C99.832 15.6094 99.2188 15.3398 98.6406 15.1523C98.0703 14.957 97.3945 14.8594 96.6133 14.8594C95.1445 14.8594 94.0234 15.2227 93.25 15.9492C92.4844 16.6758 92.1016 17.5117 92.1016 18.457C92.1016 19.1445 92.3203 19.7656 92.7578 20.3203C93.2031 20.8672 93.7539 21.3906 94.4102 21.8906C95.1289 22.4219 95.6094 22.8008 95.8516 23.0273C96.1016 23.2461 96.2266 23.4727 96.2266 23.707C96.2266 23.8945 96.1367 24.0625 95.957 24.2109C95.7852 24.3594 95.5391 24.4336 95.2188 24.4336C94.6875 24.4336 94.1875 24.3555 93.7188 24.1992C93.25 24.0352 92.582 23.7773 91.7148 23.4258L91.2109 26.1562C92.0078 26.5703 92.7734 26.8516 93.5078 27C94.25 27.1406 94.8203 27.2109 95.2188 27.2109C96.2266 27.2109 97.0781 27.0234 97.7734 26.6484C98.4766 26.2656 99 25.7812 99.3438 25.1953C99.6875 24.6016 99.8594 24.0117 99.8594 23.4258C99.8594 22.9648 99.7227 22.4727 99.4492 21.9492C99.1836 21.4258 98.6562 20.8359 97.8672 20.1797C97.5703 19.9297 97.2344 19.6758 96.8594 19.418C96.4844 19.1523 96.2148 18.9336 96.0508 18.7617C95.8945 18.5898 95.8164 18.3984 95.8164 18.1875C95.8164 17.8203 96.082 17.6367 96.6133 17.6367C97.0195 17.6367 97.5703 17.7539 98.2656 17.9883C98.9688 18.2227 99.6094 18.4844 100.188 18.7734Z" fill="white"/>
</svg>
